<?xml version="1.0" encoding="UTF-8"?>
<!DOCTYPE svg PUBLIC "-//W3C//DTD SVG 1.1//EN" "http://www.w3.org/Graphics/SVG/1.1/DTD/svg11.dtd">
<!-- Creator: CorelDRAW 2020 (64-Bit) -->
<svg xmlns="http://www.w3.org/2000/svg" xml:space="preserve" width="365px" height="150px" version="1.1" shape-rendering="geometricPrecision" text-rendering="geometricPrecision" image-rendering="optimizeQuality" fill-rule="evenodd" clip-rule="evenodd"
viewBox="0 0 365 150.17"
 xmlns:xlink="http://www.w3.org/1999/xlink"
 xmlns:xodm="http://www.corel.com/coreldraw/odm/2003">
 <g id="Layer_x0020_1">
  <metadata id="CorelCorpID_0Corel-Layer"/>
  <g>
   <path fill="white" fill-rule="nonzero" d="M156.98 133.28l-1.27 0.33c-0.17,-0.58 -0.45,-1.05 -0.83,-1.39 -0.39,-0.34 -0.81,-0.51 -1.26,-0.51 -0.5,0 -0.9,0.18 -1.21,0.53 -0.32,0.35 -0.47,0.81 -0.47,1.4 0,0.52 0.16,1.05 0.5,1.61 0.2,0.35 0.7,0.9 1.49,1.65 0.82,0.76 1.4,1.48 1.72,2.14 0.33,0.67 0.49,1.32 0.49,1.96 0,0.67 -0.18,1.32 -0.54,1.94 -0.35,0.63 -0.83,1.12 -1.44,1.48 -0.6,0.36 -1.24,0.54 -1.92,0.54 -0.86,0 -1.6,-0.28 -2.23,-0.85 -0.63,-0.56 -1.09,-1.39 -1.36,-2.47l1.24 -0.44c0.19,0.83 0.51,1.45 0.95,1.85 0.44,0.41 0.95,0.61 1.52,0.61 0.66,0 1.22,-0.25 1.69,-0.75 0.47,-0.5 0.71,-1.12 0.71,-1.85 0,-0.54 -0.14,-1.07 -0.4,-1.58 -0.27,-0.51 -0.79,-1.13 -1.57,-1.85 -0.83,-0.78 -1.37,-1.38 -1.62,-1.79 -0.41,-0.69 -0.62,-1.43 -0.62,-2.19 0,-0.96 0.3,-1.74 0.9,-2.36 0.6,-0.62 1.35,-0.93 2.24,-0.93 0.75,0 1.42,0.24 2,0.74 0.59,0.49 1.02,1.22 1.29,2.18zm9.57 -2.92c1.81,0 3.31,0.61 4.51,1.84 1.2,1.23 1.8,2.78 1.8,4.66 0,2.28 -0.76,4.21 -2.28,5.76 -1.53,1.56 -3.43,2.34 -5.7,2.34 -1.93,0 -3.48,-0.6 -4.64,-1.8 -1.16,-1.19 -1.75,-2.76 -1.75,-4.7 0,-1.49 0.35,-2.86 1.05,-4.1 0.69,-1.25 1.66,-2.23 2.89,-2.94 1.23,-0.71 2.6,-1.06 4.12,-1.06zm-0.03 1.29c-1.28,0 -2.42,0.29 -3.43,0.88 -1.01,0.58 -1.8,1.4 -2.39,2.47 -0.59,1.06 -0.88,2.2 -0.88,3.41 0,1.02 0.21,1.94 0.64,2.75 0.43,0.81 1.01,1.42 1.76,1.85 0.75,0.43 1.64,0.65 2.65,0.65 1.2,0 2.32,-0.3 3.35,-0.9 1.02,-0.61 1.83,-1.44 2.42,-2.51 0.58,-1.07 0.88,-2.23 0.88,-3.47 0,-1.65 -0.56,-2.96 -1.67,-3.92 -0.92,-0.81 -2.04,-1.21 -3.33,-1.21zm16.25 -0.94l-0.17 1.35 -5.15 0 -0.59 4.55 5.14 0 -0.16 1.32 -5.15 0 -0.88 6.68 -1.32 0 1.81 -13.9 6.47 0zm1.01 0l8.01 0 -0.18 1.31 -3.36 0 -1.64 12.59 -1.36 0 1.64 -12.59 -3.28 0 0.17 -1.31zm8.45 0l1.31 0 1.87 10.32 5.22 -10.32 0.24 0 2.33 10.32 4.75 -10.32 1.39 0 -6.39 13.9 -0.23 0 -2.37 -10.48 -5.36 10.48 -0.23 0 -2.53 -13.9zm24.57 0l4.49 13.9 -1.37 0 -1.47 -4.55 -5.67 0 -2.54 4.55 -1.5 0 7.75 -13.9 0.31 0zm-0.44 2.91l-2.85 5.12 4.51 0 -1.66 -5.12zm9 -2.91l3.37 0c1.2,0 2.06,0.11 2.58,0.35 0.52,0.24 0.94,0.61 1.26,1.13 0.32,0.52 0.48,1.13 0.48,1.81 0,0.75 -0.19,1.45 -0.57,2.09 -0.38,0.64 -0.9,1.12 -1.55,1.45 -0.66,0.32 -1.52,0.48 -2.59,0.48l4.04 6.59 -1.52 0 -4.05 -6.59 -1.05 0 -0.86 6.59 -1.36 0 1.82 -13.9zm1.18 1.33l-0.61 4.63 1.55 0c1.15,0 1.9,-0.05 2.25,-0.14 0.59,-0.15 1.07,-0.45 1.43,-0.89 0.37,-0.45 0.55,-0.99 0.55,-1.63 0,-0.73 -0.25,-1.26 -0.76,-1.58 -0.39,-0.26 -1.09,-0.39 -2.1,-0.39l-2.31 0zm17.26 -1.33l-0.19 1.35 -6.01 0 -0.6 4.55 6.01 0 -0.17 1.32 -6.01 0 -0.7 5.36 6.02 0 -0.15 1.32 -7.4 0 1.82 -13.9 7.38 0zm7.81 0l2.86 0c1.82,0 3.21,0.24 4.18,0.74 0.97,0.49 1.75,1.26 2.34,2.3 0.6,1.03 0.89,2.21 0.89,3.54 0,1.42 -0.33,2.73 -1,3.94 -0.68,1.2 -1.5,2.06 -2.48,2.59 -0.98,0.52 -2.44,0.79 -4.39,0.79l-4.22 0 1.82 -13.9zm1.18 1.33l-1.46 11.21 1.17 0c1.8,0 3,-0.05 3.59,-0.15 0.89,-0.15 1.65,-0.45 2.26,-0.89 0.61,-0.45 1.13,-1.11 1.57,-2 0.44,-0.88 0.65,-1.85 0.65,-2.9 0,-1.1 -0.24,-2.06 -0.73,-2.89 -0.49,-0.82 -1.17,-1.44 -2.02,-1.85 -0.73,-0.35 -1.97,-0.53 -3.7,-0.53l-1.33 0zm20.1 -1.33l-0.19 1.35 -6.01 0 -0.59 4.55 6.01 0 -0.18 1.32 -6 0 -0.7 5.36 6.02 0 -0.16 1.32 -7.39 0 1.81 -13.9 7.38 0zm1.52 0l1.35 0 3.32 11 6.23 -11 1.48 0 -7.86 13.9 -0.32 0 -4.2 -13.9zm21.62 0l-0.19 1.35 -6.01 0 -0.59 4.55 6 0 -0.17 1.32 -6.01 0 -0.7 5.36 6.02 0 -0.15 1.32 -7.4 0 1.82 -13.9 7.38 0zm2.67 0l1.36 0 -1.64 12.58 5.78 0 -0.16 1.32 -7.15 0 1.81 -13.9zm15.08 -0.35c1.81,0 3.31,0.61 4.51,1.84 1.2,1.23 1.8,2.78 1.8,4.66 0,2.28 -0.76,4.21 -2.28,5.76 -1.53,1.56 -3.43,2.34 -5.7,2.34 -1.93,0 -3.48,-0.6 -4.64,-1.8 -1.16,-1.19 -1.75,-2.76 -1.75,-4.7 0,-1.49 0.35,-2.86 1.05,-4.1 0.7,-1.25 1.66,-2.23 2.89,-2.94 1.23,-0.71 2.6,-1.06 4.12,-1.06zm-0.03 1.29c-1.28,0 -2.42,0.29 -3.43,0.88 -1,0.58 -1.8,1.4 -2.39,2.47 -0.59,1.06 -0.88,2.2 -0.88,3.41 0,1.02 0.21,1.94 0.64,2.75 0.43,0.81 1.01,1.42 1.76,1.85 0.75,0.43 1.64,0.65 2.65,0.65 1.2,0 2.32,-0.3 3.35,-0.9 1.02,-0.61 1.83,-1.44 2.42,-2.51 0.58,-1.07 0.88,-2.23 0.88,-3.47 0,-1.65 -0.56,-2.96 -1.67,-3.92 -0.92,-0.81 -2.04,-1.21 -3.33,-1.21zm9.95 -0.94l3.65 0c1.21,0 2.07,0.11 2.6,0.34 0.52,0.24 0.94,0.61 1.26,1.13 0.31,0.51 0.47,1.12 0.47,1.82 0,0.91 -0.25,1.71 -0.75,2.39 -0.49,0.67 -1.12,1.13 -1.88,1.38 -0.55,0.18 -1.52,0.27 -2.92,0.27l-2.03 0 -0.85 6.57 -1.36 0 1.81 -13.9zm1.19 1.33l-0.61 4.63 1.86 0c1.25,0 2.11,-0.09 2.59,-0.27 0.49,-0.18 0.87,-0.49 1.17,-0.93 0.29,-0.44 0.43,-0.92 0.43,-1.46 0,-0.44 -0.1,-0.82 -0.29,-1.13 -0.2,-0.31 -0.48,-0.52 -0.83,-0.65 -0.35,-0.12 -1,-0.19 -1.94,-0.19l-2.38 0zm17.08 -1.33l-0.19 1.35 -6.01 0 -0.59 4.55 6.01 0 -0.18 1.32 -6 0 -0.7 5.36 6.02 0 -0.16 1.32 -7.39 0 1.81 -13.9 7.38 0zm2.92 0l3.37 0c1.2,0 2.06,0.11 2.58,0.35 0.52,0.24 0.94,0.61 1.26,1.13 0.33,0.52 0.49,1.13 0.49,1.81 0,0.75 -0.19,1.45 -0.57,2.09 -0.38,0.64 -0.9,1.12 -1.56,1.45 -0.66,0.32 -1.52,0.48 -2.59,0.48l4.04 6.59 -1.52 0 -4.04 -6.59 -1.06 0 -0.86 6.59 -1.35 0 1.81 -13.9zm1.18 1.33l-0.6 4.63 1.55 0c1.14,0 1.89,-0.05 2.25,-0.14 0.59,-0.15 1.07,-0.45 1.43,-0.89 0.36,-0.45 0.54,-0.99 0.54,-1.63 0,-0.73 -0.25,-1.26 -0.76,-1.58 -0.39,-0.26 -1.09,-0.39 -2.1,-0.39l-2.31 0z"/>
   <path id="1" fill="black" d="M157.86 145.19c-0.2,0.27 -0.41,0.53 -0.64,0.76 -0.45,0.46 -0.93,0.84 -1.47,1.16 -0.06,0.03 -0.12,0.06 -0.17,0.09 -0.49,0.28 -0.99,0.48 -1.51,0.63 -0.61,0.17 -1.22,0.26 -1.83,0.26 -0.79,0 -1.56,-0.14 -2.3,-0.42 -0.73,-0.28 -1.4,-0.69 -2.01,-1.24 -0.59,-0.52 -1.08,-1.14 -1.48,-1.86 -0.35,-0.65 -0.63,-1.37 -0.83,-2.18 -0.41,-1.63 0.55,-3.29 2.16,-3.75l1.08 -0.38c0.06,-0.02 0.11,-0.04 0.17,-0.06 -0.21,-0.26 -0.39,-0.51 -0.54,-0.76 -0.04,-0.08 -0.08,-0.15 -0.12,-0.22 -0.29,-0.54 -0.52,-1.07 -0.67,-1.61 -0.18,-0.65 -0.28,-1.31 -0.28,-1.96 0,-0.86 0.15,-1.66 0.44,-2.42 0.3,-0.78 0.74,-1.49 1.34,-2.11 0.01,-0.01 0.02,-0.02 0.03,-0.02 0.6,-0.62 1.28,-1.08 2.03,-1.4 0.77,-0.31 1.58,-0.47 2.43,-0.47 0.74,0 1.45,0.12 2.14,0.38 0.66,0.24 1.28,0.61 1.86,1.1l0.01 -0.01c0.48,0.4 0.89,0.88 1.25,1.42 0.58,-0.53 1.22,-0.99 1.93,-1.4 0,0 0,0 0,-0.01l0 0c0.83,-0.48 1.75,-0.85 2.73,-1.11 0.97,-0.25 1.95,-0.37 2.94,-0.37 1.29,0 2.51,0.23 3.66,0.7 1.15,0.47 2.17,1.16 3.06,2.07 0.33,-1.42 1.59,-2.41 3.03,-2.41l0 -0.01 6.47 0c0.18,0 0.36,0.01 0.54,0.04 0.15,-0.02 0.31,-0.03 0.47,-0.03l0 -0.01 8.01 0c0.1,0 0.21,0 0.31,0.01 0.04,0 0.09,0 0.13,0l0 -0.01 1.31 0c1.63,0 2.97,1.25 3.11,2.84l0.17 0.91 1.02 -2.03c0.55,-1.09 1.65,-1.71 2.79,-1.72l0 0 0.24 0c1.57,0 2.88,1.16 3.09,2.68l0.25 1.1 0.9 -1.95c0.53,-1.15 1.66,-1.82 2.84,-1.82l0 -0.01 1.39 0c1.73,0 3.13,1.4 3.13,3.13 0,0.49 -0.11,0.96 -0.32,1.37l1.61 -2.89c0.57,-1.02 1.64,-1.6 2.73,-1.6l0 -0.01 0.31 0c1.48,0 2.72,1.03 3.05,2.41l1.75 5.42 0.66 -5.11c0.21,-1.57 1.55,-2.71 3.1,-2.71l0 -0.01 3.37 0c0.7,0 1.35,0.04 1.96,0.12 0.72,0.1 1.36,0.27 1.9,0.52l0 -0.01c0.45,0.21 0.86,0.46 1.24,0.76 0.56,-0.85 1.53,-1.38 2.59,-1.38l0 -0.01 7.38 0c1.72,0 3.12,1.4 3.12,3.13 0,0.22 -0.02,0.44 -0.06,0.65l-0.16 1.13c-0.12,0.89 -0.61,1.63 -1.29,2.12 0.46,0.54 0.73,1.24 0.73,2 0,0.23 -0.02,0.45 -0.07,0.67l-0.14 1.05c-0.15,1.14 -0.9,2.06 -1.88,2.47 0.75,0.57 1.23,1.48 1.23,2.49 0,0.17 -0.01,0.34 -0.04,0.51l-0.14 1.17c-0.19,1.6 -1.54,2.77 -3.1,2.76l0 0.01 -7.4 0c-0.39,0 -0.76,-0.08 -1.11,-0.21 -0.36,0.14 -0.74,0.21 -1.11,0.21l0 0 -1.52 0c-1.17,0 -2.18,-0.64 -2.72,-1.58l-0.3 -0.5c-0.44,1.23 -1.62,2.07 -2.94,2.07l0 0.01 -1.36 0c-0.4,0 -0.78,-0.08 -1.14,-0.22 -0.05,0.02 -0.1,0.04 -0.15,0.06 -0.32,0.1 -0.64,0.15 -0.96,0.15l0 0.01 -1.37 0c-1.49,0 -2.73,-1.03 -3.05,-2.41l-0.69 -2.14 -1.58 0 -1.63 2.93c-0.57,1.03 -1.63,1.61 -2.73,1.61l0 0.01 -1.5 0c-1.31,0 -2.43,-0.81 -2.9,-1.96l-0.06 0.12c-0.52,1.15 -1.65,1.83 -2.83,1.83l0 0.01 -0.23 0c-1.57,0 -2.88,-1.17 -3.09,-2.68l-0.42 -1.85 -1.44 2.82c-0.55,1.07 -1.64,1.69 -2.78,1.69l0 0.02 -0.23 0c-1.63,0 -2.97,-1.25 -3.12,-2.85l-1.12 -6.18 -0.82 6.3c-0.21,1.57 -1.55,2.72 -3.09,2.72l0 0.01 -1.36 0c-1.73,0 -3.13,-1.4 -3.13,-3.13 0,-0.23 0.03,-0.45 0.07,-0.66l0.39 -2.98c-0.24,0.05 -0.49,0.09 -0.74,0.09l0 0 -2.42 0 -0.51 3.95c-0.21,1.57 -1.55,2.72 -3.1,2.72l0 0.01 -1.32 0c-1.28,0 -2.38,-0.78 -2.87,-1.88 -0.75,0.58 -1.56,1.04 -2.42,1.4 -1.35,0.55 -2.79,0.83 -4.32,0.83 -1.34,0 -2.58,-0.23 -3.73,-0.67 -1.21,-0.47 -2.25,-1.16 -3.15,-2.08 -0.05,-0.05 -0.09,-0.1 -0.14,-0.15zm-0.88 -11.91l-1.27 0.33c-0.17,-0.58 -0.45,-1.05 -0.83,-1.39 -0.39,-0.34 -0.81,-0.51 -1.26,-0.51 -0.5,0 -0.9,0.18 -1.21,0.53 -0.32,0.35 -0.47,0.81 -0.47,1.4 0,0.52 0.16,1.05 0.5,1.61 0.2,0.35 0.7,0.9 1.49,1.65 0.82,0.76 1.4,1.48 1.72,2.14 0.33,0.67 0.49,1.32 0.49,1.96 0,0.67 -0.18,1.32 -0.54,1.94 -0.35,0.63 -0.83,1.12 -1.44,1.48 -0.6,0.36 -1.24,0.54 -1.92,0.54 -0.86,0 -1.6,-0.28 -2.23,-0.85 -0.63,-0.56 -1.09,-1.39 -1.36,-2.47l1.24 -0.44c0.19,0.83 0.51,1.45 0.95,1.85 0.44,0.41 0.95,0.61 1.52,0.61 0.66,0 1.22,-0.25 1.69,-0.75 0.47,-0.5 0.71,-1.12 0.71,-1.85 0,-0.54 -0.14,-1.07 -0.4,-1.58 -0.27,-0.51 -0.79,-1.13 -1.57,-1.85 -0.83,-0.78 -1.37,-1.38 -1.62,-1.79 -0.41,-0.69 -0.62,-1.43 -0.62,-2.19 0,-0.96 0.3,-1.74 0.9,-2.36 0.6,-0.62 1.35,-0.93 2.24,-0.93 0.75,0 1.42,0.24 2,0.74 0.59,0.49 1.02,1.22 1.29,2.18zm9.57 -2.92c1.81,0 3.31,0.61 4.51,1.84 1.2,1.23 1.8,2.78 1.8,4.66 0,2.28 -0.76,4.21 -2.28,5.76 -1.53,1.56 -3.43,2.34 -5.7,2.34 -1.93,0 -3.48,-0.6 -4.64,-1.8 -1.16,-1.19 -1.75,-2.76 -1.75,-4.7 0,-1.49 0.35,-2.86 1.05,-4.1 0.69,-1.25 1.66,-2.23 2.89,-2.94 1.23,-0.71 2.6,-1.06 4.12,-1.06zm-0.03 1.29c-1.28,0 -2.42,0.29 -3.43,0.88 -1.01,0.58 -1.8,1.4 -2.39,2.47 -0.59,1.06 -0.88,2.2 -0.88,3.41 0,1.02 0.21,1.94 0.64,2.75 0.43,0.81 1.01,1.42 1.76,1.85 0.75,0.43 1.64,0.65 2.65,0.65 1.2,0 2.32,-0.3 3.35,-0.9 1.02,-0.61 1.83,-1.44 2.42,-2.51 0.58,-1.07 0.88,-2.23 0.88,-3.47 0,-1.65 -0.56,-2.96 -1.67,-3.92 -0.92,-0.81 -2.04,-1.21 -3.33,-1.21zm16.25 -0.94l-0.17 1.35 -5.15 0 -0.59 4.55 5.14 0 -0.16 1.32 -5.15 0 -0.88 6.68 -1.32 0 1.81 -13.9 6.47 0zm1.01 0l8.01 0 -0.18 1.31 -3.36 0 -1.64 12.59 -1.36 0 1.64 -12.59 -3.28 0 0.17 -1.31zm8.45 0l1.31 0 1.87 10.32 5.22 -10.32 0.24 0 2.33 10.32 4.75 -10.32 1.39 0 -6.39 13.9 -0.23 0 -2.37 -10.48 -5.36 10.48 -0.23 0 -2.53 -13.9zm24.57 0l4.49 13.9 -1.37 0 -1.47 -4.55 -5.67 0 -2.54 4.55 -1.5 0 7.75 -13.9 0.31 0zm-0.44 2.91l-2.85 5.12 4.51 0 -1.66 -5.12zm9 -2.91l3.37 0c1.2,0 2.06,0.11 2.58,0.35 0.52,0.24 0.94,0.61 1.26,1.13 0.32,0.52 0.48,1.13 0.48,1.81 0,0.75 -0.19,1.45 -0.57,2.09 -0.38,0.64 -0.9,1.12 -1.55,1.45 -0.66,0.32 -1.52,0.48 -2.59,0.48l4.04 6.59 -1.52 0 -4.05 -6.59 -1.05 0 -0.86 6.59 -1.36 0 1.82 -13.9zm1.18 1.33l-0.61 4.63 1.55 0c1.15,0 1.9,-0.05 2.25,-0.14 0.59,-0.15 1.07,-0.45 1.43,-0.89 0.37,-0.45 0.55,-0.99 0.55,-1.63 0,-0.73 -0.25,-1.26 -0.76,-1.58 -0.39,-0.26 -1.09,-0.39 -2.1,-0.39l-2.31 0zm17.26 -1.33l-0.19 1.35 -6.01 0 -0.6 4.55 6.01 0 -0.17 1.32 -6.01 0 -0.7 5.36 6.02 0 -0.15 1.32 -7.4 0 1.82 -13.9 7.38 0zm7.81 0l2.86 0c1.82,0 3.21,0.24 4.18,0.74 0.97,0.49 1.75,1.26 2.34,2.3 0.6,1.03 0.89,2.21 0.89,3.54 0,1.42 -0.33,2.73 -1,3.94 -0.68,1.2 -1.5,2.06 -2.48,2.59 -0.98,0.52 -2.44,0.79 -4.39,0.79l-4.22 0 1.82 -13.9zm1.18 1.33l-1.46 11.21 1.17 0c1.8,0 3,-0.05 3.59,-0.15 0.89,-0.15 1.65,-0.45 2.26,-0.89 0.61,-0.45 1.13,-1.11 1.57,-2 0.44,-0.88 0.65,-1.85 0.65,-2.9 0,-1.1 -0.24,-2.06 -0.73,-2.89 -0.49,-0.82 -1.17,-1.44 -2.02,-1.85 -0.73,-0.35 -1.97,-0.53 -3.7,-0.53l-1.33 0zm20.1 -1.33l-0.19 1.35 -6.01 0 -0.59 4.55 6.01 0 -0.18 1.32 -6 0 -0.7 5.36 6.02 0 -0.16 1.32 -7.39 0 1.81 -13.9 7.38 0zm1.52 0l1.35 0 3.32 11 6.23 -11 1.48 0 -7.86 13.9 -0.32 0 -4.2 -13.9zm21.62 0l-0.19 1.35 -6.01 0 -0.59 4.55 6 0 -0.17 1.32 -6.01 0 -0.7 5.36 6.02 0 -0.15 1.32 -7.4 0 1.82 -13.9 7.38 0zm2.67 0l1.36 0 -1.64 12.58 5.78 0 -0.16 1.32 -7.15 0 1.81 -13.9zm15.08 -0.35c1.81,0 3.31,0.61 4.51,1.84 1.2,1.23 1.8,2.78 1.8,4.66 0,2.28 -0.76,4.21 -2.28,5.76 -1.53,1.56 -3.43,2.34 -5.7,2.34 -1.93,0 -3.48,-0.6 -4.64,-1.8 -1.16,-1.19 -1.75,-2.76 -1.75,-4.7 0,-1.49 0.35,-2.86 1.05,-4.1 0.7,-1.25 1.66,-2.23 2.89,-2.94 1.23,-0.71 2.6,-1.06 4.12,-1.06zm-0.03 1.29c-1.28,0 -2.42,0.29 -3.43,0.88 -1,0.58 -1.8,1.4 -2.39,2.47 -0.59,1.06 -0.88,2.2 -0.88,3.41 0,1.02 0.21,1.94 0.64,2.75 0.43,0.81 1.01,1.42 1.76,1.85 0.75,0.43 1.64,0.65 2.65,0.65 1.2,0 2.32,-0.3 3.35,-0.9 1.02,-0.61 1.83,-1.44 2.42,-2.51 0.58,-1.07 0.88,-2.23 0.88,-3.47 0,-1.65 -0.56,-2.96 -1.67,-3.92 -0.92,-0.81 -2.04,-1.21 -3.33,-1.21zm9.95 -0.94l3.65 0c1.21,0 2.07,0.11 2.6,0.34 0.52,0.24 0.94,0.61 1.26,1.13 0.31,0.51 0.47,1.12 0.47,1.82 0,0.91 -0.25,1.71 -0.75,2.39 -0.49,0.67 -1.12,1.13 -1.88,1.38 -0.55,0.18 -1.52,0.27 -2.92,0.27l-2.03 0 -0.85 6.57 -1.36 0 1.81 -13.9zm1.19 1.33l-0.61 4.63 1.86 0c1.25,0 2.11,-0.09 2.59,-0.27 0.49,-0.18 0.87,-0.49 1.17,-0.93 0.29,-0.44 0.43,-0.92 0.43,-1.46 0,-0.44 -0.1,-0.82 -0.29,-1.13 -0.2,-0.31 -0.48,-0.52 -0.83,-0.65 -0.35,-0.12 -1,-0.19 -1.94,-0.19l-2.38 0zm17.08 -1.33l-0.19 1.35 -6.01 0 -0.59 4.55 6.01 0 -0.18 1.32 -6 0 -0.7 5.36 6.02 0 -0.16 1.32 -7.39 0 1.81 -13.9 7.38 0zm2.92 0l3.37 0c1.2,0 2.06,0.11 2.58,0.35 0.52,0.24 0.94,0.61 1.26,1.13 0.33,0.52 0.49,1.13 0.49,1.81 0,0.75 -0.19,1.45 -0.57,2.09 -0.38,0.64 -0.9,1.12 -1.56,1.45 -0.66,0.32 -1.52,0.48 -2.59,0.48l4.04 6.59 -1.52 0 -4.04 -6.59 -1.06 0 -0.86 6.59 -1.35 0 1.81 -13.9zm1.18 1.33l-0.6 4.63 1.55 0c1.14,0 1.89,-0.05 2.25,-0.14 0.59,-0.15 1.07,-0.45 1.43,-0.89 0.36,-0.45 0.54,-0.99 0.54,-1.63 0,-0.73 -0.25,-1.26 -0.76,-1.58 -0.39,-0.26 -1.09,-0.39 -2.1,-0.39l-2.31 0zm-179.55 2.74c-0.73,0 -1.35,0.15 -1.87,0.45 -0.25,0.14 -0.47,0.31 -0.66,0.51l0 0c-0.21,0.21 -0.39,0.46 -0.55,0.76 -0.18,0.33 -0.31,0.63 -0.38,0.92 0,0 0,0.01 0,0.01l0 0c-0.07,0.28 -0.11,0.61 -0.11,0.98 0,0.29 0.02,0.54 0.07,0.75 0.05,0.2 0.11,0.37 0.2,0.54 0.08,0.15 0.17,0.28 0.26,0.38 0.08,0.08 0.18,0.15 0.29,0.22 0.14,0.08 0.27,0.13 0.41,0.17 0.18,0.04 0.41,0.06 0.69,0.06 0.34,0 0.65,-0.04 0.93,-0.11 0.3,-0.09 0.58,-0.2 0.84,-0.35 0.26,-0.16 0.49,-0.34 0.7,-0.56 0.22,-0.22 0.4,-0.47 0.56,-0.76 0,0 0,0 0,-0.01l0 0c0.16,-0.3 0.29,-0.61 0.37,-0.92 0,0 0,-0.01 0,-0.01l0 0c0.08,-0.32 0.12,-0.67 0.12,-1.03 0,-0.41 -0.06,-0.74 -0.16,-1 -0.09,-0.21 -0.23,-0.4 -0.42,-0.56 -0.02,-0.02 -0.04,-0.03 -0.05,-0.05 -0.15,-0.12 -0.32,-0.22 -0.5,-0.28 -0.19,-0.07 -0.44,-0.11 -0.74,-0.11zm85.09 -7.2l2.86 0c1.09,0 2.07,0.08 2.95,0.23 1,0.18 1.89,0.46 2.65,0.85 0.76,0.39 1.45,0.89 2.08,1.51 0.09,0.08 0.17,0.17 0.25,0.26l0.02 -0.13c0.2,-1.57 1.55,-2.71 3.09,-2.71l0 -0.01 7.38 0c0.26,0 0.52,0.03 0.76,0.09 0.25,-0.06 0.51,-0.09 0.76,-0.09l0 0 1.35 0c1.44,0 2.66,0.98 3.02,2.31l1.19 3.92 2.63 -4.64c0.57,-1.02 1.62,-1.58 2.71,-1.58l0 -0.01 1.48 0c0.33,0 0.65,0.05 0.95,0.14 0.29,-0.09 0.59,-0.13 0.91,-0.13l0 -0.01 7.38 0c0.48,0 0.94,0.11 1.35,0.3 0.4,-0.19 0.85,-0.29 1.32,-0.29l0 -0.01 1.36 0c1.73,0 3.13,1.4 3.13,3.13 0,0.22 -0.03,0.44 -0.07,0.66l-1.15 8.79 0.75 0c-0.08,-0.55 -0.12,-1.11 -0.12,-1.7 0,-0.99 0.12,-1.96 0.35,-2.9 0.24,-0.94 0.61,-1.85 1.09,-2.72 0.49,-0.88 1.08,-1.66 1.75,-2.34 0.67,-0.69 1.45,-1.28 2.32,-1.78 0,0 0,0 0,-0.01l0 0c0.83,-0.48 1.75,-0.85 2.73,-1.11 0.97,-0.25 1.95,-0.37 2.94,-0.37 1.29,0 2.51,0.23 3.66,0.7 1.16,0.48 2.19,1.18 3.09,2.09 0.03,0.04 0.07,0.08 0.11,0.12 0.27,-1.49 1.57,-2.55 3.06,-2.55l0 -0.01 3.65 0c0.7,0 1.36,0.04 1.97,0.12 0.74,0.1 1.37,0.26 1.89,0.49 0.04,0.02 0.09,0.05 0.14,0.07 0.29,0.14 0.56,0.3 0.82,0.48 0.58,-0.71 1.46,-1.15 2.42,-1.15l0 -0.01 7.38 0c0.53,0 1.03,0.13 1.47,0.36 0.44,-0.23 0.93,-0.35 1.45,-0.35l0 -0.01 3.37 0c0.7,0 1.36,0.04 1.96,0.12 0.73,0.1 1.36,0.27 1.9,0.52l0 -0.01c0.56,0.26 1.07,0.58 1.52,0.99 0.41,0.37 0.78,0.82 1.11,1.35l0 -0.01c0.33,0.53 0.57,1.09 0.73,1.69 0.16,0.57 0.24,1.16 0.24,1.77 0,1.31 -0.34,2.54 -1.01,3.68 -0.35,0.58 -0.76,1.09 -1.24,1.54 -0.25,0.23 -0.52,0.44 -0.81,0.63l1.92 3.12c0.9,1.47 0.44,3.4 -1.03,4.3 -0.51,0.32 -1.08,0.47 -1.64,0.47l0 0 -1.52 0c-1.16,0 -2.18,-0.64 -2.72,-1.58l-0.3 -0.5c-0.44,1.23 -1.61,2.07 -2.94,2.07l0 0.01 -1.35 0c-0.53,0 -1.02,-0.13 -1.46,-0.36 -0.44,0.23 -0.93,0.35 -1.45,0.35l0 0.01 -7.39 0c-1.73,0 -3.13,-1.4 -3.13,-3.13 0,-0.23 0.02,-0.45 0.07,-0.66l0.42 -3.25c-0.04,0.01 -0.08,0.03 -0.12,0.04 -0.08,0.02 -0.15,0.04 -0.22,0.06 -0.45,0.13 -0.99,0.22 -1.61,0.28 -0.44,0.04 -0.89,0.07 -1.35,0.08l-0.5 3.85c-0.21,1.57 -1.55,2.72 -3.09,2.72l0 0.01 -1.36 0c-1.32,0 -2.45,-0.82 -2.91,-1.98 -0.78,0.62 -1.64,1.12 -2.55,1.5 -1.35,0.55 -2.79,0.83 -4.32,0.83 -1.34,0 -2.58,-0.23 -3.73,-0.67 -0.65,-0.25 -1.26,-0.57 -1.82,-0.96 -0.58,0.78 -1.5,1.28 -2.52,1.27l0 0.01 -7.15 0c-0.48,0 -0.93,-0.11 -1.34,-0.3 -0.4,0.19 -0.85,0.29 -1.32,0.29l0 0.01 -7.4 0c-1.72,0 -3.12,-1.4 -3.12,-3.13 0,-0.23 0.02,-0.45 0.07,-0.66l0.26 -2.05 -2.4 4.25c-0.57,1.01 -1.63,1.58 -2.71,1.58l0 0.01 -0.32 0c-1.45,0 -2.66,-0.98 -3.02,-2.32l-1.57 -5.18c-0.26,0.23 -0.55,0.43 -0.88,0.56 0.75,0.57 1.23,1.48 1.23,2.49 0,0.17 -0.01,0.34 -0.04,0.51l-0.14 1.17c-0.18,1.6 -1.54,2.77 -3.1,2.76l0 0.01 -7.39 0c-1.25,0 -2.34,-0.74 -2.84,-1.8 -0.31,0.23 -0.64,0.44 -0.99,0.62l0.01 0.01c-0.78,0.41 -1.7,0.72 -2.77,0.91 -0.95,0.17 -1.98,0.26 -3.1,0.26l-4.22 0c-1.72,0 -3.12,-1.4 -3.12,-3.13 0,-0.23 0.02,-0.45 0.07,-0.66l1.77 -13.65c0.21,-1.57 1.55,-2.71 3.1,-2.71l0 -0.01zm3.91 7.64l-0.63 4.87c0.3,-0.02 0.53,-0.04 0.68,-0.07 0.22,-0.03 0.42,-0.09 0.61,-0.16 0.16,-0.07 0.27,-0.12 0.34,-0.17 0,0 0,-0.01 0.01,-0.01l0 0c0.05,-0.04 0.12,-0.12 0.21,-0.23 0.15,-0.19 0.27,-0.39 0.38,-0.61 0,0 0.01,0 0.01,-0.01l-0.01 0c0.11,-0.22 0.2,-0.45 0.25,-0.69 0.05,-0.23 0.08,-0.5 0.08,-0.83 0,-0.29 -0.03,-0.55 -0.09,-0.77 -0.06,-0.23 -0.12,-0.4 -0.2,-0.53 0,0 0,0 0,0l-0.01 0c-0.09,-0.14 -0.19,-0.27 -0.3,-0.37 -0.12,-0.11 -0.24,-0.19 -0.38,-0.26 -0.06,-0.03 -0.25,-0.07 -0.57,-0.11 -0.11,-0.02 -0.24,-0.04 -0.38,-0.05zm58.23 -0.44c-0.73,0 -1.35,0.15 -1.87,0.45 -0.25,0.14 -0.47,0.32 -0.66,0.51 -0.22,0.22 -0.4,0.47 -0.55,0.75 0,0 0,0 -0.01,0.01l0.01 0c-0.18,0.33 -0.31,0.63 -0.38,0.92 0,0 0,0.01 0,0.01l0 0c-0.07,0.28 -0.11,0.61 -0.11,0.98 0,0.29 0.02,0.54 0.07,0.75 0.05,0.2 0.11,0.37 0.2,0.54 0.08,0.15 0.17,0.28 0.26,0.38 0.08,0.08 0.18,0.15 0.29,0.22 0.14,0.08 0.28,0.13 0.41,0.17 0.18,0.04 0.41,0.06 0.69,0.06 0.34,0 0.65,-0.04 0.93,-0.11 0.3,-0.09 0.58,-0.2 0.84,-0.35 0.26,-0.16 0.49,-0.34 0.7,-0.56 0.22,-0.22 0.4,-0.47 0.56,-0.76 0,0 0,0 0,-0.01l0 0c0.16,-0.29 0.28,-0.6 0.37,-0.93 0.08,-0.32 0.12,-0.67 0.12,-1.03 0,-0.41 -0.06,-0.74 -0.16,-1 -0.09,-0.21 -0.23,-0.4 -0.42,-0.56 -0.02,-0.02 -0.04,-0.03 -0.05,-0.05 -0.15,-0.12 -0.32,-0.22 -0.5,-0.28 -0.19,-0.07 -0.44,-0.11 -0.74,-0.11z"/>
  </g>
  <g>
   <g>
    <path fill="white" fill-rule="nonzero" d="M359.56 30.54l-9.43 0c0.05,0.85 0.33,1.54 0.84,2.07 0.5,0.53 1.1,0.8 1.77,0.8 1.21,0 2.17,-0.55 2.85,-1.64l3.62 1.2c-1.34,2.35 -3.43,3.53 -6.27,3.53 -2.08,0 -3.74,-0.63 -4.97,-1.89 -1.24,-1.27 -1.85,-2.97 -1.85,-5.11 0,-1.91 0.64,-3.53 1.94,-4.83 1.3,-1.31 2.9,-1.96 4.8,-1.96 1.91,0 3.51,0.68 4.79,2.06 1.27,1.37 1.91,3.08 1.91,5.13l0 0.64zm-9.43 -2.65l5.36 0c-0.37,-1.67 -1.23,-2.5 -2.56,-2.5 -0.76,0 -1.4,0.22 -1.9,0.65 -0.5,0.44 -0.8,1.05 -0.9,1.85z"/>
    <path id="1" fill="black" d="M362.22 32.18c0.15,0.56 0.15,1.17 -0.05,1.77 -0.07,0.2 -0.15,0.39 -0.25,0.57l0.01 0c-0.96,1.67 -2.22,2.95 -3.77,3.82 -1.52,0.86 -3.26,1.29 -5.22,1.29 -1.41,0 -2.71,-0.23 -3.9,-0.68 -0.01,0 -0.01,-0.01 -0.02,-0.01l0 0.01c-1.25,-0.48 -2.34,-1.2 -3.29,-2.17 -0.93,-0.95 -1.62,-2.06 -2.08,-3.34 -0.44,-1.21 -0.66,-2.52 -0.66,-3.94 0,-1.34 0.24,-2.62 0.72,-3.81 0.48,-1.2 1.19,-2.27 2.14,-3.22 1.92,-1.93 4.25,-2.89 7.01,-2.89 1.38,0 2.67,0.26 3.87,0.77 1.19,0.52 2.26,1.28 3.2,2.29 0.92,0.98 1.61,2.1 2.07,3.35 0.46,1.23 0.69,2.53 0.69,3.91l0 0.64c0,0.6 -0.17,1.16 -0.47,1.64zm-2.66 -1.64l-9.43 0c0.05,0.85 0.33,1.54 0.84,2.07 0.5,0.53 1.1,0.8 1.77,0.8 1.21,0 2.17,-0.55 2.85,-1.64l3.62 1.2c-1.34,2.35 -3.43,3.53 -6.27,3.53 -2.08,0 -3.74,-0.63 -4.97,-1.89 -1.24,-1.27 -1.85,-2.97 -1.85,-5.11 0,-1.91 0.64,-3.53 1.94,-4.83 1.3,-1.31 2.9,-1.96 4.8,-1.96 1.91,0 3.51,0.68 4.79,2.06 1.27,1.37 1.91,3.08 1.91,5.13l0 0.64zm-9.43 -2.65l5.36 0c-0.37,-1.67 -1.23,-2.5 -2.56,-2.5 -0.76,0 -1.4,0.22 -1.9,0.65 -0.5,0.44 -0.8,1.05 -0.9,1.85z"/>
   </g>
   <g>
    <path fill="white" fill-rule="nonzero" d="M339.01 15.64l3.98 0 0 20.58 -3.88 0 0 -2.28 -0.07 0c-1.15,1.67 -2.58,2.5 -4.29,2.5 -1.53,0 -2.83,-0.67 -3.9,-1.99 -1.08,-1.33 -1.62,-2.94 -1.62,-4.86 0,-1.9 0.56,-3.54 1.67,-4.89 1.11,-1.35 2.45,-2.02 4,-2.02 0.89,0 1.64,0.16 2.24,0.48 0.61,0.32 1.24,0.84 1.87,1.57l0 -9.09zm-2.93 10.95c-0.65,0 -1.26,0.3 -1.83,0.9 -0.57,0.59 -0.85,1.39 -0.85,2.41 0,0.81 0.25,1.5 0.75,2.08 0.5,0.57 1.11,0.86 1.82,0.86 0.85,0 1.56,-0.31 2.13,-0.93 0.57,-0.62 0.85,-1.4 0.85,-2.32 0,-0.8 -0.28,-1.5 -0.83,-2.1 -0.55,-0.6 -1.23,-0.9 -2.04,-0.9z"/>
    <path id="1" fill="black" d="M339.01 12.51l3.98 0c1.73,0 3.13,1.4 3.13,3.13l0 20.58c0,1.72 -1.4,3.12 -3.13,3.12l-3.88 0c-0.52,0 -1,-0.12 -1.43,-0.34 -0.92,0.38 -1.9,0.56 -2.93,0.56 -1.26,0 -2.44,-0.28 -3.54,-0.83 -1.03,-0.53 -1.96,-1.3 -2.78,-2.31 -0.78,-0.96 -1.36,-2.02 -1.75,-3.2 -0.39,-1.15 -0.58,-2.36 -0.58,-3.63 0,-1.28 0.2,-2.5 0.59,-3.65 0.4,-1.17 1,-2.24 1.8,-3.22 0.84,-1.01 1.79,-1.79 2.84,-2.32 1.12,-0.57 2.31,-0.85 3.57,-0.85 0.34,0 0.66,0.02 0.98,0.05l0 -3.96c0,-1.73 1.41,-3.13 3.13,-3.13zm0 3.13l3.98 0 0 20.58 -3.88 0 0 -2.28 -0.07 0c-1.15,1.67 -2.58,2.5 -4.29,2.5 -1.53,0 -2.83,-0.67 -3.9,-1.99 -1.08,-1.33 -1.62,-2.94 -1.62,-4.86 0,-1.9 0.56,-3.54 1.67,-4.89 1.11,-1.35 2.45,-2.02 4,-2.02 0.89,0 1.64,0.16 2.24,0.48 0.61,0.32 1.24,0.84 1.87,1.57l0 -9.09zm-2.93 10.95c-0.65,0 -1.26,0.3 -1.83,0.9 -0.57,0.59 -0.85,1.39 -0.85,2.41 0,0.81 0.25,1.5 0.75,2.08 0.5,0.57 1.11,0.86 1.82,0.86 0.85,0 1.56,-0.31 2.13,-0.93 0.57,-0.62 0.85,-1.4 0.85,-2.32 0,-0.8 -0.28,-1.5 -0.83,-2.1 -0.55,-0.6 -1.23,-0.9 -2.04,-0.9z"/>
   </g>
   <g>
    <path fill="white" fill-rule="nonzero" d="M334.58 88.64l5.27 0 12.74 31.29 -6.79 0 -2.5 -6.15 -12.01 0 -2.46 6.15 -6.75 0 12.5 -31.29zm2.66 10.25l-3.69 9.23 7.45 0 -3.76 -9.23z"/>
    <path id="1" fill="black" d="M334.58 85.51l5.27 0c1.37,0 2.53,0.88 2.95,2.11l12.68 31.13c0.65,1.6 -0.12,3.43 -1.72,4.07 -0.38,0.16 -0.78,0.23 -1.17,0.23l0 0.01 -6.79 0c-1.37,0 -2.53,-0.88 -2.95,-2.1l-1.65 -4.05 -7.8 0 -1.67 4.17c-0.48,1.22 -1.66,1.96 -2.9,1.96l0 0.02 -6.75 0c-1.73,0 -3.13,-1.4 -3.13,-3.13 0,-0.52 0.13,-1 0.35,-1.43l12.38 -31.01c0.49,-1.22 1.66,-1.96 2.9,-1.96l0 -0.02zm0 3.13l5.27 0 12.74 31.29 -6.79 0 -2.5 -6.15 -12.01 0 -2.46 6.15 -6.75 0 12.5 -31.29zm2.66 10.25l-3.69 9.23 7.45 0 -3.76 -9.23z"/>
   </g>
   <g>
    <path fill="white" fill-rule="nonzero" d="M296.21 88.64l10.69 0c4.56,0 8.23,1.44 11.01,4.31 2.78,2.88 4.17,6.67 4.17,11.37 0,4.72 -1.43,8.5 -4.3,11.35 -2.87,2.83 -6.69,4.26 -11.45,4.26l-10.12 0 0 -31.29zm6.74 5.91l0 19.33 2.68 0c2.78,0 5.06,-0.76 6.85,-2.27 1.78,-1.51 2.67,-4.02 2.67,-7.55 0,-2.05 -0.43,-3.87 -1.29,-5.44 -0.86,-1.59 -2.11,-2.66 -3.74,-3.23 -1.64,-0.56 -3.2,-0.84 -4.68,-0.84l-2.49 0z"/>
    <path id="1" fill="black" d="M296.21 85.51l10.69 0c2.66,0 5.1,0.44 7.31,1.3 2.25,0.89 4.23,2.21 5.94,3.97 0,0 0,0.01 0.01,0.01l0 0c1.7,1.76 2.97,3.79 3.81,6.09 0.83,2.25 1.24,4.73 1.24,7.44 0,2.72 -0.43,5.22 -1.28,7.47 -0.88,2.32 -2.2,4.35 -3.95,6.09 0,0 -0.01,0 -0.01,0l0.01 0.01c-1.74,1.72 -3.78,3.02 -6.13,3.89 -2.28,0.85 -4.79,1.28 -7.52,1.28l-10.12 0c-1.72,0 -3.12,-1.4 -3.12,-3.13l0 -31.29c0,-1.73 1.4,-3.13 3.12,-3.13zm0 3.13l10.69 0c4.56,0 8.23,1.44 11.01,4.31 2.78,2.88 4.17,6.67 4.17,11.37 0,4.72 -1.43,8.5 -4.3,11.35 -2.87,2.83 -6.69,4.26 -11.45,4.26l-10.12 0 0 -31.29zm6.74 5.91l0 19.33 2.68 0c2.78,0 5.06,-0.76 6.85,-2.27 1.78,-1.51 2.67,-4.02 2.67,-7.55 0,-2.05 -0.43,-3.87 -1.29,-5.44 -0.86,-1.59 -2.11,-2.66 -3.74,-3.23 -1.64,-0.56 -3.2,-0.84 -4.68,-0.84l-2.49 0zm3.13 3.15l0 13.04c0.87,-0.03 1.66,-0.17 2.37,-0.4 0.77,-0.26 1.44,-0.62 2.01,-1.1l0 -0.01c0.46,-0.39 0.82,-0.95 1.08,-1.68 0.32,-0.91 0.48,-2.08 0.48,-3.49 0,-1.54 -0.3,-2.85 -0.9,-3.95 -0.25,-0.46 -0.54,-0.84 -0.88,-1.13 -0.31,-0.26 -0.69,-0.47 -1.14,-0.63 -0.71,-0.24 -1.36,-0.42 -1.93,-0.52 -0.36,-0.07 -0.72,-0.11 -1.09,-0.13z"/>
   </g>
   <g>
    <path fill="white" fill-rule="nonzero" d="M284.41 88.64l6.59 0 0 31.29 -6.52 0 -14.37 -20.26 0 20.26 -6.74 0 0 -31.29 6.66 0 14.38 20.11 0 -20.11z"/>
    <path id="1" fill="black" d="M284.41 85.51l6.59 0c1.73,0 3.13,1.4 3.13,3.13l0 31.29c0,1.73 -1.4,3.13 -3.13,3.13l-6.52 0c-1.14,0 -2.14,-0.61 -2.69,-1.52l-8.55 -12.06 0 10.45c0,1.73 -1.4,3.13 -3.13,3.13l-6.74 0c-1.72,0 -3.12,-1.4 -3.12,-3.13l0 -31.29c0,-1.73 1.4,-3.13 3.12,-3.13l6.66 0c1.13,0 2.13,0.61 2.68,1.51l8.57 11.99 0 -10.37c0,-1.73 1.4,-3.13 3.13,-3.13zm0 3.13l6.59 0 0 31.29 -6.52 0 -14.37 -20.26 0 20.26 -6.74 0 0 -31.29 6.66 0 14.38 20.11 0 -20.11z"/>
   </g>
   <g>
    <path fill="white" fill-rule="nonzero" d="M241.19 88.64l5.27 0 12.74 31.29 -6.78 0 -2.51 -6.15 -12 0 -2.46 6.15 -6.75 0 12.49 -31.29zm2.66 10.25l-3.68 9.23 7.44 0 -3.76 -9.23z"/>
    <path id="1" fill="black" d="M241.19 85.51l5.27 0c1.37,0 2.54,0.88 2.96,2.11l12.68 31.13c0.65,1.6 -0.12,3.43 -1.72,4.07 -0.39,0.16 -0.79,0.23 -1.18,0.23l0 0.01 -6.78 0c-1.37,0 -2.53,-0.88 -2.96,-2.1l-1.65 -4.05 -7.8 0 -1.66 4.17c-0.49,1.22 -1.66,1.96 -2.9,1.96l0 0.02 -6.75 0c-1.73,0 -3.13,-1.4 -3.13,-3.13 0,-0.52 0.12,-1 0.34,-1.43l12.39 -31.01c0.48,-1.22 1.65,-1.96 2.89,-1.96l0 -0.02zm0 3.13l5.27 0 12.74 31.29 -6.78 0 -2.51 -6.15 -12 0 -2.46 6.15 -6.75 0 12.49 -31.29zm2.66 10.25l-3.68 9.23 7.44 0 -3.76 -9.23z"/>
   </g>
   <g>
    <path fill="white" fill-rule="nonzero" d="M201.15 88.64l10.32 0c3.14,0 5.62,0.82 7.44,2.48 1.83,1.65 2.74,3.88 2.74,6.69 0,1.6 -0.42,3.27 -1.26,5 -0.83,1.73 -2.38,3.09 -4.63,4.07l8.77 13.05 -7.73 0 -8.14 -12.11 -0.78 0 0 12.11 -6.73 0 0 -31.29zm6.73 5.57l0 8.15 1.48 0c3.58,0 5.36,-1.44 5.36,-4.31 0,-1.18 -0.47,-2.12 -1.39,-2.81 -0.93,-0.69 -2.23,-1.03 -3.87,-1.03l-1.58 0z"/>
    <path id="1" fill="black" d="M201.15 85.51l10.32 0c1.88,0 3.61,0.27 5.19,0.79 1.66,0.55 3.11,1.39 4.34,2.51 1.28,1.15 2.23,2.5 2.86,4.04 0.04,0.1 0.07,0.19 0.1,0.29 0.54,1.43 0.82,2.99 0.82,4.67 0,1.05 -0.14,2.12 -0.42,3.21 -0.25,1.04 -0.64,2.08 -1.15,3.15 -0.61,1.24 -1.46,2.34 -2.55,3.3 -0.16,0.14 -0.32,0.27 -0.48,0.4l6.94 10.32c0.96,1.43 0.57,3.37 -0.86,4.33 -0.53,0.36 -1.14,0.53 -1.73,0.53l0 0.01 -7.73 0c-1.17,0 -2.2,-0.65 -2.73,-1.61l-3.06 -4.54 0 3.02c0,1.73 -1.4,3.13 -3.13,3.13l-6.73 0c-1.73,0 -3.13,-1.4 -3.13,-3.13l0 -31.29c0,-1.73 1.4,-3.13 3.13,-3.13zm0 3.13l10.32 0c3.14,0 5.62,0.82 7.44,2.48 1.83,1.65 2.74,3.88 2.74,6.69 0,1.6 -0.42,3.27 -1.26,5 -0.83,1.73 -2.38,3.09 -4.63,4.07l8.77 13.05 -7.73 0 -8.14 -12.11 -0.78 0 0 12.11 -6.73 0 0 -31.29zm13.57 9.41c0,-1.18 -0.47,-2.12 -1.39,-2.81 -0.93,-0.69 -2.23,-1.03 -3.87,-1.03l-1.58 0 0 8.15 1.48 0c3.58,0 5.36,-1.44 5.36,-4.31zm-3.71 -0.52l0 1.52c0.18,-0.05 0.31,-0.12 0.41,-0.2 0.11,-0.09 0.17,-0.36 0.17,-0.8 0,-0.12 -0.01,-0.19 -0.02,-0.21 -0.01,-0.01 -0.04,-0.04 -0.11,-0.1 -0.12,-0.08 -0.27,-0.15 -0.45,-0.21z"/>
   </g>
   <g>
    <path fill="white" fill-rule="nonzero" d="M189.2 88.64l6.73 0 0 31.29 -6.73 0 0 -31.29z"/>
    <path id="1" fill="black" d="M189.2 85.51l6.73 0c1.73,0 3.13,1.4 3.13,3.13l0 31.29c0,1.73 -1.4,3.13 -3.13,3.13l-6.73 0c-1.73,0 -3.13,-1.4 -3.13,-3.13l0 -31.29c0,-1.73 1.4,-3.13 3.13,-3.13zm0 3.13l6.73 0 0 31.29 -6.73 0 0 -31.29z"/>
   </g>
   <g>
    <path fill="white" fill-rule="nonzero" d="M152.49 88.64l8.03 0 5.87 18.74 5.88 -18.74 7.74 0 3.97 31.29 -6.4 0 -2.75 -22.01 -6.9 22.01 -3.07 0 -7.06 -22.21 -2.62 22.21 -6.53 0 3.84 -31.29z"/>
    <path id="1" fill="black" d="M152.49 85.51l8.03 0c1.46,0 2.7,1.02 3.03,2.38l2.84 9.06 2.9 -9.24c0.41,-1.33 1.65,-2.19 2.98,-2.19l0 -0.01 7.74 0c1.68,0 3.06,1.34 3.12,3.01l3.95 31.02c0.21,1.7 -1,3.26 -2.71,3.48 -0.13,0.02 -0.26,0.02 -0.39,0.03l0 0.01 -6.4 0c-1.63,0 -2.96,-1.25 -3.11,-2.84l-0.96 -7.66 -2.6 8.3c-0.42,1.33 -1.65,2.19 -2.98,2.19l0 0.01 -3.07 0c-1.5,0 -2.75,-1.06 -3.06,-2.47l-2.59 -8.15 -0.93 7.84c-0.18,1.6 -1.53,2.77 -3.1,2.77l0 0.01 -6.53 0c-1.73,0 -3.13,-1.4 -3.13,-3.13 0,-0.17 0.01,-0.33 0.04,-0.49l3.82 -31.18c0.2,-1.58 1.55,-2.75 3.11,-2.74l0 -0.01zm0 3.13l8.03 0 5.87 18.74 5.88 -18.74 7.74 0 3.97 31.29 -6.4 0 -2.75 -22.01 -6.9 22.01 -3.07 0 -7.06 -22.21 -2.62 22.21 -6.53 0 3.84 -31.29z"/>
   </g>
   <g>
    <path fill="white" fill-rule="nonzero" d="M329.57 46.93l5.27 0 12.74 31.28 -6.78 0 -2.51 -6.15 -12 0 -2.46 6.15 -6.75 0 12.49 -31.28zm2.66 10.25l-3.68 9.22 7.44 0 -3.76 -9.22z"/>
    <path id="1" fill="black" d="M329.57 43.8l5.27 0c1.37,0 2.54,0.88 2.96,2.1l12.68 31.14c0.65,1.6 -0.12,3.42 -1.72,4.07 -0.39,0.16 -0.78,0.23 -1.18,0.23l0 0 -6.78 0c-1.37,0 -2.53,-0.88 -2.96,-2.1l-1.65 -4.05 -7.8 0 -1.66 4.17c-0.49,1.23 -1.66,1.97 -2.9,1.97l0 0.01 -6.75 0c-1.73,0 -3.13,-1.4 -3.13,-3.13 0,-0.51 0.12,-0.99 0.34,-1.42l12.39 -31.01c0.48,-1.22 1.65,-1.97 2.89,-1.97l0 -0.01zm0 3.13l5.27 0 12.74 31.28 -6.78 0 -2.51 -6.15 -12 0 -2.46 6.15 -6.75 0 12.49 -31.28zm2.66 10.25l-3.68 9.22 7.44 0 -3.76 -9.22z"/>
   </g>
   <g>
    <path fill="white" fill-rule="nonzero" d="M289.53 46.93l10.32 0c3.14,0 5.62,0.82 7.44,2.47 1.83,1.65 2.74,3.89 2.74,6.7 0,1.6 -0.42,3.27 -1.25,5 -0.84,1.72 -2.39,3.08 -4.64,4.07l8.77 13.04 -7.73 0 -8.14 -12.1 -0.78 0 0 12.1 -6.73 0 0 -31.28zm6.73 5.56l0 8.15 1.48 0c3.58,0 5.36,-1.44 5.36,-4.31 0,-1.18 -0.47,-2.11 -1.39,-2.8 -0.93,-0.7 -2.22,-1.04 -3.87,-1.04l-1.58 0z"/>
    <path id="1" fill="black" d="M289.53 43.8l10.32 0c1.88,0 3.61,0.26 5.19,0.79 1.66,0.55 3.11,1.38 4.34,2.5 1.28,1.16 2.23,2.51 2.86,4.05 0.04,0.09 0.07,0.19 0.1,0.28 0.54,1.44 0.82,3 0.82,4.68 0,1.04 -0.14,2.11 -0.41,3.21 -0.26,1.03 -0.65,2.08 -1.16,3.15 -0.61,1.24 -1.46,2.34 -2.55,3.3 -0.16,0.13 -0.32,0.27 -0.48,0.4l6.94 10.32c0.96,1.43 0.57,3.37 -0.86,4.33 -0.53,0.35 -1.13,0.52 -1.73,0.52l0 0.01 -7.73 0c-1.17,0 -2.2,-0.64 -2.73,-1.6l-3.06 -4.55 0 3.02c0,1.73 -1.4,3.13 -3.13,3.13l-6.73 0c-1.73,0 -3.13,-1.4 -3.13,-3.13l0 -31.28c0,-1.73 1.4,-3.13 3.13,-3.13zm0 3.13l10.32 0c3.14,0 5.62,0.82 7.44,2.47 1.83,1.65 2.74,3.89 2.74,6.7 0,1.6 -0.42,3.27 -1.25,5 -0.84,1.72 -2.39,3.08 -4.64,4.07l8.77 13.04 -7.73 0 -8.14 -12.1 -0.78 0 0 12.1 -6.73 0 0 -31.28zm6.73 5.56l0 8.15 1.48 0c3.58,0 5.36,-1.44 5.36,-4.31 0,-1.18 -0.47,-2.11 -1.39,-2.8 -0.93,-0.7 -2.22,-1.04 -3.87,-1.04l-1.58 0zm3.13 3.32l0 1.53c0.18,-0.06 0.31,-0.13 0.41,-0.21 0.11,-0.09 0.17,-0.35 0.17,-0.8 0,-0.11 -0.01,-0.18 -0.02,-0.2 0,-0.01 -0.04,-0.05 -0.11,-0.1 -0.12,-0.08 -0.26,-0.15 -0.45,-0.22z"/>
   </g>
   <g>
    <path fill="white" fill-rule="nonzero" d="M277.58 46.93l6.73 0 0 31.28 -6.73 0 0 -31.28z"/>
    <path id="1" fill="black" d="M277.58 43.8l6.73 0c1.73,0 3.13,1.4 3.13,3.13l0 31.28c0,1.73 -1.4,3.13 -3.13,3.13l-6.73 0c-1.73,0 -3.13,-1.4 -3.13,-3.13l0 -31.28c0,-1.73 1.4,-3.13 3.13,-3.13zm0 3.13l6.73 0 0 31.28 -6.73 0 0 -31.28z"/>
   </g>
   <g>
    <path fill="white" fill-rule="nonzero" d="M254.74 46.93l17.62 0 0 6.2 -10.88 0 0 6.29 10.88 0 0 6.1 -10.88 0 0 6.5 10.88 0 0 6.19 -17.62 0 0 -31.28z"/>
    <path id="1" fill="black" d="M254.74 43.8l17.62 0c1.73,0 3.13,1.4 3.13,3.13l0 6.2c0,1.72 -1.4,3.13 -3.13,3.13l-7.75 0 0 0.03 7.75 0c1.73,0 3.13,1.41 3.13,3.13l0 6.1c0,1.73 -1.4,3.13 -3.13,3.13l-7.75 0 0 0.24 7.75 0c1.73,0 3.13,1.4 3.13,3.13l0 6.19c0,1.73 -1.4,3.13 -3.13,3.13l-17.62 0c-1.72,0 -3.12,-1.4 -3.12,-3.13l0 -31.28c0,-1.73 1.4,-3.13 3.12,-3.13zm0 3.13l17.62 0 0 6.2 -10.88 0 0 6.29 10.88 0 0 6.1 -10.88 0 0 6.5 10.88 0 0 6.19 -17.62 0 0 -31.28z"/>
   </g>
   <g>
    <path fill="white" fill-rule="nonzero" d="M220.05 46.93l6.83 0 7.89 20.79 7.87 -20.79 6.89 0 -11.85 31.28 -5.81 0 -11.82 -31.28z"/>
    <path id="1" fill="black" d="M220.05 43.8l6.83 0c1.41,0 2.61,0.94 2.99,2.23l4.89 12.89 4.96 -13.09c0.47,-1.25 1.66,-2.02 2.92,-2.02l0 -0.01 6.89 0c1.73,0 3.13,1.4 3.13,3.13 0,0.47 -0.1,0.91 -0.29,1.31l-11.77 31.07c-0.47,1.25 -1.66,2.03 -2.92,2.03l0 0 -5.81 0c-1.42,0 -2.61,-0.94 -3,-2.23l-11.74 -31.08c-0.61,-1.61 0.21,-3.42 1.82,-4.02 0.36,-0.14 0.73,-0.2 1.1,-0.2l0 -0.01zm0 3.13l6.83 0 7.89 20.79 7.87 -20.79 6.89 0 -11.85 31.28 -5.81 0 -11.82 -31.28z"/>
   </g>
   <g>
    <path fill="white" fill-rule="nonzero" d="M208.1 46.93l6.74 0 0 31.28 -6.74 0 0 -31.28z"/>
    <path id="1" fill="black" d="M208.1 43.8l6.74 0c1.72,0 3.12,1.4 3.12,3.13l0 31.28c0,1.73 -1.4,3.13 -3.12,3.13l-6.74 0c-1.73,0 -3.13,-1.4 -3.13,-3.13l0 -31.28c0,-1.73 1.4,-3.13 3.13,-3.13zm0 3.13l6.74 0 0 31.28 -6.74 0 0 -31.28z"/>
   </g>
   <g>
    <path fill="white" fill-rule="nonzero" d="M186.97 46.93l6.74 0 0 24.55 9.18 0 0 6.73 -15.92 0 0 -31.28z"/>
    <path id="1" fill="black" d="M186.97 43.8l6.74 0c1.73,0 3.13,1.4 3.13,3.13l0 21.42 6.05 0c1.72,0 3.12,1.4 3.12,3.13l0 6.73c0,1.73 -1.4,3.13 -3.12,3.13l-15.92 0c-1.72,0 -3.12,-1.4 -3.12,-3.13l0 -31.28c0,-1.73 1.4,-3.13 3.12,-3.13zm0 3.13l6.74 0 0 24.55 9.18 0 0 6.73 -15.92 0 0 -31.28z"/>
   </g>
   <g>
    <path fill="white" fill-rule="nonzero" d="M150.95 62.54c0,-4.53 1.5,-8.25 4.48,-11.2 2.99,-2.94 6.54,-4.41 10.63,-4.41 4.54,0 8.28,1.47 11.25,4.43 2.96,2.97 4.45,6.7 4.45,11.22 0,4.49 -1.47,8.22 -4.4,11.18 -2.94,2.97 -6.63,4.45 -11.08,4.45 -4.46,0 -8.13,-1.48 -11.01,-4.43 -2.88,-2.94 -4.32,-6.7 -4.32,-11.24zm15.44 -9.51c-2.57,-0.05 -4.64,0.84 -6.21,2.66 -1.57,1.82 -2.36,4.16 -2.36,7.03 0,2.72 0.8,4.97 2.41,6.76 1.6,1.78 3.62,2.68 6.07,2.68 2.57,0 4.64,-0.89 6.22,-2.65 1.59,-1.76 2.37,-4.09 2.37,-6.97 0,-2.85 -0.77,-5.13 -2.32,-6.85 -1.55,-1.73 -3.61,-2.61 -6.18,-2.66z"/>
    <path id="1" fill="black" d="M147.82 62.54c0,-5.39 1.81,-9.86 5.43,-13.43 1.78,-1.75 3.75,-3.08 5.89,-3.96 2.16,-0.9 4.47,-1.35 6.92,-1.35 2.66,0 5.11,0.44 7.35,1.33 2.28,0.89 4.31,2.24 6.1,4.02 0,0 0,0 0.01,0.01l0 -0.01c1.77,1.77 3.11,3.8 4.02,6.09 0.9,2.26 1.35,4.7 1.35,7.34 0,2.63 -0.44,5.06 -1.32,7.3 -0.89,2.26 -2.23,4.29 -4,6.08 -1.77,1.79 -3.78,3.13 -6.02,4.03 -2.24,0.9 -4.66,1.35 -7.27,1.35 -2.62,0 -5.04,-0.45 -7.26,-1.34 -2.24,-0.9 -4.23,-2.24 -5.98,-4.03 0,0 0,-0.01 -0.01,-0.01l0 0c-1.74,-1.79 -3.05,-3.82 -3.92,-6.09 -0.86,-2.23 -1.29,-4.68 -1.29,-7.33zm3.13 0c0,-4.53 1.5,-8.25 4.48,-11.2 2.99,-2.94 6.54,-4.41 10.63,-4.41 4.54,0 8.28,1.47 11.25,4.43 2.96,2.97 4.45,6.7 4.45,11.22 0,4.49 -1.47,8.22 -4.4,11.18 -2.94,2.97 -6.63,4.45 -11.08,4.45 -4.46,0 -8.13,-1.48 -11.01,-4.43 -2.88,-2.94 -4.32,-6.7 -4.32,-11.24zm15.44 -9.51c-2.57,-0.05 -4.64,0.84 -6.21,2.66 -1.57,1.82 -2.36,4.16 -2.36,7.03 0,2.72 0.8,4.97 2.41,6.76 1.6,1.78 3.62,2.68 6.07,2.68 2.57,0 4.64,-0.89 6.22,-2.65 1.59,-1.76 2.37,-4.09 2.37,-6.97 0,-2.85 -0.77,-5.13 -2.32,-6.85 -1.55,-1.73 -3.61,-2.61 -6.18,-2.66zm-0.05 3.12c-0.84,-0.02 -1.57,0.11 -2.21,0.38 -0.59,0.25 -1.12,0.65 -1.59,1.2 -0.52,0.6 -0.91,1.29 -1.17,2.07 -0.28,0.83 -0.42,1.81 -0.42,2.92 0,1.92 0.53,3.48 1.6,4.67 0.04,0.04 0.08,0.09 0.12,0.14 0.46,0.48 0.97,0.85 1.53,1.1 0.61,0.26 1.31,0.4 2.1,0.4 0.87,0 1.63,-0.14 2.26,-0.41 0.62,-0.26 1.17,-0.66 1.64,-1.19 0,0 0.01,0 0.01,-0.01l-0.01 0c0.51,-0.56 0.89,-1.22 1.14,-1.97 0.28,-0.83 0.42,-1.8 0.42,-2.91 0,-1.09 -0.13,-2.04 -0.4,-2.85 -0.25,-0.73 -0.62,-1.37 -1.11,-1.91 -0.47,-0.53 -1.01,-0.92 -1.61,-1.18 -0.67,-0.29 -1.43,-0.44 -2.3,-0.45z"/>
   </g>
   <g>
    <path fill="white" fill-rule="nonzero" d="M289.04 20.82c0,-4.52 1.49,-8.25 4.48,-11.2 2.99,-2.94 6.53,-4.41 10.63,-4.41 4.54,0 8.28,1.48 11.24,4.44 2.97,2.96 4.46,6.7 4.46,11.21 0,4.5 -1.47,8.22 -4.41,11.19 -2.93,2.96 -6.63,4.45 -11.08,4.45 -4.46,0 -8.12,-1.48 -11.01,-4.43 -2.87,-2.95 -4.31,-6.7 -4.31,-11.25zm15.43 -9.5c-2.56,-0.05 -4.63,0.83 -6.2,2.65 -1.58,1.82 -2.37,4.17 -2.37,7.04 0,2.72 0.81,4.97 2.41,6.75 1.6,1.79 3.63,2.68 6.08,2.68 2.56,0 4.64,-0.88 6.22,-2.64 1.58,-1.76 2.37,-4.09 2.37,-6.98 0,-2.84 -0.77,-5.12 -2.32,-6.85 -1.55,-1.72 -3.61,-2.6 -6.19,-2.65z"/>
    <path id="1" fill="black" d="M285.91 20.82c0,-2.64 0.45,-5.09 1.35,-7.35 0.91,-2.26 2.27,-4.29 4.07,-6.07 1.79,-1.76 3.75,-3.08 5.89,-3.97 2.16,-0.9 4.47,-1.34 6.93,-1.34 2.65,0 5.1,0.44 7.35,1.32 2.27,0.9 4.31,2.24 6.09,4.03 0.01,0 0.01,0 0.01,0l0.01 0c1.77,1.77 3.11,3.8 4.02,6.09 0.9,2.26 1.34,4.7 1.34,7.33 0,2.64 -0.44,5.07 -1.32,7.31 -0.89,2.26 -2.22,4.28 -4,6.08 -1.76,1.78 -3.77,3.13 -6.02,4.03 -2.23,0.9 -4.65,1.35 -7.27,1.35 -2.62,0 -5.04,-0.45 -7.25,-1.34 -2.24,-0.9 -4.24,-2.25 -5.98,-4.03 -0.01,0 -0.01,-0.01 -0.01,-0.01l0 0c-1.73,-1.77 -3.04,-3.8 -3.91,-6.09 0,0 0,0 0,0l-0.02 0c-0.85,-2.24 -1.28,-4.68 -1.28,-7.34zm3.13 0c0,-4.52 1.49,-8.25 4.48,-11.2 2.99,-2.94 6.53,-4.41 10.63,-4.41 4.54,0 8.28,1.48 11.24,4.44 2.97,2.96 4.46,6.7 4.46,11.21 0,4.5 -1.47,8.22 -4.41,11.19 -2.93,2.96 -6.63,4.45 -11.08,4.45 -4.46,0 -8.12,-1.48 -11.01,-4.43 -2.87,-2.95 -4.31,-6.7 -4.31,-11.25zm15.43 -9.5c-2.56,-0.05 -4.63,0.83 -6.2,2.65 -1.58,1.82 -2.37,4.17 -2.37,7.04 0,2.72 0.81,4.97 2.41,6.75 1.6,1.79 3.63,2.68 6.08,2.68 2.56,0 4.64,-0.88 6.22,-2.64 1.58,-1.76 2.37,-4.09 2.37,-6.98 0,-2.84 -0.77,-5.12 -2.32,-6.85 -1.55,-1.72 -3.61,-2.6 -6.19,-2.65zm-0.05 3.11c-0.83,-0.01 -1.57,0.12 -2.2,0.39 -0.59,0.25 -1.13,0.65 -1.6,1.19 -0.51,0.6 -0.91,1.3 -1.17,2.08 -0.28,0.83 -0.42,1.8 -0.42,2.92 0,1 0.14,1.89 0.42,2.68l0 -0.01c0.27,0.76 0.67,1.43 1.18,2.01 0.49,0.54 1.05,0.95 1.66,1.22 0.6,0.27 1.3,0.4 2.1,0.4 0.87,0 1.62,-0.13 2.25,-0.4 0.62,-0.26 1.17,-0.66 1.65,-1.19 0,0 0,-0.01 0,-0.01l0 0c0.5,-0.56 0.88,-1.22 1.14,-1.97 0.28,-0.83 0.42,-1.8 0.42,-2.92 0,-1.09 -0.14,-2.04 -0.41,-2.84 -0.25,-0.73 -0.62,-1.37 -1.11,-1.92 -0.47,-0.52 -1,-0.91 -1.6,-1.17 -0.67,-0.29 -1.44,-0.44 -2.31,-0.46z"/>
   </g>
   <g>
    <path fill="white" fill-rule="nonzero" d="M281.92 12.24l-4.36 4.08c-0.91,-1.57 -2.04,-2.75 -3.38,-3.53 -1.34,-0.78 -2.75,-1.17 -4.22,-1.17 -2.38,0 -4.45,0.9 -6.2,2.72 -1.75,1.8 -2.63,3.93 -2.63,6.39 0,2.61 0.88,4.82 2.63,6.64 1.75,1.81 3.87,2.72 6.34,2.72 1.35,0 2.64,-0.34 3.89,-1.02 1.24,-0.68 2.24,-1.95 3,-3.82l-7.22 0 0 -5.94 14.05 0 0 3.94c0,2.03 -0.69,4.21 -2.09,6.53 -1.38,2.34 -3.22,4.03 -5.49,5.11 -2.27,1.07 -4.56,1.61 -6.88,1.61 -4.2,0 -7.75,-1.52 -10.64,-4.57 -2.88,-3.04 -4.33,-6.81 -4.33,-11.29 0,-4.25 1.49,-7.89 4.46,-10.9 2.98,-3.02 6.55,-4.53 10.75,-4.53 5.34,0 9.45,2.35 12.32,7.03z"/>
    <path id="1" fill="black" d="M283.88 14.67l-1.62 1.52 1.56 0c1.73,0 3.13,1.4 3.13,3.12l0 3.94c0,1.32 -0.23,2.69 -0.68,4.11 -0.42,1.31 -1.04,2.64 -1.85,4.01l0 0c-0.84,1.43 -1.84,2.67 -2.97,3.72 -1.16,1.07 -2.45,1.94 -3.88,2.62 -1.34,0.63 -2.69,1.11 -4.04,1.43 -1.39,0.32 -2.78,0.49 -4.17,0.49 -2.52,0 -4.86,-0.47 -7.03,-1.4 -2.17,-0.93 -4.13,-2.31 -5.87,-4.15 -1.72,-1.81 -3.02,-3.86 -3.9,-6.14 -0.86,-2.27 -1.3,-4.7 -1.3,-7.3 0,-2.52 0.45,-4.89 1.36,-7.1 0.9,-2.2 2.23,-4.19 4.01,-5.99 1.77,-1.8 3.75,-3.16 5.93,-4.08 2.19,-0.92 4.54,-1.38 7.04,-1.38 3.21,0 6.09,0.72 8.63,2.17 2.52,1.44 4.64,3.56 6.36,6.35 0.82,1.36 0.5,3.09 -0.71,4.06zm-1.96 -2.43l-4.36 4.08c-0.91,-1.57 -2.04,-2.75 -3.38,-3.53 -1.34,-0.78 -2.75,-1.17 -4.22,-1.17 -2.38,0 -4.45,0.9 -6.2,2.72 -1.75,1.8 -2.63,3.93 -2.63,6.39 0,2.61 0.88,4.82 2.63,6.64 1.75,1.81 3.87,2.72 6.34,2.72 1.35,0 2.64,-0.34 3.89,-1.02 1.24,-0.68 2.24,-1.95 3,-3.82l-7.22 0 0 -5.94 14.05 0 0 3.94c0,2.03 -0.69,4.21 -2.09,6.53 -1.38,2.34 -3.22,4.03 -5.49,5.11 -2.27,1.07 -4.56,1.61 -6.88,1.61 -4.2,0 -7.75,-1.52 -10.64,-4.57 -2.88,-3.04 -4.33,-6.81 -4.33,-11.29 0,-4.25 1.49,-7.89 4.46,-10.9 2.98,-3.02 6.55,-4.53 10.75,-4.53 5.34,0 9.45,2.35 12.32,7.03zm-8.37 3.95c-0.3,-0.28 -0.61,-0.51 -0.92,-0.7 -0.01,0 -0.02,0 -0.03,-0.01l0 0c-0.43,-0.25 -0.86,-0.43 -1.31,-0.56 -0.41,-0.11 -0.85,-0.17 -1.33,-0.17 -0.77,0 -1.47,0.14 -2.09,0.41 -0.65,0.29 -1.27,0.73 -1.86,1.34 0,0.01 -0.01,0.01 -0.02,0.02 -0.6,0.62 -1.04,1.27 -1.32,1.95 -0.27,0.67 -0.41,1.43 -0.41,2.26 0,0.93 0.14,1.75 0.42,2.47 0.29,0.71 0.73,1.38 1.33,2.01 0.22,0.22 0.45,0.43 0.68,0.61 -0.03,-0.18 -0.05,-0.38 -0.05,-0.57l0 -5.94c0,-1.72 1.4,-3.12 3.13,-3.12l3.78 0z"/>
   </g>
   <g>
    <path fill="white" fill-rule="nonzero" d="M236.38 5.21l5.27 0 12.74 31.29 -6.79 0 -2.5 -6.15 -12.01 0 -2.46 6.15 -6.75 0 12.5 -31.29zm2.66 10.25l-3.69 9.23 7.45 0 -3.76 -9.23z"/>
    <path id="1" fill="black" d="M236.38 2.09l5.27 0c1.37,0 2.53,0.87 2.96,2.1l12.67 31.14c0.65,1.6 -0.12,3.42 -1.72,4.07 -0.38,0.15 -0.78,0.22 -1.17,0.22l0 0.01 -6.79 0c-1.36,0 -2.53,-0.88 -2.95,-2.1l-1.65 -4.05 -7.8 0 -1.67 4.17c-0.48,1.22 -1.66,1.97 -2.9,1.97l0 0.01 -6.75 0c-1.72,0 -3.13,-1.4 -3.13,-3.13 0,-0.51 0.13,-1 0.35,-1.43l12.38 -31.01c0.49,-1.22 1.66,-1.96 2.9,-1.96l0 -0.01zm0 3.12l5.27 0 12.74 31.29 -6.79 0 -2.5 -6.15 -12.01 0 -2.46 6.15 -6.75 0 12.5 -31.29zm2.66 10.25l-3.69 9.23 7.45 0 -3.76 -9.23z"/>
   </g>
   <g>
    <path fill="white" fill-rule="nonzero" d="M211.93 5.21l6.74 0 0 31.29 -6.74 0 0 -31.29z"/>
    <path id="1" fill="black" d="M211.93 2.09l6.74 0c1.73,0 3.13,1.4 3.13,3.12l0 31.29c0,1.73 -1.4,3.13 -3.13,3.13l-6.74 0c-1.72,0 -3.13,-1.4 -3.13,-3.13l0 -31.29c0,-1.72 1.41,-3.12 3.13,-3.12zm0 3.12l6.74 0 0 31.29 -6.74 0 0 -31.29z"/>
   </g>
   <g>
    <path fill="white" fill-rule="nonzero" d="M182.12 5.21l6.74 0 0 12.06 11.12 0 0 -12.06 6.74 0 0 31.29 -6.74 0 0 -12.45 -11.12 0 0 12.45 -6.74 0 0 -31.29z"/>
    <path id="1" fill="black" d="M182.12 2.09l6.74 0c1.72,0 3.12,1.4 3.12,3.12l0 8.93 4.87 0 0 -8.93c0,-1.72 1.41,-3.12 3.13,-3.12l6.74 0c1.73,0 3.13,1.4 3.13,3.12l0 31.29c0,1.73 -1.4,3.13 -3.13,3.13l-6.74 0c-1.72,0 -3.13,-1.4 -3.13,-3.13l0 -9.32 -4.87 0 0 9.32c0,1.73 -1.4,3.13 -3.12,3.13l-6.74 0c-1.73,0 -3.13,-1.4 -3.13,-3.13l0 -31.29c0,-1.72 1.4,-3.12 3.13,-3.12zm0 3.12l6.74 0 0 12.06 11.12 0 0 -12.06 6.74 0 0 31.29 -6.74 0 0 -12.45 -11.12 0 0 12.45 -6.74 0 0 -31.29z"/>
   </g>
   <g>
    <path fill="white" fill-rule="nonzero" d="M155.87 5.21l21.04 0 0 6.64 -7.18 0 0 24.65 -6.74 0 0 -24.65 -7.12 0 0 -6.64z"/>
    <path id="1" fill="black" d="M155.87 2.09l21.04 0c1.72,0 3.12,1.4 3.12,3.12l0 6.64c0,1.73 -1.4,3.13 -3.12,3.13l-4.05 0 0 21.52c0,1.73 -1.4,3.13 -3.13,3.13l-6.74 0c-1.72,0 -3.12,-1.4 -3.12,-3.13l0 -21.52 -4 0c-1.73,0 -3.13,-1.4 -3.13,-3.13l0 -6.64c0,-1.72 1.4,-3.12 3.13,-3.12zm0 3.12l21.04 0 0 6.64 -7.18 0 0 24.65 -6.74 0 0 -24.65 -7.12 0 0 -6.64z"/>
   </g>
  </g>
  <g>
   <path fill="white" d="M5.21 44.71c0,-2.64 1.41,-5.07 3.69,-6.39l52.32 -30.21c2.28,-1.31 5.09,-1.31 7.38,0l52.31 30.21c2.28,1.32 3.69,3.75 3.69,6.39l0 60.4c0,2.64 -1.41,5.08 -3.69,6.39l-52.31 30.21c-2.29,1.32 -5.1,1.32 -7.38,0l-52.32 -30.21c-2.28,-1.31 -3.69,-3.75 -3.69,-6.38l0 -60.41z"/>
   <path id="1" fill="black" d="M2.09 44.71c0,-1.87 0.5,-3.68 1.41,-5.26 0.91,-1.56 2.22,-2.9 3.84,-3.83 0.06,-0.04 0.11,-0.07 0.17,-0.1l52.15 -30.1 -0.01 -0.01c1.64,-0.94 3.45,-1.41 5.26,-1.41 1.8,0 3.61,0.47 5.25,1.41 0.06,0.03 0.11,0.07 0.16,0.1l52.14 30.11c1.64,0.94 2.95,2.27 3.85,3.83 0.91,1.58 1.42,3.39 1.42,5.26l0 60.4c0,1.87 -0.51,3.68 -1.42,5.26 -0.9,1.56 -2.21,2.89 -3.85,3.84l-52.3 30.19 0 0.01c-1.64,0.94 -3.45,1.42 -5.25,1.42 -1.81,0 -3.62,-0.48 -5.26,-1.42 -0.05,-0.03 -0.1,-0.07 -0.16,-0.1l-52.14 -30.1c0,-0.01 0,-0.01 -0.01,-0.01l0 0.01c-1.62,-0.94 -2.93,-2.27 -3.84,-3.84 -0.91,-1.58 -1.41,-3.39 -1.41,-5.25l0 -60.41zm3.12 0c0,-2.64 1.41,-5.07 3.69,-6.39l52.32 -30.21c2.28,-1.31 5.09,-1.31 7.38,0l52.31 30.21c2.28,1.32 3.69,3.75 3.69,6.39l0 60.4c0,2.64 -1.41,5.08 -3.69,6.39l-52.31 30.21c-2.29,1.32 -5.1,1.32 -7.38,0l-52.32 -30.21c-2.28,-1.31 -3.69,-3.75 -3.69,-6.38l0 -60.41z"/>
  </g>
  <path fill="#3C3C3C" d="M12.89 85.99l-1.53 -0.89c-0.76,-0.44 -1.23,-1.25 -1.23,-2.13l0 -16.11c0,-0.88 0.47,-1.7 1.23,-2.14l1.53 -0.88 -1.53 -0.89c-0.76,-0.44 -1.23,-1.25 -1.23,-2.13l0 -16.11c0,-0.88 0.47,-1.7 1.23,-2.14l13.95 -8.05c0.76,-0.44 1.7,-0.44 2.47,0l1.53 0.88 0 -1.77c0,-0.88 0.47,-1.69 1.23,-2.13l13.95 -8.06c0.76,-0.44 1.7,-0.44 2.47,0l1.53 0.89 0 -1.77c0,-0.88 0.47,-1.7 1.23,-2.14l13.95 -8.05c0.77,-0.44 1.71,-0.44 2.47,0l13.95 8.05c0.76,0.44 1.23,1.26 1.23,2.14l0 1.77 1.54 -0.89c0.76,-0.44 1.7,-0.44 2.46,0l13.95 8.06c0.77,0.44 1.24,1.25 1.24,2.13l0 1.77 1.53 -0.88c0.76,-0.44 1.7,-0.44 2.46,0l13.95 8.05c0.77,0.44 1.24,1.26 1.24,2.14l0 16.11c0,0.88 -0.47,1.69 -1.24,2.13l-1.53 0.89 1.53 0.88c0.77,0.44 1.24,1.26 1.24,2.14l0 16.11c0,0.88 -0.47,1.69 -1.24,2.13l-1.53 0.89 1.53 0.88c0.77,0.44 1.24,1.26 1.24,2.14l0 16.1c0,0.89 -0.47,1.7 -1.24,2.14l-13.95 8.06c-0.76,0.44 -1.7,0.44 -2.46,0l-1.53 -0.89 0 1.77c0,0.88 -0.47,1.7 -1.24,2.14l-13.95 8.05c-0.76,0.44 -1.7,0.44 -2.46,0l-1.54 -0.88 0 1.76c0,0.89 -0.47,1.7 -1.23,2.14l-13.95 8.05c-0.76,0.45 -1.7,0.45 -2.47,0l-13.95 -8.05c-0.76,-0.44 -1.23,-1.25 -1.23,-2.14l0 -1.76 -1.53 0.88c-0.77,0.44 -1.71,0.44 -2.47,0l-13.95 -8.05c-0.76,-0.44 -1.23,-1.26 -1.23,-2.14l0 -1.77 -1.53 0.89c-0.77,0.44 -1.71,0.44 -2.47,0l-13.95 -8.06c-0.76,-0.44 -1.23,-1.25 -1.23,-2.14l0 -16.1c0,-0.88 0.47,-1.7 1.23,-2.14l1.53 -0.88z"/>
  <g>
   <path fill="#FFC800" d="M47.47 24.57c-0.46,-0.27 -1.09,-0.42 -1.75,-0.42 -0.65,0 -1.28,0.15 -1.74,0.42l-10.46 6.04c-0.46,0.27 -0.72,0.63 -0.72,1.01 0,0.38 0.26,0.74 0.72,1.01l10.46 6.04c0.46,0.26 1.09,0.41 1.74,0.41 0.66,0 1.29,-0.15 1.75,-0.41l10.46 -6.04c0.46,-0.27 0.72,-0.63 0.72,-1.01 0,-0.38 -0.26,-0.74 -0.72,-1.01l-10.46 -6.04z"/>
   <path id="1" fill="yellow" d="M45.91 27.27c-0.01,-0.01 -0.01,-0.01 0,0l0 0zm1.56 -2.7c-0.46,-0.27 -1.09,-0.42 -1.75,-0.42 -0.65,0 -1.28,0.15 -1.74,0.42l-10.46 6.04c-0.46,0.27 -0.72,0.63 -0.72,1.01 0,0.38 0.26,0.74 0.72,1.01l10.46 6.04c0.46,0.26 1.09,0.41 1.74,0.41 0.66,0 1.29,-0.15 1.75,-0.41l10.46 -6.04c0.46,-0.27 0.72,-0.63 0.72,-1.01 0,-0.38 -0.26,-0.74 -0.72,-1.01l-10.46 -6.04zm-1.53 2.72c0,0 0,0 0,0l0 0c-0.04,0 -0.11,-0.01 -0.22,-0.01 -0.1,0 -0.18,0.01 -0.21,0.01l0 0c0,0 0,0 0,0 0,0 -0.01,0 -0.01,0l0 0.01 0 0 0 0c0,0 0,0 0,0l0 0.01c-0.01,0 0,-0.01 0,-0.01l0 0 -7.48 4.32 7.49 4.33c0.04,0 0.11,0 0.21,0 0.11,0 0.18,0 0.22,0l7.49 -4.33 -7.48 -4.32 0 0c0,0 0,0.01 0,0.01l0 -0.01c0,0 0,0 0,0l0 0 0 0 0 -0.01c-0.01,0 -0.01,0 -0.01,0zm0 0c0,0 0.01,0.01 0.01,0.01l0 0 -0.01 -0.01zm-0.44 0.01l0 0c0,0 0.01,-0.01 0.01,-0.01l-0.01 0.01zm0.04 -0.03c0.01,-0.01 0.01,-0.01 0,0l0 0z"/>
  </g>
  <g>
   <path fill="#FFC800" d="M66.65 13.5c-0.46,-0.27 -1.09,-0.42 -1.74,-0.42 -0.66,0 -1.28,0.15 -1.75,0.42l-10.46 6.04c-0.46,0.26 -0.72,0.63 -0.72,1 0,0.38 0.26,0.74 0.72,1.01l10.46 6.04c0.47,0.27 1.09,0.42 1.75,0.42 0.65,0 1.28,-0.15 1.74,-0.42l10.46 -6.04c0.47,-0.27 0.73,-0.63 0.73,-1.01 0,-0.37 -0.26,-0.74 -0.73,-1l-10.46 -6.04z"/>
   <path id="1" fill="yellow" d="M66.65 13.5c-0.46,-0.27 -1.09,-0.42 -1.74,-0.42 -0.66,0 -1.28,0.15 -1.75,0.42l-10.46 6.04c-0.46,0.26 -0.72,0.63 -0.72,1 0,0.38 0.26,0.74 0.72,1.01l10.46 6.04c0.47,0.27 1.09,0.42 1.75,0.42 0.65,0 1.28,-0.15 1.74,-0.42l10.46 -6.04c0.47,-0.27 0.73,-0.63 0.73,-1.01 0,-0.37 -0.26,-0.74 -0.73,-1l-10.46 -6.04zm-1.53 2.72c-0.03,-0.01 -0.11,-0.01 -0.21,-0.01 -0.11,0 -0.18,0 -0.22,0.01l-7.5 4.33 7.49 4.32 0 0c0,0 0,0 0,0 0.03,0.01 0.11,0.01 0.23,0.01 0.12,0 0.19,0 0.22,-0.01 0,0 0,0 0,0l0 0 7.49 -4.32 -7.5 -4.33zm-0.44 8.65l0.04 0.02c0.02,0.01 -0.03,-0.02 -0.04,-0.02l0 0zm0.45 0c0,0 -0.06,0.03 -0.03,0.02l0.03 -0.02 0 0z"/>
  </g>
  <path fill="white" d="M66.65 35.65c-0.46,-0.27 -1.09,-0.42 -1.74,-0.42 -0.66,0 -1.28,0.15 -1.75,0.42l-10.46 6.04c-0.46,0.26 -0.72,0.63 -0.72,1 0,0.38 0.26,0.74 0.72,1.01l10.46 6.04c0.47,0.27 1.09,0.42 1.75,0.42 0.65,0 1.28,-0.15 1.74,-0.42l10.46 -6.04c0.47,-0.27 0.73,-0.63 0.73,-1.01 0,-0.37 -0.26,-0.74 -0.73,-1l-10.46 -6.04z"/>
  <g>
   <path fill="#FFC800" d="M85.83 24.57c-0.46,-0.27 -1.09,-0.42 -1.74,-0.42 -0.66,0 -1.28,0.15 -1.74,0.42l-10.47 6.04c-0.46,0.27 -0.72,0.63 -0.72,1.01 0,0.38 0.26,0.74 0.72,1.01l10.47 6.04c0.46,0.26 1.08,0.41 1.74,0.41 0.65,0 1.28,-0.15 1.74,-0.41l10.47 -6.04c0.46,-0.27 0.72,-0.63 0.72,-1.01 0,-0.38 -0.26,-0.74 -0.72,-1.01l-10.47 -6.04z"/>
   <path id="1" fill="yellow" d="M84.27 27.27c0,-0.01 0,-0.01 0,0l0 0zm1.56 -2.7c-0.46,-0.27 -1.09,-0.42 -1.74,-0.42 -0.66,0 -1.28,0.15 -1.74,0.42l-10.47 6.04c-0.46,0.27 -0.72,0.63 -0.72,1.01 0,0.38 0.26,0.74 0.72,1.01l10.47 6.04c0.46,0.26 1.08,0.41 1.74,0.41 0.65,0 1.28,-0.15 1.74,-0.41l10.47 -6.04c0.46,-0.27 0.72,-0.63 0.72,-1.01 0,-0.38 -0.26,-0.74 -0.72,-1.01l-10.47 -6.04zm-1.53 2.72c0,0 0,0 0.01,0l-0.01 0c-0.03,0 -0.1,-0.01 -0.21,-0.01 -0.11,0 -0.18,0.01 -0.21,0.01l-0.01 0c0,0 0,0 0,0 0,0 0,0 0,0l0 0.01 -0.01 0 0 0c0.01,0 0.01,0 0.01,0l0 0.01c-0.01,0 -0.01,-0.01 -0.01,-0.01l0 0 -7.48 4.32 7.5 4.33c0.03,0 0.1,0 0.21,0 0.11,0 0.18,0 0.21,0l7.5 -4.33 -7.49 -4.32 0 0c0.01,0 0.01,0.01 0,0.01l0 -0.01c0,0 0,0 0,0l0 0 0 0 0 -0.01c0,0 0,0 -0.01,0zm0.01 0c0,0 0,0.01 0,0.01l0 0 0 -0.01zm-0.44 0.01l0 0c0,0 0,-0.01 0,-0.01l0 0.01zm0.04 -0.03c0,-0.01 0,-0.01 0,0l0 0z"/>
  </g>
  <g>
   <path fill="#FFC800" d="M28.29 35.65c-0.47,-0.27 -1.09,-0.42 -1.75,-0.42 -0.65,0 -1.28,0.15 -1.74,0.42l-10.46 6.04c-0.47,0.26 -0.73,0.63 -0.73,1 0,0.38 0.26,0.74 0.73,1.01l10.46 6.04c0.46,0.27 1.09,0.42 1.74,0.42 0.66,0 1.28,-0.15 1.75,-0.42l10.46 -6.04c0.46,-0.27 0.72,-0.63 0.72,-1.01 0,-0.37 -0.26,-0.74 -0.72,-1l-10.46 -6.04z"/>
   <path id="1" fill="yellow" d="M28.29 35.65c-0.47,-0.27 -1.09,-0.42 -1.75,-0.42 -0.65,0 -1.28,0.15 -1.74,0.42l-10.46 6.04c-0.47,0.26 -0.73,0.63 -0.73,1 0,0.38 0.26,0.74 0.73,1.01l10.46 6.04c0.46,0.27 1.09,0.42 1.74,0.42 0.66,0 1.28,-0.15 1.75,-0.42l10.46 -6.04c0.46,-0.27 0.72,-0.63 0.72,-1.01 0,-0.37 -0.26,-0.74 -0.72,-1l-10.46 -6.04zm-1.53 2.72c-0.04,-0.01 -0.11,-0.01 -0.22,-0.01 -0.1,0 -0.18,0 -0.21,0.01l-7.5 4.33 7.49 4.32 0 0c0,0 0,0 0,0 0.03,0.01 0.1,0.01 0.22,0.01 0.12,0 0.2,0 0.23,-0.01 0,0 0,0 0,0l0 0 7.49 -4.32 -7.5 -4.33zm-0.44 8.65l0.03 0.02c0.03,0.01 -0.03,-0.02 -0.03,-0.02l0 0zm0.45 0c-0.01,0 -0.06,0.03 -0.04,0.02l0.04 -0.02 0 0z"/>
  </g>
  <g>
   <path fill="#FFC800" d="M47.47 46.72c-0.46,-0.27 -1.09,-0.42 -1.75,-0.42 -0.65,0 -1.28,0.15 -1.74,0.42l-10.46 6.04c-0.46,0.27 -0.72,0.63 -0.72,1.01 0,0.38 0.26,0.74 0.72,1l10.46 6.05c0.46,0.26 1.09,0.41 1.74,0.41 0.66,0 1.29,-0.15 1.75,-0.41l10.46 -6.05c0.46,-0.26 0.72,-0.62 0.72,-1 0,-0.38 -0.26,-0.74 -0.72,-1.01l-10.46 -6.04z"/>
   <path id="1" fill="yellow" d="M45.91 49.42c0.01,0.01 0.03,0.02 0.04,0.02l0 0 -0.03 -0.02 -0.01 0zm1.56 -2.7c-0.46,-0.27 -1.09,-0.42 -1.75,-0.42 -0.65,0 -1.28,0.15 -1.74,0.42l-10.46 6.04c-0.46,0.27 -0.72,0.63 -0.72,1.01 0,0.38 0.26,0.74 0.72,1l10.46 6.05c0.46,0.26 1.09,0.41 1.74,0.41 0.66,0 1.29,-0.15 1.75,-0.41l10.46 -6.05c0.46,-0.26 0.72,-0.62 0.72,-1 0,-0.38 -0.26,-0.74 -0.72,-1.01l-10.46 -6.04zm-1.52 2.72c0,0 0,0 0,0 -0.03,0 -0.11,-0.01 -0.23,-0.01 -0.11,0 -0.19,0.01 -0.22,0.01 0,0 0,0 0,0l0 0 -7.49 4.32 7.5 4.34c0.04,0 0.11,0 0.21,0 0.11,0 0.18,0 0.22,0l7.5 -4.34 -7.49 -4.32 0 0zm-0.45 0c0.01,0 0.06,-0.03 0.03,-0.02l-0.03 0.02 0 0z"/>
  </g>
  <g>
   <path fill="#FFC800" d="M66.65 57.8c-0.46,-0.27 -1.09,-0.42 -1.74,-0.42 -0.66,0 -1.28,0.15 -1.75,0.42l-10.46 6.04c-0.46,0.26 -0.72,0.63 -0.72,1 0,0.38 0.26,0.74 0.72,1.01l10.46 6.04c0.47,0.27 1.09,0.42 1.75,0.42 0.65,0 1.28,-0.15 1.74,-0.42l10.46 -6.04c0.47,-0.27 0.73,-0.63 0.73,-1.01 0,-0.37 -0.26,-0.74 -0.73,-1l-10.46 -6.04z"/>
   <path id="1" fill="yellow" d="M66.65 57.8c-0.46,-0.27 -1.09,-0.42 -1.74,-0.42 -0.66,0 -1.28,0.15 -1.75,0.42l-10.46 6.04c-0.46,0.26 -0.72,0.63 -0.72,1 0,0.38 0.26,0.74 0.72,1.01l10.46 6.04c0.47,0.27 1.09,0.42 1.75,0.42 0.65,0 1.28,-0.15 1.74,-0.42l10.46 -6.04c0.47,-0.27 0.73,-0.63 0.73,-1.01 0,-0.37 -0.26,-0.74 -0.73,-1l-10.46 -6.04zm-1.53 2.72c-0.03,-0.01 -0.11,-0.01 -0.21,-0.01 -0.11,0 -0.18,0 -0.22,0.01l-7.5 4.33 7.49 4.32 0 0c0,0 0,0 0,0 0.03,0.01 0.11,0.01 0.23,0.01 0.12,0 0.19,-0.01 0.22,-0.01 0,0 0,0 0,0l0 0 7.49 -4.32 -7.5 -4.33zm-0.44 8.65l0.03 0.02c0.03,0.01 -0.02,-0.02 -0.03,-0.02l0 0zm0.45 0c0,0 -0.03,0.01 -0.04,0.02l0.01 0 0.03 -0.02 0 0z"/>
  </g>
  <g>
   <path fill="#FFC800" d="M85.83 46.72c-0.46,-0.27 -1.09,-0.42 -1.74,-0.42 -0.66,0 -1.28,0.15 -1.74,0.42l-10.47 6.04c-0.46,0.27 -0.72,0.63 -0.72,1.01 0,0.38 0.26,0.74 0.72,1l10.47 6.05c0.46,0.26 1.08,0.41 1.74,0.41 0.65,0 1.28,-0.15 1.74,-0.41l10.47 -6.05c0.46,-0.26 0.72,-0.62 0.72,-1 0,-0.38 -0.26,-0.74 -0.72,-1.01l-10.47 -6.04z"/>
   <path id="1" fill="yellow" d="M84.28 49.42c-0.02,-0.01 0.03,0.02 0.03,0.02l0 0 -0.03 -0.02zm1.55 -2.7c-0.46,-0.27 -1.09,-0.42 -1.74,-0.42 -0.66,0 -1.28,0.15 -1.74,0.42l-10.47 6.04c-0.46,0.27 -0.72,0.63 -0.72,1.01 0,0.38 0.26,0.74 0.72,1l10.47 6.05c0.46,0.26 1.08,0.41 1.74,0.41 0.65,0 1.28,-0.15 1.74,-0.41l10.47 -6.05c0.46,-0.26 0.72,-0.62 0.72,-1 0,-0.38 -0.26,-0.74 -0.72,-1.01l-10.47 -6.04zm-1.52 2.72c0,0 0,0 0,0 -0.03,0 -0.1,-0.01 -0.22,-0.01 -0.12,0 -0.19,0.01 -0.22,0.01 0,0 0,0 0,0l0 0 -7.5 4.32 7.51 4.34c0.03,0 0.1,0 0.21,0 0.11,0 0.18,0 0.21,0l7.5 -4.34 -7.49 -4.32 0 0zm-0.44 0c0,0 0.05,-0.03 0.03,-0.02l-0.03 0.02 0 0z"/>
  </g>
  <g>
   <path fill="#FFC800" d="M105.02 35.65c-0.47,-0.27 -1.09,-0.42 -1.75,-0.42 -0.65,0 -1.28,0.15 -1.74,0.42l-10.47 6.04c-0.46,0.26 -0.72,0.63 -0.72,1 0,0.38 0.26,0.74 0.72,1.01l10.47 6.04c0.46,0.27 1.09,0.42 1.74,0.42 0.66,0 1.28,-0.15 1.75,-0.42l10.46 -6.04c0.46,-0.27 0.72,-0.63 0.72,-1.01 0,-0.37 -0.26,-0.74 -0.72,-1l-10.46 -6.04z"/>
   <path id="1" fill="yellow" d="M105.02 35.65c-0.47,-0.27 -1.09,-0.42 -1.75,-0.42 -0.65,0 -1.28,0.15 -1.74,0.42l-10.47 6.04c-0.46,0.26 -0.72,0.63 -0.72,1 0,0.38 0.26,0.74 0.72,1.01l10.47 6.04c0.46,0.27 1.09,0.42 1.74,0.42 0.66,0 1.28,-0.15 1.75,-0.42l10.46 -6.04c0.46,-0.27 0.72,-0.63 0.72,-1.01 0,-0.37 -0.26,-0.74 -0.72,-1l-10.46 -6.04zm-1.54 2.72c-0.03,-0.01 -0.1,-0.01 -0.21,-0.01 -0.11,0 -0.18,0 -0.21,0.01l-7.5 4.33 7.49 4.32 0 0c0,0 0,0 0,0 0.03,0.01 0.1,0.01 0.22,0.01 0.12,0 0.2,0 0.22,-0.01 0,0 0,0 0,0l0 0 7.5 -4.32 -7.51 -4.33zm-0.43 8.65l0.03 0.02 0.01 0c-0.01,-0.01 -0.04,-0.02 -0.04,-0.02l0 0zm0.44 0c0,0 -0.05,0.03 -0.03,0.02l0.03 -0.02 0 0z"/>
  </g>
  <g>
   <path fill="#19C84B" d="M104.99 55.82l0 12.08c0,0.53 0.19,0.94 0.52,1.13 0.32,0.19 0.77,0.14 1.23,-0.12l10.46 -6.04c0.46,-0.27 0.91,-0.74 1.23,-1.31 0.33,-0.56 0.52,-1.18 0.52,-1.72l0 -12.08c0,-0.53 -0.19,-0.94 -0.52,-1.13 -0.32,-0.18 -0.77,-0.14 -1.23,0.13l-10.46 6.04c-0.46,0.26 -0.91,0.73 -1.23,1.3 -0.33,0.57 -0.52,1.18 -0.52,1.72z"/>
   <path id="1" fill="#80FF00" d="M108.12 55.86l0 8.65 7.5 -4.33 -0.01 0c0,0 -0.01,0 0,0 0.04,-0.05 0.08,-0.11 0.12,-0.18 0.04,-0.07 0.07,-0.13 0.09,-0.18l0 -8.66 -7.49 4.32 0 0.01c-0.05,0.05 -0.09,0.11 -0.12,0.16l0 0.01c-0.04,0.06 -0.07,0.13 -0.09,0.2zm-3.13 -0.04l0 12.08c0,0.53 0.19,0.94 0.52,1.13 0.32,0.19 0.77,0.14 1.23,-0.12l10.46 -6.04c0.46,-0.27 0.91,-0.74 1.23,-1.31 0.33,-0.56 0.52,-1.18 0.52,-1.72l0 -12.08c0,-0.53 -0.19,-0.94 -0.52,-1.13 -0.32,-0.18 -0.77,-0.14 -1.23,0.13l-10.46 6.04c-0.46,0.26 -0.91,0.73 -1.23,1.3 -0.33,0.57 -0.52,1.18 -0.52,1.72zm10.63 4.36l0.03 -0.02c0.03,-0.02 -0.02,0.01 -0.04,0.02l0.01 0z"/>
  </g>
  <g>
   <path fill="#19C84B" d="M85.81 66.89l0 12.08c0,0.54 0.19,0.94 0.51,1.13 0.33,0.19 0.77,0.15 1.24,-0.12l10.46 -6.04c0.46,-0.27 0.91,-0.74 1.23,-1.3 0.33,-0.57 0.51,-1.19 0.51,-1.72l0 -12.08c0,-0.54 -0.18,-0.94 -0.51,-1.13 -0.32,-0.19 -0.77,-0.15 -1.23,0.12l-10.46 6.04c-0.47,0.27 -0.91,0.74 -1.24,1.3 -0.32,0.57 -0.51,1.19 -0.51,1.72z"/>
   <path id="1" fill="#80FF00" d="M88.94 66.92l0 8.66 7.49 -4.33 0 0.01c0,-0.01 0,-0.01 0.01,-0.01 -0.01,0 -0.01,0 -0.01,0l0.01 0c0.03,-0.04 0.07,-0.1 0.11,-0.16l0 -0.02c0.04,-0.06 0.06,-0.12 0.08,-0.19l0 -8.65 -7.48 4.33 0 0c0,0 0,0 0,0 -0.04,0.04 -0.08,0.1 -0.13,0.18 -0.03,0.06 -0.06,0.13 -0.08,0.18zm-3.13 -0.03l0 12.08c0,0.54 0.19,0.94 0.51,1.13 0.33,0.19 0.77,0.15 1.24,-0.12l10.46 -6.04c0.46,-0.27 0.91,-0.74 1.23,-1.3 0.33,-0.57 0.51,-1.19 0.51,-1.72l0 -12.08c0,-0.54 -0.18,-0.94 -0.51,-1.13 -0.32,-0.19 -0.77,-0.15 -1.23,0.12l-10.46 6.04c-0.47,0.27 -0.91,0.74 -1.24,1.3 -0.32,0.57 -0.51,1.19 -0.51,1.72zm10.62 4.36l0 0c0,0 0,0 0,0l0 0zm0.03 -0.01l0.01 0c0.02,-0.01 0.01,-0.01 -0.01,0zm-0.03 0.01c-0.01,0 -0.01,0 0,0l0 0zm-7.28 -4.69l-0.01 0c0.01,0 0.01,0 0.01,0l0 0zm-0.04 0.01l0 0c-0.02,0.01 -0.01,0.01 0,0z"/>
  </g>
  <g>
   <path fill="#19C84B" d="M66.63 77.97l0 12.08c0,0.53 0.18,0.94 0.51,1.13 0.33,0.19 0.77,0.14 1.23,-0.12l10.47 -6.05c0.46,-0.26 0.9,-0.73 1.23,-1.3 0.33,-0.56 0.51,-1.18 0.51,-1.72l0 -12.08c0,-0.53 -0.18,-0.94 -0.51,-1.13 -0.33,-0.18 -0.77,-0.14 -1.23,0.13l-10.47 6.04c-0.46,0.26 -0.9,0.73 -1.23,1.3 -0.33,0.57 -0.51,1.18 -0.51,1.72z"/>
   <path id="1" fill="#80FF00" d="M69.76 77.99l0 8.66 7.48 -4.32 0 0c0.06,-0.06 0.1,-0.12 0.13,-0.17l0 -0.01c0.03,-0.06 0.06,-0.13 0.08,-0.19l0 -8.65 -7.49 4.32 0 0c0.01,0 0.01,0 0.01,0.01 -0.04,0.04 -0.09,0.1 -0.13,0.17 -0.04,0.07 -0.06,0.13 -0.08,0.18zm-3.13 -0.02l0 12.08c0,0.53 0.18,0.94 0.51,1.13 0.33,0.19 0.77,0.14 1.23,-0.12l10.47 -6.05c0.46,-0.26 0.9,-0.73 1.23,-1.3 0.33,-0.56 0.51,-1.18 0.51,-1.72l0 -12.08c0,-0.53 -0.18,-0.94 -0.51,-1.13 -0.33,-0.18 -0.77,-0.14 -1.23,0.13l-10.47 6.04c-0.46,0.26 -0.9,0.73 -1.23,1.3 -0.33,0.57 -0.51,1.18 -0.51,1.72zm3.33 -0.34l0 0c0,0 0,0 0,0l0 0zm-0.03 0.02l0 0c-0.02,0.01 -0.01,0 0,0z"/>
  </g>
  <g>
   <path fill="#19C84B" d="M104.99 77.97l0 12.08c0,0.53 0.19,0.94 0.52,1.13 0.32,0.19 0.77,0.14 1.23,-0.12l10.46 -6.05c0.46,-0.26 0.91,-0.73 1.23,-1.3 0.33,-0.56 0.52,-1.18 0.52,-1.72l0 -12.08c0,-0.53 -0.19,-0.94 -0.52,-1.13 -0.32,-0.18 -0.77,-0.14 -1.23,0.13l-10.46 6.04c-0.46,0.26 -0.91,0.73 -1.23,1.3 -0.33,0.57 -0.52,1.18 -0.52,1.72z"/>
   <path id="1" fill="#80FF00" d="M108.12 77.99l0 8.66 7.49 -4.32 0 0c0,0 -0.01,0 0,0 0.04,-0.05 0.08,-0.11 0.12,-0.18 0.04,-0.07 0.07,-0.13 0.09,-0.18l0 -8.66 -7.49 4.32 0 0.01c-0.05,0.05 -0.09,0.11 -0.12,0.16l0 0.01c-0.04,0.07 -0.07,0.13 -0.09,0.18zm-3.13 -0.02l0 12.08c0,0.53 0.19,0.94 0.52,1.13 0.32,0.19 0.77,0.14 1.23,-0.12l10.46 -6.05c0.46,-0.26 0.91,-0.73 1.23,-1.3 0.33,-0.56 0.52,-1.18 0.52,-1.72l0 -12.08c0,-0.53 -0.19,-0.94 -0.52,-1.13 -0.32,-0.18 -0.77,-0.14 -1.23,0.13l-10.46 6.04c-0.46,0.26 -0.91,0.73 -1.23,1.3 -0.33,0.57 -0.52,1.18 -0.52,1.72zm10.62 4.36l0 0c0,0 0,0 0,0l0 0zm0.03 -0.02l0.01 0c0.02,-0.01 0.01,0 -0.01,0z"/>
  </g>
  <g>
   <path fill="#19C84B" d="M85.81 89.04l0 12.08c0,0.54 0.19,0.94 0.51,1.13 0.33,0.19 0.77,0.15 1.24,-0.12l10.46 -6.04c0.46,-0.27 0.91,-0.74 1.23,-1.3 0.33,-0.57 0.51,-1.19 0.51,-1.72l0 -12.08c0,-0.54 -0.18,-0.94 -0.51,-1.13 -0.32,-0.19 -0.77,-0.15 -1.23,0.12l-10.46 6.04c-0.47,0.27 -0.91,0.74 -1.24,1.3 -0.32,0.57 -0.51,1.19 -0.51,1.72z"/>
   <path id="1" fill="#80FF00" d="M88.94 89.07l0 8.66 7.49 -4.32 0 0 0 0 0 0 0.04 -0.02 -0.04 0.02 0 0 0 0 0 0 0 -0.01c0.05,-0.05 0.09,-0.11 0.12,-0.16l0 -0.02c0.04,-0.06 0.06,-0.12 0.08,-0.19l0 -8.65 -7.48 4.33 0 0c0,0 0,0 0,0 -0.04,0.04 -0.08,0.1 -0.13,0.18 -0.03,0.06 -0.06,0.13 -0.08,0.18zm-3.13 -0.03l0 12.08c0,0.54 0.19,0.94 0.51,1.13 0.33,0.19 0.77,0.15 1.24,-0.12l10.46 -6.04c0.46,-0.27 0.91,-0.74 1.23,-1.3 0.33,-0.57 0.51,-1.19 0.51,-1.72l0 -12.08c0,-0.54 -0.18,-0.94 -0.51,-1.13 -0.32,-0.19 -0.77,-0.15 -1.23,0.12l-10.46 6.04c-0.47,0.27 -0.91,0.74 -1.24,1.3 -0.32,0.57 -0.51,1.19 -0.51,1.72zm3.34 -0.33l-0.01 0c0.01,0 0.01,0 0.01,0l0 0zm-0.04 0.01l0 0c-0.02,0.01 -0.01,0.01 0,0z"/>
  </g>
  <g>
   <path fill="#19C84B" d="M66.63 100.12l0 12.08c0,0.53 0.18,0.94 0.51,1.13 0.33,0.19 0.77,0.14 1.23,-0.12l10.47 -6.05c0.46,-0.26 0.9,-0.73 1.23,-1.3 0.33,-0.56 0.51,-1.18 0.51,-1.72l0 -12.08c0,-0.53 -0.18,-0.94 -0.51,-1.13 -0.33,-0.19 -0.77,-0.14 -1.23,0.13l-10.47 6.04c-0.46,0.26 -0.9,0.73 -1.23,1.3 -0.33,0.56 -0.51,1.18 -0.51,1.72z"/>
   <path id="1" fill="#80FF00" d="M69.76 100.14l0 8.66 7.49 -4.32 0 0c0,0 0,0 0,0 0,0 0,0 0,0l0.01 -0.01c0.03,-0.04 0.07,-0.09 0.11,-0.16l0 -0.01c0.03,-0.06 0.06,-0.13 0.08,-0.19l0 -8.65 -7.49 4.32 0 0c0.01,0 0.01,0 0.01,0.01 -0.04,0.04 -0.09,0.1 -0.13,0.17 -0.04,0.07 -0.06,0.13 -0.08,0.18zm-3.13 -0.02l0 12.08c0,0.53 0.18,0.94 0.51,1.13 0.33,0.19 0.77,0.14 1.23,-0.12l10.47 -6.05c0.46,-0.26 0.9,-0.73 1.23,-1.3 0.33,-0.56 0.51,-1.18 0.51,-1.72l0 -12.08c0,-0.53 -0.18,-0.94 -0.51,-1.13 -0.33,-0.19 -0.77,-0.14 -1.23,0.13l-10.47 6.04c-0.46,0.26 -0.9,0.73 -1.23,1.3 -0.33,0.56 -0.51,1.18 -0.51,1.72zm10.62 4.36l0 0c0,0 0,0 0,0l0 0zm0.03 -0.02l0.01 0c0.01,-0.01 0.01,0 -0.01,0zm-0.03 0.02c-0.01,0 -0.01,0 -0.01,-0.01l0.01 0.01zm-7.29 -4.7l0 0c0,0 0,0 0,0l0 0zm-0.03 0.02l0 0c-0.02,0.01 -0.01,0 0,0z"/>
  </g>
  <g>
   <path fill="#19C84B" d="M104.99 100.12l0 12.08c0,0.53 0.19,0.94 0.52,1.13 0.32,0.19 0.77,0.14 1.23,-0.12l10.46 -6.05c0.46,-0.26 0.91,-0.73 1.23,-1.3 0.33,-0.56 0.52,-1.18 0.52,-1.72l0 -12.08c0,-0.53 -0.19,-0.94 -0.52,-1.13 -0.32,-0.19 -0.77,-0.14 -1.23,0.13l-10.46 6.04c-0.46,0.26 -0.91,0.73 -1.23,1.3 -0.33,0.56 -0.52,1.18 -0.52,1.72z"/>
   <path id="1" fill="#80FF00" d="M108.12 100.14l0 8.66 7.49 -4.32 0 0c0,0 -0.01,0 0,0 0.04,-0.05 0.08,-0.11 0.12,-0.18 0.04,-0.07 0.07,-0.13 0.09,-0.18l0 -8.67 -7.49 4.32 0 0 -0.01 0.01 0 0 -0.03 0.02 0.03 -0.02 0 0 0.01 -0.01 0 0 0 0.02c-0.05,0.05 -0.09,0.11 -0.12,0.16l0 0.01c-0.04,0.07 -0.07,0.13 -0.09,0.18zm-3.13 -0.02l0 12.08c0,0.53 0.19,0.94 0.52,1.13 0.32,0.19 0.77,0.14 1.23,-0.12l10.46 -6.05c0.46,-0.26 0.91,-0.73 1.23,-1.3 0.33,-0.56 0.52,-1.18 0.52,-1.72l0 -12.08c0,-0.53 -0.19,-0.94 -0.52,-1.13 -0.32,-0.19 -0.77,-0.14 -1.23,0.13l-10.46 6.04c-0.46,0.26 -0.91,0.73 -1.23,1.3 -0.33,0.56 -0.52,1.18 -0.52,1.72zm10.62 4.36l0 0c0,0 0,0 0,0l0 0zm0.03 -0.02l0.01 0c0.02,-0.01 0.01,0 -0.01,0z"/>
  </g>
  <path fill="white" d="M85.81 111.19l0 12.08c0,0.54 0.19,0.94 0.51,1.13 0.33,0.19 0.77,0.15 1.24,-0.12l10.46 -6.04c0.46,-0.27 0.91,-0.74 1.23,-1.3 0.33,-0.57 0.51,-1.19 0.51,-1.72l0 -12.08c0,-0.54 -0.18,-0.94 -0.51,-1.13 -0.32,-0.19 -0.77,-0.15 -1.23,0.12l-10.46 6.04c-0.47,0.27 -0.91,0.74 -1.24,1.3 -0.32,0.57 -0.51,1.19 -0.51,1.72z"/>
  <g>
   <path fill="#19C84B" d="M66.63 122.27l0 12.08c0,0.53 0.18,0.94 0.51,1.13 0.33,0.19 0.77,0.14 1.23,-0.13l10.47 -6.04c0.46,-0.26 0.9,-0.73 1.23,-1.3 0.33,-0.56 0.51,-1.18 0.51,-1.72l0 -12.08c0,-0.53 -0.18,-0.94 -0.51,-1.13 -0.33,-0.19 -0.77,-0.14 -1.23,0.13l-10.47 6.04c-0.46,0.26 -0.9,0.73 -1.23,1.3 -0.33,0.56 -0.51,1.18 -0.51,1.72z"/>
   <path id="1" fill="#80FF00" d="M69.76 122.29l0 8.66 7.49 -4.32 0 0c0,0 0,0 0,-0.01 0,0.01 0,0.01 0,0.01l0.01 -0.01c0.03,-0.04 0.07,-0.09 0.11,-0.16l0 -0.01c0.03,-0.06 0.06,-0.13 0.08,-0.2l0 -8.64 -7.49 4.32 0 0c0.01,0 0.01,0 0.01,0.01 -0.04,0.04 -0.09,0.1 -0.13,0.17 -0.04,0.07 -0.06,0.13 -0.08,0.18zm-3.13 -0.02l0 12.08c0,0.53 0.18,0.94 0.51,1.13 0.33,0.19 0.77,0.14 1.23,-0.13l10.47 -6.04c0.46,-0.26 0.9,-0.73 1.23,-1.3 0.33,-0.56 0.51,-1.18 0.51,-1.72l0 -12.08c0,-0.53 -0.18,-0.94 -0.51,-1.13 -0.33,-0.19 -0.77,-0.14 -1.23,0.13l-10.47 6.04c-0.46,0.26 -0.9,0.73 -1.23,1.3 -0.33,0.56 -0.51,1.18 -0.51,1.72zm10.62 4.36l0 0c0,0 0,0 0,0l0 0zm0.03 -0.02l0.01 0c0.01,-0.01 0.01,0 -0.01,0zm-0.03 0.02c-0.01,0 -0.01,0 -0.01,-0.01l0.01 0.01zm-7.29 -4.7l0 0c0,0 0,0 0,0l0 0zm-0.03 0.02l0 0c-0.02,0.01 -0.01,0 0,0z"/>
  </g>
  <g>
   <path fill="#FF3232" d="M24.8 55.78l0 12.08c0,0.54 -0.19,0.94 -0.51,1.13 -0.33,0.19 -0.77,0.15 -1.24,-0.12l-10.46 -6.04c-0.46,-0.27 -0.9,-0.74 -1.23,-1.3 -0.33,-0.57 -0.51,-1.19 -0.51,-1.72l0 -12.08c0,-0.54 0.18,-0.94 0.51,-1.13 0.33,-0.19 0.77,-0.15 1.23,0.12l10.46 6.04c0.47,0.27 0.91,0.74 1.24,1.3 0.32,0.57 0.51,1.19 0.51,1.72z"/>
   <path id="1" fill="#FF6464" d="M24.8 55.78l0 12.08c0,0.54 -0.19,0.94 -0.51,1.13 -0.33,0.19 -0.77,0.15 -1.24,-0.12l-10.46 -6.04c-0.46,-0.27 -0.9,-0.74 -1.23,-1.3 -0.33,-0.57 -0.51,-1.19 -0.51,-1.72l0 -12.08c0,-0.54 0.18,-0.94 0.51,-1.13 0.33,-0.19 0.77,-0.15 1.23,0.12l10.46 6.04c0.47,0.27 0.91,0.74 1.24,1.3 0.32,0.57 0.51,1.19 0.51,1.72zm-3.13 8.69l0 -8.66c-0.02,-0.05 -0.04,-0.12 -0.08,-0.18 -0.05,-0.08 -0.09,-0.14 -0.13,-0.18 0,0 0,0 0,0l0.01 -0.01 -7.49 -4.32 0 8.65c0.02,0.07 0.05,0.13 0.08,0.19l0 0.02c0.03,0.05 0.07,0.11 0.13,0.16l0 0.01 7.48 4.32zm-0.17 -9.01l-0.03 -0.02 -0.01 0.01c0.02,0 0.08,0.03 0.04,0.01z"/>
  </g>
  <g>
   <path fill="#FF3232" d="M43.98 66.86l0 12.08c0,0.53 -0.18,0.94 -0.51,1.13 -0.33,0.19 -0.77,0.14 -1.23,-0.12l-10.47 -6.05c-0.46,-0.26 -0.9,-0.73 -1.23,-1.3 -0.33,-0.56 -0.51,-1.18 -0.51,-1.72l0 -12.08c0,-0.53 0.18,-0.94 0.51,-1.13 0.33,-0.19 0.77,-0.14 1.23,0.13l10.47 6.04c0.46,0.26 0.9,0.73 1.23,1.3 0.33,0.56 0.51,1.18 0.51,1.72z"/>
   <path id="1" fill="#FF6464" d="M43.98 66.86l0 12.08c0,0.53 -0.18,0.94 -0.51,1.13 -0.33,0.19 -0.77,0.14 -1.23,-0.12l-10.47 -6.05c-0.46,-0.26 -0.9,-0.73 -1.23,-1.3 -0.33,-0.56 -0.51,-1.18 -0.51,-1.72l0 -12.08c0,-0.53 0.18,-0.94 0.51,-1.13 0.33,-0.19 0.77,-0.14 1.23,0.13l10.47 6.04c0.46,0.26 0.9,0.73 1.23,1.3 0.33,0.56 0.51,1.18 0.51,1.72zm-3.13 8.68l0 -8.66c-0.01,-0.05 -0.04,-0.11 -0.08,-0.18 -0.04,-0.07 -0.09,-0.13 -0.13,-0.17 0,-0.01 0,-0.01 0,-0.01l0.01 0 -7.49 -4.32 0 8.66c0.02,0.05 0.04,0.11 0.08,0.18 0.05,0.07 0.09,0.13 0.13,0.17 0,0.01 0,0.01 -0.01,0.01l0 0 7.49 4.32zm-7.49 -4.32l0 0 0 0c0,0 0,0 0,0zm-0.03 -0.02l0 0c-0.01,0 -0.02,-0.01 0,0zm7.34 -4.66l-0.02 -0.02 -0.01 0c0.01,0.01 0.06,0.03 0.03,0.02z"/>
  </g>
  <g>
   <path fill="#FF3232" d="M63.16 77.93l0 12.08c0,0.54 -0.18,0.94 -0.51,1.13 -0.32,0.19 -0.77,0.15 -1.23,-0.12l-10.46 -6.04c-0.47,-0.27 -0.91,-0.74 -1.24,-1.3 -0.32,-0.57 -0.51,-1.19 -0.51,-1.72l0 -12.08c0,-0.54 0.19,-0.94 0.51,-1.13 0.33,-0.19 0.77,-0.15 1.24,0.12l10.46 6.04c0.46,0.27 0.91,0.74 1.23,1.3 0.33,0.57 0.51,1.19 0.51,1.72z"/>
   <path id="1" fill="#FF6464" d="M63.16 77.93l0 12.08c0,0.54 -0.18,0.94 -0.51,1.13 -0.32,0.19 -0.77,0.15 -1.23,-0.12l-10.46 -6.04c-0.47,-0.27 -0.91,-0.74 -1.24,-1.3 -0.32,-0.57 -0.51,-1.19 -0.51,-1.72l0 -12.08c0,-0.54 0.19,-0.94 0.51,-1.13 0.33,-0.19 0.77,-0.15 1.24,0.12l10.46 6.04c0.46,0.27 0.91,0.74 1.23,1.3 0.33,0.57 0.51,1.19 0.51,1.72zm-3.13 8.69l0 -8.66c-0.01,-0.05 -0.04,-0.12 -0.08,-0.18 -0.05,-0.09 -0.08,-0.14 -0.11,-0.18l-0.01 0c0,0 0,0 0.01,0 -0.01,0 -0.01,0 -0.01,-0.01l0 0.01 -7.49 -4.33 0 8.66c0.02,0.05 0.05,0.12 0.08,0.18 0.05,0.08 0.09,0.14 0.13,0.18 0,0 0,0 0,0l0 0 7.48 4.33zm-7.49 -4.33l0.01 0 0 0c0,0 0,0 -0.01,0zm-0.03 -0.01l0 0c-0.01,-0.01 -0.02,-0.01 0,0zm7.32 -4.68l0 0 0 0c0,0 0,0 0,0zm0.04 0.01l-0.01 0c0.02,0.01 0.03,0.01 0.01,0zm-0.04 -0.01l0 0c-0.01,0 -0.01,0 0,0z"/>
  </g>
  <path fill="white" d="M24.8 77.93l0 12.08c0,0.54 -0.19,0.94 -0.51,1.13 -0.33,0.19 -0.77,0.15 -1.24,-0.12l-10.46 -6.04c-0.46,-0.27 -0.9,-0.74 -1.23,-1.3 -0.33,-0.57 -0.51,-1.19 -0.51,-1.72l0 -12.08c0,-0.54 0.18,-0.94 0.51,-1.13 0.33,-0.19 0.77,-0.15 1.23,0.12l10.46 6.04c0.47,0.27 0.91,0.74 1.24,1.3 0.32,0.57 0.51,1.19 0.51,1.72z"/>
  <g>
   <path fill="#FF3232" d="M43.98 89.01l0 12.08c0,0.53 -0.18,0.94 -0.51,1.13 -0.33,0.19 -0.77,0.14 -1.23,-0.13l-10.47 -6.04c-0.46,-0.26 -0.9,-0.73 -1.23,-1.3 -0.33,-0.56 -0.51,-1.18 -0.51,-1.72l0 -12.08c0,-0.53 0.18,-0.94 0.51,-1.13 0.33,-0.19 0.77,-0.14 1.23,0.13l10.47 6.04c0.46,0.26 0.9,0.73 1.23,1.3 0.33,0.56 0.51,1.18 0.51,1.72z"/>
   <path id="1" fill="#FF6464" d="M43.98 89.01l0 12.08c0,0.53 -0.18,0.94 -0.51,1.13 -0.33,0.19 -0.77,0.14 -1.23,-0.13l-10.47 -6.04c-0.46,-0.26 -0.9,-0.73 -1.23,-1.3 -0.33,-0.56 -0.51,-1.18 -0.51,-1.72l0 -12.08c0,-0.53 0.18,-0.94 0.51,-1.13 0.33,-0.19 0.77,-0.14 1.23,0.13l10.47 6.04c0.46,0.26 0.9,0.73 1.23,1.3 0.33,0.56 0.51,1.18 0.51,1.72zm-3.13 8.68l0 -8.66c-0.01,-0.05 -0.04,-0.11 -0.08,-0.18 -0.04,-0.07 -0.09,-0.13 -0.13,-0.17 0,-0.01 0,-0.01 0,-0.01l0.01 0 -7.49 -4.33 0 8.67c0.02,0.05 0.04,0.11 0.08,0.18 0.05,0.07 0.09,0.13 0.13,0.17 0,0.01 0,0.01 -0.01,0.01l0 0 7.49 4.32zm-7.49 -4.32l0 0 0 0c0,0 0,0 0,0zm-0.03 -0.02l0 0c-0.01,0 -0.02,-0.01 0,0zm7.35 -4.67l-0.03 -0.01 -0.01 0c0.01,0.01 0.06,0.03 0.03,0.02l0.01 -0.01z"/>
  </g>
  <path fill="white" d="M63.16 100.08l0 12.08c0,0.54 -0.18,0.94 -0.51,1.13 -0.32,0.19 -0.77,0.15 -1.23,-0.12l-10.46 -6.04c-0.47,-0.27 -0.91,-0.74 -1.24,-1.3 -0.32,-0.57 -0.51,-1.19 -0.51,-1.72l0 -12.08c0,-0.54 0.19,-0.94 0.51,-1.13 0.33,-0.19 0.77,-0.15 1.24,0.12l10.46 6.04c0.46,0.27 0.91,0.74 1.23,1.3 0.33,0.57 0.51,1.19 0.51,1.72z"/>
  <path fill="white" d="M24.8 100.08l0 12.08c0,0.54 -0.19,0.94 -0.51,1.13 -0.33,0.19 -0.77,0.15 -1.24,-0.12l-10.46 -6.04c-0.46,-0.27 -0.9,-0.74 -1.23,-1.3 -0.33,-0.57 -0.51,-1.19 -0.51,-1.72l0 -12.08c0,-0.54 0.18,-0.94 0.51,-1.13 0.33,-0.19 0.77,-0.15 1.23,0.12l10.46 6.04c0.47,0.27 0.91,0.74 1.24,1.3 0.32,0.57 0.51,1.19 0.51,1.72z"/>
  <path fill="white" d="M63.16 122.23l0 12.08c0,0.54 -0.18,0.94 -0.51,1.13 -0.32,0.19 -0.77,0.15 -1.23,-0.12l-10.46 -6.04c-0.47,-0.27 -0.91,-0.74 -1.24,-1.3 -0.32,-0.57 -0.51,-1.19 -0.51,-1.72l0 -12.08c0,-0.54 0.19,-0.94 0.51,-1.13 0.33,-0.19 0.77,-0.15 1.24,0.12l10.46 6.04c0.46,0.27 0.91,0.74 1.23,1.3 0.33,0.57 0.51,1.19 0.51,1.72z"/>
  <g>
   <path fill="#FF3232" d="M43.98 111.16l0 12.08c0,0.53 -0.18,0.94 -0.51,1.13 -0.33,0.19 -0.77,0.14 -1.23,-0.13l-10.47 -6.04c-0.46,-0.26 -0.9,-0.73 -1.23,-1.3 -0.33,-0.56 -0.51,-1.18 -0.51,-1.72l0 -12.08c0,-0.53 0.18,-0.94 0.51,-1.13 0.33,-0.19 0.77,-0.14 1.23,0.12l10.47 6.05c0.46,0.26 0.9,0.73 1.23,1.3 0.33,0.56 0.51,1.18 0.51,1.72z"/>
   <path id="1" fill="#FF6464" d="M43.98 111.16l0 12.08c0,0.53 -0.18,0.94 -0.51,1.13 -0.33,0.19 -0.77,0.14 -1.23,-0.13l-10.47 -6.04c-0.46,-0.26 -0.9,-0.73 -1.23,-1.3 -0.33,-0.56 -0.51,-1.18 -0.51,-1.72l0 -12.08c0,-0.53 0.18,-0.94 0.51,-1.13 0.33,-0.19 0.77,-0.14 1.23,0.12l10.47 6.05c0.46,0.26 0.9,0.73 1.23,1.3 0.33,0.56 0.51,1.18 0.51,1.72zm-3.13 8.68l0 -8.66c-0.01,-0.05 -0.04,-0.11 -0.08,-0.18 -0.05,-0.08 -0.09,-0.14 -0.11,-0.17l-0.01 -0.01c0,0 0,0 0,0 0,0 0,0 0,0l0 0 -7.49 -4.32 0 8.66c0.02,0.05 0.04,0.11 0.08,0.18 0.05,0.07 0.09,0.13 0.13,0.17 0,0.01 0,0.01 -0.01,0.01l0 0 7.49 4.32zm-7.49 -4.32l0 0 0 0c0,0 0,0 0,0zm-0.03 -0.02l0 0c-0.01,0 -0.02,-0.01 0,0zm7.32 -4.68l0 0 0 0c0,0 0,0 0,0zm0.04 0.02l-0.01 0c0.02,0 0.03,0.01 0.01,0zm-0.04 -0.02l-0.01 0c0,0 0,0 0.01,0z"/>
  </g>
  <path fill="black" d="M29.31 71.89c0,0.88 0.47,1.7 1.23,2.14l13.95 8.05c0.76,0.44 1.7,0.44 2.47,0 0.32,-0.19 0.51,-0.59 0.51,-1.13l0 -14.68c0,-0.88 0.47,-1.7 1.23,-2.14l12.72 -7.34c0.46,-0.27 0.72,-0.63 0.72,-1.01 0,-0.88 -0.47,-1.69 -1.23,-2.13l-13.95 -8.06c-0.77,-0.44 -1.71,-0.44 -2.47,0l-13.95 8.06c-0.76,0.44 -1.23,1.25 -1.23,2.13l0 16.11zm0.72 3.02c-1.08,-0.62 -1.74,-1.77 -1.74,-3.02l-0.51 0.3c-0.77,0.44 -1.71,0.44 -2.47,0l-12.72 -7.35c-0.46,-0.26 -0.9,-0.31 -1.23,-0.12l1.53 -0.88 12.42 7.17c0.76,0.44 1.7,0.44 2.47,0 0.32,-0.19 0.51,-0.6 0.51,-1.13l0 -14.69c0,-0.88 0.47,-1.69 1.23,-2.13l12.72 -7.35c0.46,-0.26 0.72,-0.63 0.72,-1 0,-0.88 -0.47,-1.7 -1.23,-2.14l-12.42 -7.17 0 -1.77c0,0.38 0.26,0.74 0.72,1.01l12.72 7.34c0.76,0.44 1.23,1.26 1.23,2.14l0 0.59c1.08,-0.63 2.41,-0.63 3.49,0l0 -0.59c0,-0.88 0.47,-1.7 1.23,-2.14l12.72 -7.34c0.46,-0.27 0.72,-0.63 0.72,-1.01 0,-0.88 -0.47,-1.69 -1.23,-2.13l-12.42 -7.17 0 -1.77c0,0.37 0.26,0.74 0.72,1l12.72 7.35c0.76,0.44 1.23,1.25 1.23,2.13l0 0.59c1.08,-0.62 2.41,-0.62 3.49,0l0 -0.59c0,-0.88 0.47,-1.69 1.23,-2.13l12.72 -7.35c0.46,-0.26 0.72,-0.63 0.72,-1l0 1.77 -12.41 7.17c-0.77,0.44 -1.24,1.25 -1.24,2.13 0,0.38 0.26,0.74 0.72,1.01l12.72 7.34c0.77,0.44 1.24,1.26 1.24,2.14l0 0.59c1.07,-0.63 2.4,-0.63 3.48,0l0 -0.59c0,-0.88 0.47,-1.7 1.24,-2.14l12.71 -7.34c0.47,-0.27 0.73,-0.63 0.73,-1.01l0 1.77 -12.42 7.17c-0.77,0.44 -1.24,1.26 -1.24,2.14 0,0.37 0.26,0.74 0.73,1l12.71 7.35c0.77,0.44 1.24,1.25 1.24,2.13l0 14.69c0,0.53 0.18,0.94 0.51,1.13 0.76,0.44 1.7,0.44 2.46,0l12.42 -7.17 1.53 0.88c-0.32,-0.19 -0.77,-0.14 -1.23,0.12l-12.72 7.35c-0.76,0.44 -1.7,0.44 -2.46,0l-0.51 -0.3c0,1.25 -0.67,2.4 -1.75,3.02l0.51 0.3c0.77,0.44 1.24,1.25 1.24,2.13l0 14.69c0,0.53 0.18,0.94 0.51,1.13 0.76,0.44 1.7,0.44 2.46,0l12.42 -7.17 1.53 0.88c-0.32,-0.19 -0.77,-0.14 -1.23,0.12l-12.72 7.35c-0.76,0.44 -1.7,0.44 -2.46,0l-0.51 -0.3c0,1.25 -0.67,2.4 -1.75,3.02l0.51 0.3c0.77,0.44 1.24,1.25 1.24,2.13l0 14.69c0,0.53 0.18,0.94 0.51,1.12l-1.53 -0.88 0 -14.34c0,-0.88 -0.47,-1.69 -1.24,-2.13 -0.32,-0.19 -0.77,-0.15 -1.23,0.12l-12.72 7.34c-0.76,0.44 -1.7,0.44 -2.46,0l-0.51 -0.3c0,1.25 -0.67,2.4 -1.75,3.03l0.51 0.29c0.77,0.44 1.24,1.26 1.24,2.14l0 14.68c0,0.54 0.18,0.94 0.51,1.13l-1.54 -0.88 0 -14.34c0,-0.89 -0.47,-1.7 -1.23,-2.14 -0.33,-0.19 -0.77,-0.14 -1.23,0.12l-12.72 7.34c-0.76,0.45 -1.7,0.45 -2.47,0l-12.71 -7.34c-0.47,-0.26 -0.91,-0.31 -1.24,-0.12 -0.76,0.44 -1.23,1.25 -1.23,2.14l0 14.34 -1.53 0.88c0.32,-0.19 0.51,-0.59 0.51,-1.13l0 -14.68c0,-0.88 0.47,-1.7 1.23,-2.14l0.51 -0.29c-1.08,-0.63 -1.74,-1.78 -1.74,-3.03l-0.51 0.3c-0.77,0.44 -1.71,0.44 -2.47,0l-12.72 -7.34c-0.46,-0.27 -0.9,-0.31 -1.23,-0.12 -0.76,0.44 -1.23,1.25 -1.23,2.13l0 14.34 -1.53 0.88c0.32,-0.18 0.51,-0.59 0.51,-1.12l0 -14.69c0,-0.88 0.47,-1.69 1.23,-2.13l0.51 -0.3c-1.08,-0.62 -1.74,-1.77 -1.74,-3.02l-0.51 0.3c-0.77,0.44 -1.71,0.44 -2.47,0l-12.72 -7.35c-0.46,-0.26 -0.9,-0.31 -1.23,-0.12l1.53 -0.88 12.42 7.17c0.76,0.44 1.7,0.44 2.47,0 0.32,-0.19 0.51,-0.6 0.51,-1.13l0 -14.69c0,-0.88 0.47,-1.69 1.23,-2.13l0.51 -0.3zm19.69 -32.34c-0.76,0.44 -1.23,1.26 -1.23,2.14 0,0.37 0.26,0.74 0.72,1l12.72 7.35c0.76,0.44 1.23,1.25 1.23,2.13l0 0.59c1.08,-0.62 2.41,-0.62 3.49,0l0 -0.59c0,-0.88 0.47,-1.69 1.23,-2.13l12.72 -7.35c0.46,-0.26 0.72,-0.63 0.72,-1 0,-0.88 -0.47,-1.7 -1.23,-2.14l-13.95 -8.05c-0.76,-0.44 -1.7,-0.44 -2.47,0l-13.95 8.05zm-0.51 43.42c-1.08,-0.63 -1.74,-1.78 -1.74,-3.02l-0.51 0.29c-0.77,0.44 -1.71,0.44 -2.47,0l-12.72 -7.34c-0.46,-0.27 -0.9,-0.31 -1.23,-0.12 -0.76,0.44 -1.23,1.25 -1.23,2.13l0 16.11c0,0.88 0.47,1.7 1.23,2.14l13.95 8.05c0.76,0.44 1.7,0.44 2.47,0 0.32,-0.19 0.51,-0.59 0.51,-1.13l0 -14.68c0,-0.88 0.47,-1.7 1.23,-2.14l0.51 -0.29zm14.46 7.17c0.77,0.44 1.71,0.44 2.47,0l13.95 -8.06c0.76,-0.44 1.23,-1.25 1.23,-2.13l0 -16.11c0,-0.88 -0.47,-1.7 -1.23,-2.14l-13.95 -8.05c-0.76,-0.44 -1.7,-0.44 -2.47,0l-13.95 8.05c-0.76,0.44 -1.23,1.26 -1.23,2.14l0 16.11c0,0.88 0.47,1.69 1.23,2.13l13.95 8.06zm0 22.14c0.77,0.45 1.71,0.45 2.47,0l13.95 -8.05c0.76,-0.44 1.23,-1.25 1.23,-2.13l0 -16.11c0,-0.89 -0.47,-1.7 -1.23,-2.14 -0.33,-0.19 -0.77,-0.14 -1.23,0.12l-12.72 7.35c-0.76,0.44 -1.7,0.44 -2.47,0l-12.71 -7.35c-0.47,-0.26 -0.91,-0.31 -1.24,-0.12 -0.76,0.44 -1.23,1.25 -1.23,2.14l0 16.11c0,0.88 0.47,1.69 1.23,2.13l13.95 8.05zm16.93 -29.31l0.51 0.29c0.77,0.44 1.24,1.26 1.24,2.14l0 14.68c0,0.54 0.18,0.94 0.51,1.13 0.76,0.44 1.7,0.44 2.46,0l13.95 -8.05c0.77,-0.44 1.24,-1.26 1.24,-2.14l0 -16.11c0,-0.88 -0.47,-1.69 -1.24,-2.13 -0.32,-0.19 -0.77,-0.15 -1.23,0.12l-12.72 7.34c-0.76,0.44 -1.7,0.44 -2.46,0l-0.51 -0.29c0,1.24 -0.67,2.39 -1.75,3.02zm-12.21 -29.2l12.72 7.34c0.77,0.44 1.24,1.26 1.24,2.14l0 14.68c0,0.54 0.18,0.94 0.51,1.13 0.76,0.44 1.7,0.44 2.46,0l13.95 -8.05c0.77,-0.44 1.24,-1.26 1.24,-2.14l0 -16.11c0,-0.88 -0.47,-1.69 -1.24,-2.13l-13.95 -8.06c-0.76,-0.44 -1.7,-0.44 -2.46,0l-13.95 8.06c-0.77,0.44 -1.24,1.25 -1.24,2.13 0,0.38 0.26,0.74 0.72,1.01z"/>
 </g>
</svg>
