<?xml version="1.0" encoding="UTF-8"?>
<!DOCTYPE svg PUBLIC "-//W3C//DTD SVG 1.1//EN" "http://www.w3.org/Graphics/SVG/1.1/DTD/svg11.dtd">
<!-- Creator: CorelDRAW 2020 (64-Bit) -->
<svg xmlns="http://www.w3.org/2000/svg" xml:space="preserve" width="1750px" height="720px" version="1.1" shape-rendering="geometricPrecision" text-rendering="geometricPrecision" image-rendering="optimizeQuality" fill-rule="evenodd" clip-rule="evenodd"
viewBox="0 0 1750 720"
 xmlns:xlink="http://www.w3.org/1999/xlink"
 xmlns:xodm="http://www.corel.com/coreldraw/odm/2003">
 <g id="Layer_x0020_1">
  <metadata id="CorelCorpID_0Corel-Layer"/>
  <g>
   <path fill="white" fill-rule="nonzero" d="M752.65 639l-6.08 1.59c-0.82,-2.8 -2.15,-5.02 -4.02,-6.65 -1.86,-1.62 -3.86,-2.44 -6.01,-2.44 -2.39,0 -4.33,0.83 -5.82,2.5 -1.51,1.69 -2.26,3.92 -2.26,6.73 0,2.48 0.81,5.06 2.4,7.74 0.99,1.69 3.39,4.32 7.17,7.88 3.94,3.68 6.69,7.11 8.24,10.3 1.57,3.19 2.35,6.32 2.35,9.36 0,3.24 -0.86,6.35 -2.57,9.33 -1.7,3.01 -4.02,5.36 -6.91,7.07 -2.89,1.72 -5.96,2.59 -9.2,2.59 -4.14,0 -7.71,-1.35 -10.74,-4.05 -3.01,-2.7 -5.19,-6.66 -6.51,-11.87l5.95 -2.09c0.94,3.99 2.46,6.95 4.58,8.88 2.1,1.93 4.54,2.91 7.29,2.91 3.15,0 5.83,-1.21 8.09,-3.61 2.25,-2.4 3.39,-5.35 3.39,-8.86 0,-2.59 -0.64,-5.11 -1.91,-7.57 -1.29,-2.46 -3.78,-5.41 -7.51,-8.85 -3.99,-3.74 -6.59,-6.62 -7.78,-8.62 -1.97,-3.31 -2.96,-6.82 -2.96,-10.5 0,-4.57 1.43,-8.33 4.32,-11.32 2.88,-2.97 6.45,-4.45 10.72,-4.45 3.59,0 6.79,1.17 9.6,3.54 2.8,2.35 4.86,5.85 6.18,10.46zm45.88 -14c8.66,0 15.87,2.94 21.62,8.83 5.76,5.9 8.64,13.34 8.64,22.35 0,10.95 -3.66,20.17 -10.96,27.63 -7.3,7.46 -16.41,11.19 -27.3,11.19 -9.28,0 -16.7,-2.86 -22.27,-8.6 -5.57,-5.74 -8.36,-13.25 -8.36,-22.53 0,-7.15 1.68,-13.73 5,-19.7 3.35,-5.99 7.98,-10.68 13.87,-14.08 5.92,-3.39 12.49,-5.09 19.76,-5.09zm-0.14 6.22c-6.15,0 -11.63,1.39 -16.45,4.18 -4.82,2.78 -8.64,6.73 -11.45,11.85 -2.82,5.11 -4.23,10.55 -4.23,16.34 0,4.9 1.02,9.3 3.06,13.18 2.05,3.89 4.86,6.86 8.45,8.91 3.6,2.06 7.84,3.1 12.71,3.1 5.76,0 11.11,-1.44 16.03,-4.33 4.93,-2.9 8.8,-6.91 11.61,-12.04 2.82,-5.12 4.22,-10.68 4.22,-16.64 0,-7.89 -2.67,-14.15 -8,-18.78 -4.42,-3.85 -9.75,-5.77 -15.95,-5.77zm77.89 -4.55l-0.79 6.5 -24.69 0 -2.85 21.82 24.66 0 -0.79 6.31 -24.7 0 -4.18 32.03 -6.34 0 8.69 -66.66 30.99 0zm4.86 0l38.4 0 -0.84 6.31 -16.15 0 -7.86 60.35 -6.51 0 7.87 -60.35 -15.75 0 0.84 -6.31zm40.53 0l6.26 0 8.97 49.48 25.02 -49.48 1.14 0 11.2 49.48 22.75 -49.48 6.69 0 -30.65 66.66 -1.09 0 -11.37 -50.23 -25.69 50.23 -1.13 0 -12.1 -66.66zm117.79 0l21.54 66.66 -6.61 0 -7.05 -21.82 -27.17 0 -12.16 21.82 -7.18 0 37.13 -66.66 1.5 0zm-2.09 13.96l-13.68 24.57 21.6 0 -7.92 -24.57zm43.1 -13.96l16.17 0c5.76,0 9.88,0.57 12.36,1.7 2.49,1.13 4.51,2.94 6.05,5.43 1.55,2.49 2.33,5.39 2.33,8.67 0,3.59 -0.91,6.93 -2.74,10.01 -1.82,3.08 -4.31,5.4 -7.46,6.95 -3.15,1.56 -7.29,2.33 -12.42,2.33l19.39 31.57 -7.3 0 -19.39 -31.57 -5.05 0 -4.12 31.57 -6.51 0 8.69 -66.66zm5.67 6.41l-2.89 22.18 7.42 0c5.49,0 9.09,-0.23 10.79,-0.68 2.82,-0.72 5.12,-2.15 6.86,-4.27 1.74,-2.13 2.61,-4.73 2.61,-7.81 0,-3.48 -1.21,-6 -3.65,-7.57 -1.86,-1.24 -5.22,-1.85 -10.07,-1.85l-11.07 0zm82.75 -6.41l-0.92 6.5 -28.81 0 -2.84 21.82 28.8 0 -0.83 6.31 -28.79 0 -3.36 25.71 28.86 0 -0.74 6.32 -35.45 0 8.69 -66.66 35.39 0zm37.44 0l13.75 0c8.71,0 15.38,1.19 20.02,3.56 4.65,2.37 8.39,6.03 11.23,11.02 2.85,4.96 4.27,10.63 4.27,17 0,6.81 -1.61,13.09 -4.82,18.86 -3.23,5.76 -7.18,9.9 -11.89,12.43 -4.7,2.52 -11.7,3.79 -21.02,3.79l-20.23 0 8.69 -66.66zm5.68 6.41l-7.01 53.75 5.62 0c8.64,0 14.37,-0.25 17.2,-0.73 4.3,-0.73 7.91,-2.15 10.84,-4.28 2.94,-2.12 5.45,-5.31 7.53,-9.57 2.1,-4.24 3.14,-8.86 3.14,-13.89 0,-5.28 -1.18,-9.9 -3.54,-13.87 -2.34,-3.96 -5.58,-6.91 -9.67,-8.88 -3.51,-1.68 -9.42,-2.53 -17.74,-2.53l-6.37 0zm96.37 -6.41l-0.91 6.5 -28.82 0 -2.83 21.82 28.8 0 -0.84 6.31 -28.78 0 -3.36 25.71 28.86 0 -0.75 6.32 -35.44 0 8.69 -66.66 35.38 0zm7.27 0l6.48 0 15.95 52.75 29.84 -52.75 7.12 0 -37.71 66.66 -1.52 0 -20.16 -66.66zm103.66 0l-0.91 6.5 -28.82 0 -2.83 21.82 28.8 0 -0.84 6.31 -28.78 0 -3.36 25.71 28.86 0 -0.75 6.32 -35.44 0 8.69 -66.66 35.38 0zm12.83 0l6.5 0 -7.86 60.34 27.69 0 -0.74 6.32 -34.28 0 8.69 -66.66zm72.29 -1.67c8.66,0 15.87,2.94 21.62,8.83 5.76,5.9 8.64,13.34 8.64,22.35 0,10.95 -3.66,20.17 -10.96,27.63 -7.3,7.46 -16.41,11.19 -27.31,11.19 -9.27,0 -16.69,-2.86 -22.26,-8.6 -5.56,-5.74 -8.36,-13.25 -8.36,-22.53 0,-7.15 1.67,-13.73 5,-19.7 3.35,-5.99 7.98,-10.68 13.87,-14.08 5.92,-3.39 12.49,-5.09 19.76,-5.09zm-0.14 6.22c-6.15,0 -11.63,1.39 -16.45,4.18 -4.82,2.78 -8.65,6.73 -11.45,11.85 -2.82,5.11 -4.23,10.55 -4.23,16.34 0,4.9 1.02,9.3 3.06,13.18 2.05,3.89 4.86,6.86 8.45,8.91 3.6,2.06 7.84,3.1 12.71,3.1 5.76,0 11.11,-1.44 16.03,-4.33 4.93,-2.9 8.8,-6.91 11.61,-12.04 2.82,-5.12 4.22,-10.68 4.22,-16.64 0,-7.89 -2.67,-14.15 -8,-18.78 -4.42,-3.85 -9.75,-5.77 -15.95,-5.77zm47.7 -4.55l17.5 0c5.78,0 9.93,0.56 12.45,1.67 2.51,1.13 4.53,2.91 6.04,5.39 1.5,2.46 2.27,5.36 2.27,8.72 0,4.38 -1.2,8.2 -3.59,11.45 -2.37,3.25 -5.39,5.46 -9.02,6.64 -2.64,0.88 -7.31,1.32 -14,1.32l-9.72 0 -4.11 31.47 -6.51 0 8.69 -66.66zm5.68 6.41l-2.9 22.18 8.91 0c5.99,0 10.14,-0.43 12.44,-1.3 2.32,-0.85 4.17,-2.33 5.57,-4.44 1.4,-2.1 2.11,-4.44 2.11,-7.01 0,-2.12 -0.48,-3.91 -1.44,-5.4 -0.95,-1.48 -2.28,-2.52 -3.97,-3.12 -1.67,-0.6 -4.76,-0.91 -9.27,-0.91l-11.45 0zm81.92 -6.41l-0.91 6.5 -28.82 0 -2.83 21.82 28.8 0 -0.84 6.31 -28.78 0 -3.36 25.71 28.86 0 -0.75 6.32 -35.44 0 8.68 -66.66 35.39 0zm13.99 0l16.17 0c5.76,0 9.88,0.57 12.36,1.7 2.49,1.13 4.51,2.94 6.05,5.43 1.55,2.49 2.33,5.39 2.33,8.67 0,3.59 -0.91,6.93 -2.74,10.01 -1.82,3.08 -4.31,5.4 -7.46,6.95 -3.15,1.56 -7.29,2.33 -12.42,2.33l19.39 31.57 -7.3 0 -19.39 -31.57 -5.05 0 -4.12 31.57 -6.51 0 8.69 -66.66zm5.67 6.41l-2.89 22.18 7.42 0c5.49,0 9.09,-0.23 10.79,-0.68 2.82,-0.72 5.12,-2.15 6.85,-4.27 1.75,-2.13 2.62,-4.73 2.62,-7.81 0,-3.48 -1.21,-6 -3.65,-7.57 -1.86,-1.24 -5.22,-1.85 -10.07,-1.85l-11.07 0z"/>
   <path id="1" fill="black" d="M756.96 697.66c-0.78,0.98 -1.6,1.92 -2.47,2.81 -2.19,2.24 -4.6,4.13 -7.23,5.69 -0.3,0.18 -0.6,0.35 -0.91,0.5 -2.4,1.34 -4.86,2.36 -7.37,3.07 -3.01,0.84 -6.03,1.27 -9.04,1.27 -3.94,0 -7.74,-0.69 -11.41,-2.07 -3.6,-1.37 -6.92,-3.4 -9.95,-6.11 -2.92,-2.6 -5.35,-5.67 -7.27,-9.18 -1.75,-3.19 -3.13,-6.75 -4.12,-10.69 -2.09,-8.37 2.84,-16.85 11.07,-19.22l4.61 -1.62c-0.66,-0.9 -1.25,-1.78 -1.77,-2.65 -0.22,-0.38 -0.43,-0.75 -0.62,-1.14 -1.45,-2.61 -2.55,-5.22 -3.28,-7.85 -0.91,-3.23 -1.37,-6.47 -1.37,-9.7 0,-4.22 0.71,-8.19 2.14,-11.94 1.48,-3.88 3.7,-7.36 6.68,-10.44 0.04,-0.05 0.09,-0.09 0.14,-0.14 2.95,-3.03 6.31,-5.32 10.07,-6.89 3.79,-1.57 7.79,-2.36 12.01,-2.36 3.65,0 7.18,0.63 10.59,1.88 3.27,1.2 6.34,3.02 9.23,5.45l0.03 -0.04c2.09,1.75 3.94,3.78 5.57,6.07 2.59,-2.26 5.44,-4.29 8.55,-6.08 0.01,-0.01 0.01,-0.01 0.02,-0.02l-0.02 -0.05c4.07,-2.33 8.53,-4.13 13.36,-5.38 4.74,-1.22 9.52,-1.83 14.33,-1.83 6.29,0 12.26,1.15 17.91,3.46 5.13,2.1 9.73,5.07 13.8,8.93 2.22,-6.34 8.25,-10.68 15.05,-10.67l0 -0.05 30.99 0c0.89,0 1.76,0.07 2.6,0.21 0.74,-0.1 1.49,-0.16 2.26,-0.16l0 -0.05 38.4 0c0.51,0 1.03,0.02 1.53,0.07 0.2,0 0.4,-0.01 0.6,-0.01l0 -0.06 6.26 0c8.34,0 15.2,6.39 15.93,14.55l0.24 1.33 3.57 -7.07c2.81,-5.56 8.42,-8.77 14.25,-8.77l0 -0.04 1.14 0c8.05,0 14.72,5.96 15.83,13.7l0.54 2.37 3.08 -6.7c2.68,-5.85 8.46,-9.31 14.5,-9.32l0 -0.05 6.69 0c8.83,0 16,7.16 16,16 0,0 0,0.01 0,0.01l4.32 -7.76c2.92,-5.24 8.35,-8.2 13.94,-8.2l0 -0.05 1.5 0c7.57,0 13.91,5.26 15.57,12.32l7.01 21.69 2.62 -20.07c1.04,-8.04 7.91,-13.9 15.81,-13.89l0 -0.05 16.17 0c3.38,0 6.56,0.21 9.53,0.61 3.58,0.5 6.71,1.35 9.38,2.56l0.01 -0.03c1.9,0.86 3.67,1.89 5.32,3.11 2.96,-3.82 7.58,-6.2 12.62,-6.2l0 -0.05 35.39 0c8.83,0 16,7.16 16,16 0,1.14 -0.12,2.26 -0.35,3.33l-0.75 5.36c-0.58,4.16 -2.72,7.73 -5.74,10.19 1.93,2.65 3.07,5.91 3.07,9.44 0,1.17 -0.12,2.31 -0.36,3.41l-0.66 4.96c-0.68,5.26 -3.86,9.59 -8.19,11.95 3.13,2.92 5.09,7.08 5.09,11.7 0,0.89 -0.07,1.75 -0.21,2.59l-0.66 5.6c-0.96,8.14 -7.88,14.12 -15.87,14.11l0 0.02 -35.45 0c-1.87,0 -3.67,-0.33 -5.34,-0.92 -1.74,0.62 -3.53,0.91 -5.32,0.91l0 0.01 -7.3 0c-5.95,0 -11.15,-3.26 -13.9,-8.08l-0.44 -0.71c-2.67,5.27 -8.14,8.74 -14.22,8.73l0 0.06 -6.51 0c-1.92,0 -3.76,-0.34 -5.47,-0.96 -0.14,0.05 -0.29,0.1 -0.43,0.15 -1.62,0.51 -3.27,0.76 -4.88,0.76l0 0.05 -6.61 0c-7.57,0 -13.92,-5.26 -15.58,-12.33l-3.06 -9.49 -6.24 0 -7.56 13.57c-2.91,5.24 -8.34,8.19 -13.94,8.2l0 0.05 -7.18 0c-5.97,0 -11.18,-3.27 -13.93,-8.12 -2.88,5.09 -8.25,8.06 -13.85,8.06l0 0.06 -1.09 0c-8.06,0 -14.72,-5.96 -15.84,-13.71l-1.38 -6.1 -5.65 11.06c-2.82,5.51 -8.4,8.68 -14.19,8.68l0 0.07 -1.13 0c-8.35,0 -15.2,-6.39 -15.94,-14.55l-4.22 -23.26 -3.1 23.87c-1.05,8.04 -7.92,13.89 -15.82,13.88l0 0.06 -6.51 0c-8.83,0 -16,-7.17 -16,-16 0,-1.16 0.13,-2.3 0.36,-3.39l1.68 -12.83c-0.79,0.12 -1.59,0.18 -2.4,0.18l0 0.01 -10.7 0 -2.36 18.09c-1.05,8.04 -7.92,13.89 -15.82,13.88l0 0.06 -6.34 0c-6.12,0 -11.43,-3.43 -14.12,-8.48 -3.39,2.48 -7.01,4.52 -10.89,6.1 -6.58,2.7 -13.61,4.05 -21.06,4.05 -6.53,0 -12.62,-1.09 -18.27,-3.27 -5.84,-2.26 -10.94,-5.62 -15.3,-10.07zm-4.31 -58.66l-6.08 1.59c-0.82,-2.8 -2.15,-5.02 -4.02,-6.65 -1.86,-1.62 -3.86,-2.44 -6.01,-2.44 -2.39,0 -4.33,0.83 -5.82,2.5 -1.51,1.69 -2.26,3.92 -2.26,6.73 0,2.48 0.81,5.06 2.4,7.74 0.99,1.69 3.39,4.32 7.17,7.88 3.94,3.68 6.69,7.11 8.24,10.3 1.57,3.19 2.35,6.32 2.35,9.36 0,3.24 -0.86,6.35 -2.57,9.33 -1.7,3.01 -4.02,5.36 -6.91,7.07 -2.89,1.72 -5.96,2.59 -9.2,2.59 -4.14,0 -7.71,-1.35 -10.74,-4.05 -3.01,-2.7 -5.19,-6.66 -6.51,-11.87l5.95 -2.09c0.94,3.99 2.46,6.95 4.58,8.88 2.1,1.93 4.54,2.91 7.29,2.91 3.15,0 5.83,-1.21 8.09,-3.61 2.25,-2.4 3.39,-5.35 3.39,-8.86 0,-2.59 -0.64,-5.11 -1.91,-7.57 -1.29,-2.46 -3.78,-5.41 -7.51,-8.85 -3.99,-3.74 -6.59,-6.62 -7.78,-8.62 -1.97,-3.31 -2.96,-6.82 -2.96,-10.5 0,-4.57 1.43,-8.33 4.32,-11.32 2.88,-2.97 6.45,-4.45 10.72,-4.45 3.59,0 6.79,1.17 9.6,3.54 2.8,2.35 4.86,5.85 6.18,10.46zm45.88 -14c8.66,0 15.87,2.94 21.62,8.83 5.76,5.9 8.64,13.34 8.64,22.35 0,10.95 -3.66,20.17 -10.96,27.63 -7.3,7.46 -16.41,11.19 -27.3,11.19 -9.28,0 -16.7,-2.86 -22.27,-8.6 -5.57,-5.74 -8.36,-13.25 -8.36,-22.53 0,-7.15 1.68,-13.73 5,-19.7 3.35,-5.99 7.98,-10.68 13.87,-14.08 5.92,-3.39 12.49,-5.09 19.76,-5.09zm-0.14 6.22c-6.15,0 -11.63,1.39 -16.45,4.18 -4.82,2.78 -8.64,6.73 -11.45,11.85 -2.82,5.11 -4.23,10.55 -4.23,16.34 0,4.9 1.02,9.3 3.06,13.18 2.05,3.89 4.86,6.86 8.45,8.91 3.6,2.06 7.84,3.1 12.71,3.1 5.76,0 11.11,-1.44 16.03,-4.33 4.93,-2.9 8.8,-6.91 11.61,-12.04 2.82,-5.12 4.22,-10.68 4.22,-16.64 0,-7.89 -2.67,-14.15 -8,-18.78 -4.42,-3.85 -9.75,-5.77 -15.95,-5.77zm77.89 -4.55l-0.79 6.5 -24.69 0 -2.85 21.82 24.66 0 -0.79 6.31 -24.7 0 -4.18 32.03 -6.34 0 8.69 -66.66 30.99 0zm4.86 0l38.4 0 -0.84 6.31 -16.15 0 -7.86 60.35 -6.51 0 7.87 -60.35 -15.75 0 0.84 -6.31zm40.53 0l6.26 0 8.97 49.48 25.02 -49.48 1.14 0 11.2 49.48 22.75 -49.48 6.69 0 -30.65 66.66 -1.09 0 -11.37 -50.23 -25.69 50.23 -1.13 0 -12.1 -66.66zm117.79 0l21.54 66.66 -6.61 0 -7.05 -21.82 -27.17 0 -12.16 21.82 -7.18 0 37.13 -66.66 1.5 0zm-2.09 13.96l-13.68 24.57 21.6 0 -7.92 -24.57zm43.1 -13.96l16.17 0c5.76,0 9.88,0.57 12.36,1.7 2.49,1.13 4.51,2.94 6.05,5.43 1.55,2.49 2.33,5.39 2.33,8.67 0,3.59 -0.91,6.93 -2.74,10.01 -1.82,3.08 -4.31,5.4 -7.46,6.95 -3.15,1.56 -7.29,2.33 -12.42,2.33l19.39 31.57 -7.3 0 -19.39 -31.57 -5.05 0 -4.12 31.57 -6.51 0 8.69 -66.66zm5.67 6.41l-2.89 22.18 7.42 0c5.49,0 9.09,-0.23 10.79,-0.68 2.82,-0.72 5.12,-2.15 6.86,-4.27 1.74,-2.13 2.61,-4.73 2.61,-7.81 0,-3.48 -1.21,-6 -3.65,-7.57 -1.86,-1.24 -5.22,-1.85 -10.07,-1.85l-11.07 0zm82.75 -6.41l-0.92 6.5 -28.81 0 -2.84 21.82 28.8 0 -0.83 6.31 -28.79 0 -3.36 25.71 28.86 0 -0.74 6.32 -35.45 0 8.69 -66.66 35.39 0zm37.44 0l13.75 0c8.71,0 15.38,1.19 20.02,3.56 4.65,2.37 8.39,6.03 11.23,11.02 2.85,4.96 4.27,10.63 4.27,17 0,6.81 -1.61,13.09 -4.82,18.86 -3.23,5.76 -7.18,9.9 -11.89,12.43 -4.7,2.52 -11.7,3.79 -21.02,3.79l-20.23 0 8.69 -66.66zm5.68 6.41l-7.01 53.75 5.62 0c8.64,0 14.37,-0.25 17.2,-0.73 4.3,-0.73 7.91,-2.15 10.84,-4.28 2.94,-2.12 5.45,-5.31 7.53,-9.57 2.1,-4.24 3.14,-8.86 3.14,-13.89 0,-5.28 -1.18,-9.9 -3.54,-13.87 -2.34,-3.96 -5.58,-6.91 -9.67,-8.88 -3.51,-1.68 -9.42,-2.53 -17.74,-2.53l-6.37 0zm96.37 -6.41l-0.91 6.5 -28.82 0 -2.83 21.82 28.8 0 -0.84 6.31 -28.78 0 -3.36 25.71 28.86 0 -0.75 6.32 -35.44 0 8.69 -66.66 35.38 0zm7.27 0l6.48 0 15.95 52.75 29.84 -52.75 7.12 0 -37.71 66.66 -1.52 0 -20.16 -66.66zm103.66 0l-0.91 6.5 -28.82 0 -2.83 21.82 28.8 0 -0.84 6.31 -28.78 0 -3.36 25.71 28.86 0 -0.75 6.32 -35.44 0 8.69 -66.66 35.38 0zm12.83 0l6.5 0 -7.86 60.34 27.69 0 -0.74 6.32 -34.28 0 8.69 -66.66zm72.29 -1.67c8.66,0 15.87,2.94 21.62,8.83 5.76,5.9 8.64,13.34 8.64,22.35 0,10.95 -3.66,20.17 -10.96,27.63 -7.3,7.46 -16.41,11.19 -27.31,11.19 -9.27,0 -16.69,-2.86 -22.26,-8.6 -5.56,-5.74 -8.36,-13.25 -8.36,-22.53 0,-7.15 1.67,-13.73 5,-19.7 3.35,-5.99 7.98,-10.68 13.87,-14.08 5.92,-3.39 12.49,-5.09 19.76,-5.09zm-0.14 6.22c-6.15,0 -11.63,1.39 -16.45,4.18 -4.82,2.78 -8.65,6.73 -11.45,11.85 -2.82,5.11 -4.23,10.55 -4.23,16.34 0,4.9 1.02,9.3 3.06,13.18 2.05,3.89 4.86,6.86 8.45,8.91 3.6,2.06 7.84,3.1 12.71,3.1 5.76,0 11.11,-1.44 16.03,-4.33 4.93,-2.9 8.8,-6.91 11.61,-12.04 2.82,-5.12 4.22,-10.68 4.22,-16.64 0,-7.89 -2.67,-14.15 -8,-18.78 -4.42,-3.85 -9.75,-5.77 -15.95,-5.77zm47.7 -4.55l17.5 0c5.78,0 9.93,0.56 12.45,1.67 2.51,1.13 4.53,2.91 6.04,5.39 1.5,2.46 2.27,5.36 2.27,8.72 0,4.38 -1.2,8.2 -3.59,11.45 -2.37,3.25 -5.39,5.46 -9.02,6.64 -2.64,0.88 -7.31,1.32 -14,1.32l-9.72 0 -4.11 31.47 -6.51 0 8.69 -66.66zm5.68 6.41l-2.9 22.18 8.91 0c5.99,0 10.14,-0.43 12.44,-1.3 2.32,-0.85 4.17,-2.33 5.57,-4.44 1.4,-2.1 2.11,-4.44 2.11,-7.01 0,-2.12 -0.48,-3.91 -1.44,-5.4 -0.95,-1.48 -2.28,-2.52 -3.97,-3.12 -1.67,-0.6 -4.76,-0.91 -9.27,-0.91l-11.45 0zm81.92 -6.41l-0.91 6.5 -28.82 0 -2.83 21.82 28.8 0 -0.84 6.31 -28.78 0 -3.36 25.71 28.86 0 -0.75 6.32 -35.44 0 8.68 -66.66 35.39 0zm13.99 0l16.17 0c5.76,0 9.88,0.57 12.36,1.7 2.49,1.13 4.51,2.94 6.05,5.43 1.55,2.49 2.33,5.39 2.33,8.67 0,3.59 -0.91,6.93 -2.74,10.01 -1.82,3.08 -4.31,5.4 -7.46,6.95 -3.15,1.56 -7.29,2.33 -12.42,2.33l19.39 31.57 -7.3 0 -19.39 -31.57 -5.05 0 -4.12 31.57 -6.51 0 8.69 -66.66zm5.67 6.41l-2.89 22.18 7.42 0c5.49,0 9.09,-0.23 10.79,-0.68 2.82,-0.72 5.12,-2.15 6.85,-4.27 1.75,-2.13 2.62,-4.73 2.62,-7.81 0,-3.48 -1.21,-6 -3.65,-7.57 -1.86,-1.24 -5.22,-1.85 -10.07,-1.85l-11.07 0zm-860.86 14.14c-3.34,0 -6.15,0.66 -8.45,1.99 -1.12,0.65 -2.12,1.41 -2.98,2.3l0 0c-0.91,0.94 -1.73,2.08 -2.47,3.43 -0.82,1.49 -1.4,2.88 -1.73,4.16 -0.01,0.02 -0.01,0.04 -0.02,0.06l0.02 0c-0.33,1.27 -0.5,2.75 -0.5,4.43 0,1.33 0.11,2.47 0.33,3.41 0.19,0.84 0.48,1.62 0.86,2.33 0.34,0.66 0.7,1.18 1.08,1.58 0.3,0.32 0.7,0.62 1.18,0.9 0.57,0.32 1.14,0.56 1.69,0.69 0.76,0.19 1.78,0.28 3.08,0.28 1.52,0 2.92,-0.18 4.21,-0.52 1.35,-0.37 2.61,-0.89 3.76,-1.56 1.16,-0.69 2.22,-1.52 3.16,-2.49 0.98,-1.02 1.81,-2.16 2.5,-3.43 0.01,-0.01 0.02,-0.03 0.03,-0.05l-0.03 -0.01c0.75,-1.36 1.31,-2.76 1.67,-4.18 0.01,-0.02 0.01,-0.04 0.02,-0.06l-0.02 0c0.37,-1.46 0.56,-3.04 0.56,-4.71 0,-1.83 -0.23,-3.28 -0.69,-4.36 -0.38,-0.89 -0.96,-1.67 -1.75,-2.36 -0.08,-0.07 -0.16,-0.14 -0.23,-0.21 -0.63,-0.51 -1.32,-0.91 -2.07,-1.18 -0.81,-0.29 -1.89,-0.44 -3.21,-0.44zm407.94 -36.55l13.75 0c5.25,0 10,0.38 14.28,1.14 4.93,0.88 9.26,2.27 12.99,4.17 3.66,1.86 7.02,4.28 10.07,7.25 1.61,-7.32 8.14,-12.52 15.58,-12.51l0 -0.05 35.38 0c1.26,0 2.48,0.14 3.65,0.42 1.21,-0.28 2.42,-0.42 3.62,-0.42l0 0 6.48 0c7.39,0 13.61,5.01 15.45,11.82l5 16.56 11.47 -20.26c2.93,-5.17 8.32,-8.07 13.87,-8.08l0 -0.04 7.12 0c1.58,0 3.1,0.23 4.54,0.65 1.39,-0.39 2.85,-0.6 4.35,-0.6l0 -0.05 35.38 0c2.31,0 4.5,0.49 6.48,1.37 1.96,-0.85 4.11,-1.32 6.35,-1.32l0 -0.05 6.5 0c8.84,0 16.01,7.16 16.01,16 0,1.16 -0.13,2.29 -0.37,3.39l-2.4 18.4c1.17,-4.15 2.83,-8.17 4.99,-12.04 2.39,-4.28 5.24,-8.1 8.54,-11.45 3.29,-3.34 7.07,-6.24 11.33,-8.69 0.01,-0.01 0.01,-0.01 0.02,-0.02l-0.02 -0.05c4.07,-2.33 8.53,-4.13 13.36,-5.38 4.75,-1.22 9.52,-1.83 14.33,-1.83 6.29,0 12.26,1.15 17.9,3.46 5.4,2.2 10.21,5.37 14.42,9.52 2.04,-6.66 8.24,-11.27 15.24,-11.26l0 -0.05 17.5 0c3.38,0 6.57,0.2 9.57,0.61 3.63,0.48 6.74,1.3 9.32,2.44 0.24,0.1 0.48,0.21 0.71,0.33 1.16,0.55 2.28,1.17 3.34,1.86 2.96,-3.22 7.19,-5.19 11.77,-5.19l0 -0.05 35.39 0c2.53,0 4.93,0.59 7.06,1.64 2.11,-1.03 4.47,-1.59 6.93,-1.59l0 -0.05 16.17 0c3.38,0 6.56,0.21 9.53,0.61 3.58,0.5 6.71,1.35 9.38,2.56l0.01 -0.03c2.77,1.25 5.28,2.88 7.51,4.89 2.07,1.86 3.9,4.09 5.51,6.68l0.03 -0.02c1.61,2.6 2.82,5.38 3.62,8.35 0.77,2.84 1.15,5.76 1.15,8.76 0,6.46 -1.66,12.52 -4.98,18.13 -1.69,2.86 -3.73,5.4 -6.11,7.61 -1,0.93 -2.07,1.8 -3.2,2.61l8.69 14.13c4.62,7.53 2.27,17.38 -5.25,22 -2.62,1.61 -5.52,2.37 -8.38,2.37l0 0.01 -7.3 0c-5.95,0 -11.15,-3.26 -13.9,-8.08l-0.44 -0.71c-2.67,5.27 -8.14,8.74 -14.22,8.73l0 0.06 -6.51 0c-2.5,0 -4.87,-0.58 -6.98,-1.6 -2.12,1.02 -4.48,1.59 -6.95,1.58l0 0.02 -35.44 0c-8.84,0 -16,-7.17 -16,-16 0,-1.16 0.12,-2.3 0.36,-3.39l1.82 -13.95c-0.1,0.02 -0.19,0.05 -0.28,0.07 -2.21,0.62 -4.82,1.06 -7.82,1.34 -1.86,0.18 -3.75,0.3 -5.67,0.37l-2.3 17.62c-1.05,8.04 -7.92,13.89 -15.82,13.88l0 0.06 -6.51 0c-6.28,0 -11.73,-3.63 -14.34,-8.91 -3.55,2.68 -7.37,4.85 -11.47,6.53 -6.58,2.7 -13.61,4.05 -21.07,4.05 -6.52,0 -12.61,-1.09 -18.27,-3.27 -2.89,-1.12 -5.6,-2.51 -8.14,-4.18 -2.97,3.56 -7.42,5.77 -12.28,5.76l0 0.02 -34.28 0c-2.28,0 -4.45,-0.48 -6.41,-1.34 -1.96,0.86 -4.12,1.33 -6.36,1.32l0 0.02 -35.44 0c-8.84,0 -16,-7.17 -16,-16 0,-1.16 0.12,-2.3 0.36,-3.39l0.6 -4.64 -9 15.9c-2.93,5.18 -8.32,8.08 -13.87,8.08l0 0.05 -1.52 0c-7.39,0 -13.61,-5.01 -15.45,-11.82l-4.3 -14.22c0.28,1.19 0.44,2.44 0.44,3.72 0,0.89 -0.08,1.75 -0.21,2.59l-0.67 5.6c-0.96,8.14 -7.87,14.12 -15.87,14.11l0 0.02 -35.44 0c-5.99,0 -11.2,-3.29 -13.95,-8.15 -1.26,0.87 -2.56,1.67 -3.92,2.39l0.02 0.03c-3.79,2.03 -8.31,3.52 -13.54,4.47 -4.66,0.84 -9.67,1.26 -15.05,1.26l-20.23 0c-8.83,0 -16,-7.17 -16,-16 0,-1.16 0.13,-2.3 0.36,-3.39l8.52 -65.33c1.05,-8.04 7.91,-13.9 15.81,-13.89l0 -0.05zm19.63 38.75l-2.76 21.15c0.85,-0.06 1.51,-0.14 1.99,-0.22 0.95,-0.16 1.84,-0.41 2.69,-0.74 0.7,-0.27 1.17,-0.5 1.4,-0.67 0.02,-0.02 0.05,-0.03 0.07,-0.05l-0.01 -0.01c0.18,-0.13 0.46,-0.44 0.84,-0.92 0.66,-0.83 1.23,-1.74 1.7,-2.71 0.01,-0.01 0.02,-0.03 0.03,-0.05l-0.03 -0.01c0.5,-1.01 0.87,-2.04 1.1,-3.09 0.23,-1.02 0.35,-2.27 0.35,-3.74 0,-1.32 -0.13,-2.49 -0.38,-3.49 -0.25,-0.98 -0.54,-1.73 -0.85,-2.25 0,-0.01 -0.01,-0.02 -0.01,-0.03l-0.05 0.03c-0.36,-0.62 -0.78,-1.13 -1.23,-1.55 -0.5,-0.46 -1.02,-0.82 -1.57,-1.08 -0.22,-0.11 -1.04,-0.27 -2.44,-0.46 -0.27,-0.04 -0.55,-0.08 -0.84,-0.11zm87.32 24.68c-0.6,0.45 -1.22,0.85 -1.88,1.21 1.81,1.69 3.24,3.79 4.11,6.17l-2.23 -7.38zm136.52 -9.69l-0.86 6.6 1.31 0c-0.27,-2.15 -0.42,-4.35 -0.45,-6.6zm54.49 -17.19c-3.34,0 -6.15,0.66 -8.45,1.99 -1.14,0.66 -2.14,1.43 -2.99,2.31 -0.96,0.99 -1.78,2.11 -2.46,3.35 -0.01,0.02 -0.02,0.04 -0.03,0.05l0.03 0.02c-0.82,1.49 -1.4,2.88 -1.73,4.16 -0.01,0.02 -0.01,0.04 -0.02,0.06l0.02 0c-0.33,1.27 -0.5,2.75 -0.5,4.43 0,1.33 0.11,2.47 0.33,3.41 0.19,0.84 0.48,1.62 0.86,2.33 0.34,0.66 0.7,1.19 1.08,1.58 0.3,0.32 0.7,0.62 1.18,0.9 0.57,0.32 1.14,0.56 1.7,0.69 0.74,0.19 1.77,0.28 3.07,0.28 1.52,0 2.92,-0.17 4.2,-0.52 1.36,-0.37 2.62,-0.89 3.77,-1.56 1.17,-0.69 2.22,-1.52 3.16,-2.49 0.97,-1.01 1.81,-2.16 2.51,-3.43 0,-0.01 0.01,-0.03 0.02,-0.05l-0.02 -0.01c0.73,-1.33 1.28,-2.74 1.66,-4.24 0.37,-1.47 0.56,-3.04 0.56,-4.71 0,-1.83 -0.23,-3.28 -0.69,-4.36 -0.38,-0.89 -0.96,-1.67 -1.75,-2.36 -0.08,-0.07 -0.16,-0.14 -0.23,-0.21 -0.64,-0.51 -1.33,-0.91 -2.07,-1.18 -0.81,-0.29 -1.89,-0.44 -3.21,-0.44z"/>
  </g>
  <g>
   <g>
    <path fill="white" fill-rule="nonzero" d="M1723.92 146.4l-45.24 0c0.26,4.09 1.59,7.39 4.04,9.94 2.42,2.55 5.27,3.83 8.52,3.83 5.8,0 10.36,-2.62 13.67,-7.87l17.34 5.78c-6.45,11.27 -16.46,16.92 -30.05,16.92 -10.01,0 -17.95,-3.03 -23.86,-9.08 -5.92,-6.08 -8.87,-14.22 -8.87,-24.46 0,-9.2 3.1,-16.94 9.33,-23.2 6.23,-6.25 13.89,-9.38 22.99,-9.38 9.16,0 16.82,3.28 22.95,9.86 6.13,6.58 9.18,14.78 9.18,24.64l0 3.02zm-45.24 -12.7l25.72 0c-1.79,-7.97 -5.87,-11.96 -12.25,-11.96 -3.68,0 -6.71,1.04 -9.13,3.13 -2.4,2.07 -3.83,5.02 -4.34,8.83z"/>
    <path id="1" fill="black" d="M1737.76 154.43c0.66,2.77 0.58,5.75 -0.38,8.65 -0.34,1.03 -0.78,2 -1.3,2.91l0.05 0.03c-4.69,8.17 -10.82,14.41 -18.42,18.68 -7.44,4.19 -15.95,6.3 -25.51,6.3 -6.89,0 -13.26,-1.12 -19.1,-3.33 -0.01,-0.01 -0.03,-0.02 -0.05,-0.03l-0.01 0.03c-6.13,-2.34 -11.51,-5.88 -16.13,-10.63 -4.56,-4.67 -7.97,-10.12 -10.22,-16.35 -2.15,-5.92 -3.22,-12.32 -3.22,-19.23 0,-6.59 1.17,-12.81 3.52,-18.65 2.36,-5.87 5.86,-11.14 10.5,-15.8 9.38,-9.41 20.82,-14.13 34.3,-14.13 6.76,0 13.07,1.26 18.94,3.78 5.84,2.51 11.08,6.25 15.7,11.21 4.47,4.8 7.85,10.27 10.13,16.4 2.24,6 3.36,12.37 3.36,19.11l0 3.02c0,2.93 -0.79,5.67 -2.16,8.03zm-13.84 -8.03l-45.24 0c0.26,4.09 1.59,7.39 4.04,9.94 2.42,2.55 5.27,3.83 8.52,3.83 5.8,0 10.36,-2.62 13.67,-7.87l17.34 5.78c-6.45,11.27 -16.46,16.92 -30.05,16.92 -10.01,0 -17.95,-3.03 -23.86,-9.08 -5.92,-6.08 -8.87,-14.22 -8.87,-24.46 0,-9.2 3.1,-16.94 9.33,-23.2 6.23,-6.25 13.89,-9.38 22.99,-9.38 9.16,0 16.82,3.28 22.95,9.86 6.13,6.58 9.18,14.78 9.18,24.64l0 3.02zm-45.24 -12.7l25.72 0c-1.79,-7.97 -5.87,-11.96 -12.25,-11.96 -3.68,0 -6.71,1.04 -9.13,3.13 -2.4,2.07 -3.83,5.02 -4.34,8.83z"/>
   </g>
   <g>
    <path fill="white" fill-rule="nonzero" d="M1625.41 75l19.06 0 0 98.64 -18.61 0 0 -10.9 -0.3 0c-5.52,7.97 -12.38,11.95 -20.6,11.95 -7.31,0 -13.54,-3.17 -18.71,-9.53 -5.17,-6.35 -7.74,-14.09 -7.74,-23.27 0,-9.15 2.67,-16.97 7.99,-23.45 5.35,-6.48 11.75,-9.71 19.19,-9.71 4.26,0 7.84,0.79 10.74,2.32 2.92,1.54 5.93,4.04 8.98,7.52l0 -43.57zm-14.07 52.49c-3.13,0 -6.05,1.44 -8.78,4.29 -2.72,2.85 -4.08,6.71 -4.08,11.57 0,3.89 1.21,7.21 3.6,9.96 2.4,2.75 5.32,4.14 8.75,4.14 4.06,0 7.47,-1.49 10.19,-4.47 2.72,-2.97 4.08,-6.68 4.08,-11.09 0,-3.86 -1.33,-7.21 -3.98,-10.09 -2.65,-2.87 -5.9,-4.31 -9.78,-4.31z"/>
    <path id="1" fill="black" d="M1625.41 59l19.06 0c8.84,0 16,7.16 16,16l0 98.64c0,8.83 -7.16,16 -16,16l-18.61 0c-2.46,0 -4.8,-0.56 -6.88,-1.56 -4.43,1.74 -9.1,2.61 -14.02,2.61 -6.2,0 -12,-1.38 -17.41,-4.13 -5.08,-2.59 -9.63,-6.37 -13.68,-11.33 -3.78,-4.66 -6.64,-9.87 -8.56,-15.65 -1.87,-5.63 -2.8,-11.53 -2.8,-17.69 0,-6.28 0.96,-12.23 2.87,-17.84 1.95,-5.71 4.89,-10.96 8.81,-15.73 4.11,-4.99 8.76,-8.8 13.92,-11.41 5.51,-2.79 11.37,-4.18 17.58,-4.18 1.26,0 2.49,0.05 3.72,0.15l0 -17.88c0,-8.84 7.16,-16 16,-16zm0 16l19.06 0 0 98.64 -18.61 0 0 -10.9 -0.3 0c-5.52,7.97 -12.38,11.95 -20.6,11.95 -7.31,0 -13.54,-3.17 -18.71,-9.53 -5.17,-6.35 -7.74,-14.09 -7.74,-23.27 0,-9.15 2.67,-16.97 7.99,-23.45 5.35,-6.48 11.75,-9.71 19.19,-9.71 4.26,0 7.84,0.79 10.74,2.32 2.92,1.54 5.93,4.04 8.98,7.52l0 -43.57zm-14.07 52.49c-3.13,0 -6.05,1.44 -8.78,4.29 -2.72,2.85 -4.08,6.71 -4.08,11.57 0,3.89 1.21,7.21 3.6,9.96 2.4,2.75 5.32,4.14 8.75,4.14 4.06,0 7.47,-1.49 10.19,-4.47 2.72,-2.97 4.08,-6.68 4.08,-11.09 0,-3.86 -1.33,-7.21 -3.98,-10.09 -2.65,-2.87 -5.9,-4.31 -9.78,-4.31zm-0.09 15.94c0.03,-0.01 0.05,-0.02 0.09,-0.03l0 -0.05 -0.33 0c0.1,0.03 0.18,0.06 0.24,0.08zm0.09 -0.03c0.03,-0.02 0.07,-0.03 0.12,-0.05l-0.12 0 0 -0.04 0.12 0.04c0.22,-0.07 0.54,-0.15 0.89,-0.23l0.5 -1.07c-0.16,-0.02 -0.45,-0.08 -0.76,-0.16l-0.75 0 0 1.42 -0.51 -0.19 0 0.18c0.07,0.02 0.13,0.04 0.18,0.05l0.33 0.05zm0.12 -0.05l0 0 0 0zm0.89 -0.23c0.55,-0.13 1.15,-0.25 1.41,-0.27l-0.13 -0.27c-0.26,-0.18 -0.57,-0.4 -0.73,-0.53 -0.01,0 -0.03,0 -0.05,0l-0.5 1.07zm1.41 -0.27c0.15,-0.01 0.19,0.02 0.04,0.09l0.23 -0.11c-0.09,-0.05 -0.24,-0.14 -0.4,-0.25l0.13 0.27zm-2.42 -1.16l0 0.2 -0.51 0 0 1.23 -0.19 -0.07 0.1 0.22c0.03,0.01 0.06,0.02 0.09,0.03l0.51 -1.61zm0.75 0.2c-0.25,-0.06 -0.52,-0.14 -0.75,-0.2 -0.09,-0.03 -0.17,-0.05 -0.24,-0.08l-0.18 0.08 0.05 -0.12c-0.06,-0.02 -0.1,-0.04 -0.14,-0.05l0 0.2 0.09 -0.03 -0.09 0.19 0 0.01 0 0 0 -0.01 0 -0.16 -0.43 0.17 0.43 0 -0.35 0.79 0.16 0.37 -0.28 -0.1 0.12 -0.27 -0.31 -0.7 0.23 -0.09 -0.24 0 0.32 -0.3c-0.14,0.05 -0.3,0.1 -0.39,0.13 -0.01,0.01 -0.02,0.01 -0.02,0.02l0.06 0.15 0.03 0 -0.02 0.02 0.03 0.07 -0.19 0.08 0.16 -0.15 -0.01 -0.02 -0.27 0c-0.2,0.14 -0.47,0.32 -0.57,0.36l0.06 0.06 0.63 -0.25 -0.45 0.41 0.31 0.29 0.52 0.19 -0.09 0.2 0.01 0.01c0.11,0.02 0.28,0.06 0.46,0.11l1.35 -1.38zm-0.99 -0.28c-0.05,-0.01 -0.09,-0.03 -0.13,-0.04l0.13 0.04zm-0.27 -0.09c-0.02,-0.01 -0.04,-0.03 -0.06,-0.03 -0.06,0.02 -0.17,0.06 -0.29,0.1l0.35 -0.07zm-0.76 0.22c-0.04,0.03 -0.12,0.09 -0.21,0.15l0.21 -0.15zm-0.78 0.51c-0.01,0.01 -0.03,0.02 -0.03,0.02 -0.01,0.01 -0.02,0.02 -0.03,0.03 0.01,0.02 0.01,0.03 0.01,0.05l0.11 -0.04 0.18 0.16 -0.14 0.12 0.45 0.17 0.43 0.39 0 0.01c0,0 0.01,0 0.01,0l-0.99 -0.91zm0.07 0.33l0.03 0.01 0 0.01c0.15,0.06 0.7,0.42 0.87,0.56l0.01 0 -0.91 -0.58zm-0.12 -0.23c0,0 0.01,0.01 0.01,0.01 0.03,0.06 0.08,0.16 0.11,0.22l0 0.01c0.01,0 0.02,0 0.03,0.01l-0.15 -0.25z"/>
   </g>
   <g>
    <path fill="white" fill-rule="nonzero" d="M1604.14 425l25.27 0 61.08 150 -32.53 0 -12.01 -29.49 -57.57 0 -11.78 29.49 -32.37 0 59.91 -150zm12.75 49.14l-17.67 44.23 35.69 0 -18.02 -44.23z"/>
    <path id="1" fill="black" d="M1604.14 409l25.27 0c6.99,0 12.93,4.48 15.11,10.73l60.78 149.27c3.31,8.18 -0.63,17.5 -8.81,20.81 -1.97,0.8 -4,1.17 -6,1.17l0 0.02 -32.53 0c-6.99,0 -12.93,-4.48 -15.11,-10.73l-7.64 -18.76 -36.06 0 -7.74 19.36c-2.47,6.26 -8.47,10.07 -14.81,10.07l0 0.06 -32.37 0c-8.84,0 -16,-7.17 -16,-16 0,-2.62 0.63,-5.09 1.75,-7.28l59.34 -148.6c2.48,-6.25 8.48,-10.06 14.82,-10.06l0 -0.06zm0 16l25.27 0 61.08 150 -32.53 0 -12.01 -29.49 -57.57 0 -11.78 29.49 -32.37 0 59.91 -150zm12.75 49.14l-17.67 44.23 35.69 0 -18.02 -44.23z"/>
   </g>
   <g>
    <path fill="white" fill-rule="nonzero" d="M1420.21 425l51.2 0c21.88,0 39.47,6.9 52.81,20.67 13.34,13.81 20.01,31.94 20.01,54.48 0,22.63 -6.86,40.76 -20.63,54.41 -13.77,13.61 -32.06,20.44 -54.92,20.44l-48.47 0 0 -150zm32.29 28.31l0 92.67 12.83 0c13.34,0 24.26,-3.63 32.84,-10.84 8.54,-7.26 12.83,-19.31 12.83,-36.23 0,-9.83 -2.07,-18.53 -6.2,-26.1 -4.14,-7.6 -10.1,-12.75 -17.94,-15.44 -7.84,-2.69 -15.33,-4.06 -22.43,-4.06l-11.93 0z"/>
    <path id="1" fill="black" d="M1420.21 409l51.2 0c12.9,0 24.71,2.1 35.42,6.3 10.94,4.28 20.55,10.7 28.83,19.24 0.02,0.03 0.04,0.05 0.06,0.07l0 0c8.24,8.52 14.41,18.36 18.51,29.53 4,10.89 6,22.89 6,36.01 0,13.2 -2.07,25.26 -6.22,36.2 -4.25,11.23 -10.64,21.08 -19.16,29.52 -0.01,0.02 -0.02,0.02 -0.03,0.04l0.03 0.03c-8.45,8.35 -18.36,14.65 -29.74,18.88 -11.05,4.12 -23.19,6.18 -36.43,6.18l-48.47 0c-8.84,0 -16.01,-7.17 -16.01,-16l0 -150c0,-8.84 7.17,-16 16.01,-16zm0 16l51.2 0c21.88,0 39.47,6.9 52.81,20.67 13.34,13.81 20.01,31.94 20.01,54.48 0,22.63 -6.86,40.76 -20.63,54.41 -13.77,13.61 -32.06,20.44 -54.92,20.44l-48.47 0 0 -150zm32.29 28.31l0 92.67 12.83 0c13.34,0 24.26,-3.63 32.84,-10.84 8.54,-7.26 12.83,-19.31 12.83,-36.23 0,-9.83 -2.07,-18.53 -6.2,-26.1 -4.14,-7.6 -10.1,-12.75 -17.94,-15.44 -7.84,-2.69 -15.33,-4.06 -22.43,-4.06l-11.93 0zm16 16.17l0 60.41c3.69,-0.22 7.04,-0.82 10.03,-1.81 3.6,-1.19 6.72,-2.89 9.35,-5.1l-0.02 -0.03c2.06,-1.75 3.69,-4.29 4.87,-7.61 1.51,-4.28 2.27,-9.75 2.27,-16.43 0,-7.19 -1.4,-13.35 -4.2,-18.47 -1.14,-2.09 -2.48,-3.8 -4.02,-5.13 -1.37,-1.18 -3.07,-2.12 -5.11,-2.81 -3.38,-1.17 -6.43,-2 -9.14,-2.48 -1.31,-0.24 -2.65,-0.42 -4.03,-0.54z"/>
   </g>
   <g>
    <path fill="white" fill-rule="nonzero" d="M1363.61 425l31.59 0 0 150 -31.27 0 -68.88 -97.12 0 97.12 -32.29 0 0 -150 31.9 0 68.95 96.41 0 -96.41z"/>
    <path id="1" fill="black" d="M1363.61 409l31.59 0c8.84,0 16.01,7.16 16.01,16l0 150c0,8.83 -7.17,16 -16.01,16l-31.27 0c-5.83,0 -10.92,-3.11 -13.72,-7.76l-39.16 -55.22 0 46.98c0,8.83 -7.17,16 -16,16l-32.29 0c-8.84,0 -16,-7.17 -16,-16l0 -150c0,-8.84 7.16,-16 16,-16l31.9 0c5.8,0 10.88,3.09 13.69,7.71l39.26 54.9 0 -46.61c0,-8.84 7.17,-16 16,-16zm0 16l31.59 0 0 150 -31.27 0 -68.88 -97.12 0 97.12 -32.29 0 0 -150 31.9 0 68.95 96.41 0 -96.41z"/>
   </g>
   <g>
    <path fill="white" fill-rule="nonzero" d="M1156.4 425l25.28 0 61.08 150 -32.53 0 -12.02 -29.49 -57.56 0 -11.78 29.49 -32.37 0 59.9 -150zm12.76 49.14l-17.67 44.23 35.69 0 -18.02 -44.23z"/>
    <path id="1" fill="black" d="M1156.4 409l25.28 0c6.99,0 12.93,4.48 15.11,10.73l60.78 149.27c3.31,8.18 -0.63,17.5 -8.81,20.81 -1.97,0.8 -4.01,1.17 -6,1.17l0 0.02 -32.53 0c-6.99,0 -12.93,-4.48 -15.11,-10.73l-7.64 -18.76 -36.06 0 -7.74 19.36c-2.48,6.26 -8.47,10.07 -14.81,10.07l0 0.06 -32.37 0c-8.84,0 -16,-7.17 -16,-16 0,-2.62 0.63,-5.09 1.74,-7.28l59.35 -148.6c2.48,-6.25 8.47,-10.06 14.81,-10.06l0 -0.06zm0 16l25.28 0 61.08 150 -32.53 0 -12.02 -29.49 -57.56 0 -11.78 29.49 -32.37 0 59.9 -150zm12.76 49.14l-17.67 44.23 35.69 0 -18.02 -44.23z"/>
   </g>
   <g>
    <path fill="white" fill-rule="nonzero" d="M964.41 425l49.49 0c15.06,0 26.95,3.94 35.69,11.85 8.73,7.92 13.1,18.65 13.1,32.1 0,7.69 -1.99,15.68 -6,23.99 -4.02,8.27 -11.43,14.78 -22.23,19.5l42.04 62.56 -37.05 0 -39.01 -58.04 -3.74 0 0 58.04 -32.29 0 0 -150zm32.29 26.68l0 39.08 7.1 0c17.12,0 25.66,-6.91 25.66,-20.68 0,-5.65 -2.22,-10.14 -6.67,-13.45 -4.44,-3.32 -10.64,-4.95 -18.52,-4.95l-7.57 0z"/>
    <path id="1" fill="black" d="M964.41 409l49.49 0c9.1,0 17.51,1.27 25.21,3.83 8.09,2.69 15.14,6.76 21.16,12.21 6.23,5.64 10.88,12.24 13.96,19.78 0.19,0.48 0.36,0.97 0.51,1.46 2.63,6.99 3.95,14.55 3.95,22.67 0,5.1 -0.66,10.32 -2,15.66 -1.25,5 -3.13,10.09 -5.63,15.27 -2.95,6.06 -7.1,11.45 -12.45,16.15 -0.53,0.46 -1.06,0.91 -1.61,1.36l32.75 48.73c4.9,7.32 2.94,17.23 -4.38,22.13 -2.73,1.83 -5.81,2.7 -8.87,2.7l0 0.05 -37.05 0c-6,0 -11.23,-3.3 -13.97,-8.19l-12.78 -19.02 0 11.21c0,8.83 -7.16,16 -16,16l-32.29 0c-8.84,0 -16,-7.17 -16,-16l0 -150c0,-8.84 7.16,-16 16,-16zm0 16l49.49 0c15.06,0 26.95,3.94 35.69,11.85 8.73,7.92 13.1,18.65 13.1,32.1 0,7.69 -1.99,15.68 -6,23.99 -4.02,8.27 -11.43,14.78 -22.23,19.5l42.04 62.56 -37.05 0 -39.01 -58.04 -3.74 0 0 58.04 -32.29 0 0 -150zm65.05 45.08c0,-5.65 -2.22,-10.14 -6.67,-13.45 -4.44,-3.32 -10.64,-4.95 -18.52,-4.95l-7.57 0 0 39.08 7.1 0c17.12,0 25.66,-6.91 25.66,-20.68zm-16.76 -0.98l0 4.29c0.13,-0.08 0.24,-0.16 0.35,-0.24 0.27,-0.22 0.41,-1.25 0.41,-3.07 0,-0.38 0.04,-0.51 0.02,-0.54 -0.04,-0.09 -0.04,0.06 -0.25,-0.1 -0.16,-0.12 -0.33,-0.23 -0.53,-0.34z"/>
   </g>
   <g>
    <path fill="white" fill-rule="nonzero" d="M907.11 425l32.3 0 0 150 -32.3 0 0 -150z"/>
    <path id="1" fill="black" d="M907.11 409l32.3 0c8.83,0 16,7.16 16,16l0 150c0,8.83 -7.17,16 -16,16l-32.3 0c-8.83,0 -16,-7.17 -16,-16l0 -150c0,-8.84 7.17,-16 16,-16zm0 16l32.3 0 0 150 -32.3 0 0 -150z"/>
   </g>
   <g>
    <path fill="white" fill-rule="nonzero" d="M731.1 425l38.49 0 28.16 89.86 28.2 -89.86 37.09 0 19.07 150 -30.69 0 -13.18 -105.54 -33.12 105.54 -14.7 0 -33.85 -106.48 -12.56 106.48 -31.32 0 18.41 -150z"/>
    <path id="1" fill="black" d="M731.1 409l38.49 0c7.51,0 13.82,5.17 15.54,12.15l12.63 40.33 12.94 -41.23c2.13,-6.84 8.44,-11.23 15.25,-11.23l0 -0.02 37.09 0c8.63,0 15.66,6.83 15.99,15.37l18.9 148.63c1.1,8.73 -5.08,16.71 -13.82,17.81 -0.67,0.09 -1.34,0.13 -2,0.13l0 0.06 -30.69 0c-8.33,0 -15.17,-6.37 -15.93,-14.5l-4.01 -32.13 -11.11 35.38c-2.13,6.84 -8.44,11.23 -15.25,11.23l0 0.02 -14.7 0c-7.67,0 -14.08,-5.4 -15.64,-12.6l-11 -34.61 -3.9 33.02c-0.93,8.16 -7.85,14.18 -15.87,14.17l0 0.02 -31.32 0c-8.84,0 -16,-7.17 -16,-16 0,-0.85 0.07,-1.68 0.19,-2.49l18.34 -149.45c0.99,-8.11 7.9,-14.06 15.88,-14.05l0 -0.01zm0 16l38.49 0 28.16 89.86 28.2 -89.86 37.09 0 19.07 150 -30.69 0 -13.18 -105.54 -33.12 105.54 -14.7 0 -33.85 -106.48 -12.56 106.48 -31.32 0 18.41 -150z"/>
   </g>
   <g>
    <path fill="white" fill-rule="nonzero" d="M1580.15 225l25.27 0 61.08 150 -32.53 0 -12.01 -29.48 -57.57 0 -11.78 29.48 -32.37 0 59.91 -150zm12.75 49.14l-17.67 44.23 35.69 0 -18.02 -44.23z"/>
    <path id="1" fill="black" d="M1580.15 209l25.27 0c6.99,0 12.94,4.48 15.11,10.73l60.78 149.27c3.32,8.18 -0.63,17.5 -8.81,20.81 -1.97,0.8 -4,1.18 -6,1.18l0 0.01 -32.53 0c-6.99,0 -12.93,-4.48 -15.11,-10.73l-7.64 -18.75 -36.06 0 -7.73 19.35c-2.48,6.26 -8.48,10.07 -14.82,10.07l0 0.06 -32.37 0c-8.83,0 -16,-7.16 -16,-16 0,-2.62 0.63,-5.09 1.75,-7.27l59.34 -148.6c2.48,-6.26 8.48,-10.07 14.82,-10.07l0 -0.06zm0 16l25.27 0 61.08 150 -32.53 0 -12.01 -29.48 -57.57 0 -11.78 29.48 -32.37 0 59.91 -150zm12.75 49.14l-17.67 44.23 35.69 0 -18.02 -44.23z"/>
   </g>
   <g>
    <path fill="white" fill-rule="nonzero" d="M1388.15 225l49.49 0c15.06,0 26.95,3.94 35.69,11.85 8.74,7.92 13.1,18.65 13.1,32.1 0,7.69 -1.98,15.68 -6,23.99 -4.02,8.27 -11.43,14.78 -22.23,19.5l42.04 62.56 -37.05 0 -39 -58.03 -3.75 0 0 58.03 -32.29 0 0 -150zm32.29 26.68l0 39.08 7.1 0c17.12,0 25.67,-6.91 25.67,-20.67 0,-5.66 -2.23,-10.14 -6.67,-13.46 -4.45,-3.32 -10.65,-4.95 -18.53,-4.95l-7.57 0z"/>
    <path id="1" fill="black" d="M1388.15 209l49.49 0c9.1,0 17.51,1.28 25.21,3.83 8.09,2.69 15.15,6.76 21.17,12.21 6.22,5.64 10.87,12.24 13.95,19.78 0.19,0.48 0.36,0.97 0.51,1.46 2.64,6.99 3.95,14.55 3.95,22.67 0,5.1 -0.66,10.32 -2,15.66 -1.25,5 -3.12,10.1 -5.63,15.27 -2.94,6.07 -7.1,11.45 -12.45,16.15 -0.53,0.46 -1.06,0.91 -1.61,1.36l32.75 48.74c4.9,7.31 2.94,17.22 -4.37,22.12 -2.73,1.83 -5.82,2.7 -8.88,2.7l0 0.05 -37.05 0c-6,0 -11.23,-3.3 -13.97,-8.19l-12.78 -19.01 0 11.2c0,8.84 -7.16,16 -16,16l-32.29 0c-8.84,0 -16,-7.16 -16,-16l0 -150c0,-8.84 7.16,-16 16,-16zm0 16l49.49 0c15.06,0 26.95,3.94 35.69,11.85 8.74,7.92 13.1,18.65 13.1,32.1 0,7.69 -1.98,15.68 -6,23.99 -4.02,8.27 -11.43,14.78 -22.23,19.5l42.04 62.56 -37.05 0 -39 -58.03 -3.75 0 0 58.03 -32.29 0 0 -150zm32.29 26.68l0 39.08 7.1 0c17.12,0 25.67,-6.91 25.67,-20.67 0,-5.66 -2.23,-10.14 -6.67,-13.46 -4.45,-3.32 -10.65,-4.95 -18.53,-4.95l-7.57 0zm16 17.43l0 4.28c0.13,-0.08 0.24,-0.16 0.35,-0.24 0.28,-0.22 0.41,-1.25 0.41,-3.06 0,-0.39 0.04,-0.52 0.03,-0.55 -0.05,-0.09 -0.05,0.06 -0.26,-0.1 -0.15,-0.11 -0.33,-0.23 -0.53,-0.33z"/>
   </g>
   <g>
    <path fill="white" fill-rule="nonzero" d="M1330.86 225l32.29 0 0 150 -32.29 0 0 -150z"/>
    <path id="1" fill="black" d="M1330.86 209l32.29 0c8.84,0 16,7.16 16,16l0 150c0,8.84 -7.16,16 -16,16l-32.29 0c-8.84,0 -16,-7.16 -16,-16l0 -150c0,-8.84 7.16,-16 16,-16zm0 16l32.29 0 0 150 -32.29 0 0 -150z"/>
   </g>
   <g>
    <path fill="white" fill-rule="nonzero" d="M1221.38 225l84.48 0 0 29.72 -52.19 0 0 30.19 52.19 0 0 29.25 -52.19 0 0 31.12 52.19 0 0 29.72 -84.48 0 0 -150z"/>
    <path id="1" fill="black" d="M1221.38 209l84.48 0c8.83,0 16,7.16 16,16l0 29.72c0,6.97 -4.46,12.9 -10.68,15.09 6.22,2.2 10.68,8.12 10.68,15.1l0 29.25c0,7.55 -5.24,13.88 -12.27,15.56 7.03,1.68 12.27,8.01 12.27,15.56l0 29.72c0,8.84 -7.17,16 -16,16l-84.48 0c-8.84,0 -16,-7.16 -16,-16l0 -150c0,-8.84 7.16,-16 16,-16zm0 16l84.48 0 0 29.72 -52.19 0 0 30.19 52.19 0 0 29.25 -52.19 0 0 31.12 52.19 0 0 29.72 -84.48 0 0 -150z"/>
   </g>
   <g>
    <path fill="white" fill-rule="nonzero" d="M1055.04 225l32.72 0 37.83 99.69 37.75 -99.69 33.04 0 -56.83 150 -27.84 0 -56.67 -150z"/>
    <path id="1" fill="black" d="M1055.04 209l32.72 0c7.24,0 13.36,4.81 15.33,11.42l22.49 59.24 22.83 -60.29c2.4,-6.39 8.48,-10.33 14.93,-10.33l0 -0.04 33.04 0c8.83,0 16,7.16 16,16 0,2.4 -0.53,4.68 -1.48,6.73l-56.41 148.9c-2.41,6.39 -8.48,10.33 -14.94,10.34l0 0.03 -27.84 0c-7.25,0 -13.38,-4.82 -15.34,-11.44l-56.27 -148.93c-3.11,-8.25 1.06,-17.46 9.31,-20.57 1.85,-0.7 3.76,-1.02 5.63,-1.02l0 -0.04zm0 16l32.72 0 37.83 99.69 37.75 -99.69 33.04 0 -56.83 150 -27.84 0 -56.67 -150z"/>
   </g>
   <g>
    <path fill="white" fill-rule="nonzero" d="M997.74 225l32.3 0 0 150 -32.3 0 0 -150z"/>
    <path id="1" fill="black" d="M997.74 209l32.3 0c8.83,0 16,7.16 16,16l0 150c0,8.84 -7.17,16 -16,16l-32.3 0c-8.83,0 -16,-7.16 -16,-16l0 -150c0,-8.84 7.17,-16 16,-16zm0 16l32.3 0 0 150 -32.3 0 0 -150z"/>
   </g>
   <g>
    <path fill="white" fill-rule="nonzero" d="M896.45 225l32.3 0 0 117.71 43.99 0 0 32.29 -76.29 0 0 -150z"/>
    <path id="1" fill="black" d="M896.45 209l32.3 0c8.83,0 16,7.16 16,16l0 101.71 27.99 0c8.84,0 16,7.16 16,16l0 32.29c0,8.84 -7.16,16 -16,16l-76.29 0c-8.83,0 -16,-7.16 -16,-16l0 -150c0,-8.84 7.17,-16 16,-16zm0 16l32.3 0 0 117.71 43.99 0 0 32.29 -76.29 0 0 -150z"/>
   </g>
   <g>
    <path fill="white" fill-rule="nonzero" d="M723.74 299.84c0,-21.69 7.17,-39.56 21.49,-53.7 14.33,-14.1 31.33,-21.15 50.96,-21.15 21.76,0 39.71,7.09 53.92,21.26 14.22,14.22 21.35,32.13 21.35,53.78 0,21.53 -7.05,39.4 -21.12,53.62 -14.06,14.21 -31.78,21.34 -53.12,21.34 -21.38,0 -38.95,-7.09 -52.79,-21.23 -13.79,-14.14 -20.69,-32.12 -20.69,-53.92zm74.01 -45.58c-12.31,-0.23 -22.22,4 -29.76,12.72 -7.55,8.73 -11.32,19.97 -11.32,33.73 0,13.04 3.85,23.82 11.55,32.4 7.65,8.57 17.37,12.84 29.11,12.84 12.31,0 22.26,-4.23 29.84,-12.69 7.59,-8.42 11.36,-19.59 11.36,-33.42 0,-13.65 -3.7,-24.58 -11.13,-32.86 -7.43,-8.26 -17.3,-12.49 -29.65,-12.72z"/>
    <path id="1" fill="black" d="M707.74 299.84c0,-26.11 8.77,-47.77 26.31,-65.08 8.65,-8.51 18.17,-14.93 28.55,-19.23 10.5,-4.36 21.7,-6.54 33.59,-6.54 12.85,0 24.72,2.15 35.6,6.44 11.05,4.36 20.9,10.86 29.57,19.51 0.01,0.01 0.02,0.02 0.03,0.03l0.04 -0.03c8.58,8.59 15.09,18.44 19.5,29.54 4.35,10.95 6.53,22.8 6.53,35.55 0,12.73 -2.14,24.52 -6.41,35.35 -4.32,10.98 -10.79,20.82 -19.4,29.52 -8.56,8.66 -18.31,15.18 -29.21,19.56 -10.82,4.35 -22.57,6.53 -35.22,6.53 -12.69,0 -24.4,-2.17 -35.16,-6.5 -10.87,-4.37 -20.54,-10.89 -29,-19.54 -0.02,-0.02 -0.04,-0.04 -0.06,-0.06l0 0c-8.45,-8.66 -14.79,-18.51 -19.02,-29.53 -4.16,-10.83 -6.24,-22.68 -6.24,-35.52zm16 0c0,-21.69 7.17,-39.56 21.49,-53.7 14.33,-14.1 31.33,-21.15 50.96,-21.15 21.76,0 39.71,7.09 53.92,21.26 14.22,14.22 21.35,32.13 21.35,53.78 0,21.53 -7.05,39.4 -21.12,53.62 -14.06,14.21 -31.78,21.34 -53.12,21.34 -21.38,0 -38.95,-7.09 -52.79,-21.23 -13.79,-14.14 -20.69,-32.12 -20.69,-53.92zm74.01 -45.58c-12.31,-0.23 -22.22,4 -29.76,12.72 -7.55,8.73 -11.32,19.97 -11.32,33.73 0,13.04 3.85,23.82 11.55,32.4 7.65,8.57 17.37,12.84 29.11,12.84 12.31,0 22.26,-4.23 29.84,-12.69 7.59,-8.42 11.36,-19.59 11.36,-33.42 0,-13.65 -3.7,-24.58 -11.13,-32.86 -7.43,-8.26 -17.3,-12.49 -29.65,-12.72zm-0.25 15.94c-3.87,-0.08 -7.26,0.51 -10.17,1.75 -2.7,1.15 -5.12,2.98 -7.28,5.47 -2.4,2.78 -4.21,5.98 -5.43,9.6 -1.3,3.89 -1.95,8.45 -1.95,13.69 0,8.97 2.47,16.2 7.42,21.71 0.22,0.24 0.42,0.48 0.62,0.73 2.09,2.18 4.41,3.84 6.96,4.96 2.78,1.23 6,1.84 9.66,1.84 4.04,0 7.53,-0.62 10.44,-1.86 2.84,-1.21 5.35,-3.03 7.53,-5.46 0.01,-0.01 0.02,-0.02 0.03,-0.03l-0.03 -0.03c2.33,-2.58 4.08,-5.62 5.26,-9.1 1.31,-3.86 1.97,-8.41 1.97,-13.63 0,-5.13 -0.64,-9.57 -1.9,-13.32 -1.15,-3.39 -2.85,-6.34 -5.1,-8.85 -2.17,-2.41 -4.62,-4.2 -7.36,-5.38 -3.09,-1.32 -6.65,-2.02 -10.67,-2.09z"/>
   </g>
   <g>
    <path fill="white" fill-rule="nonzero" d="M1385.79 99.84c0,-21.68 7.17,-39.55 21.5,-53.69 14.32,-14.1 31.32,-21.15 50.95,-21.15 21.76,0 39.71,7.09 53.92,21.26 14.22,14.22 21.35,32.13 21.35,53.77 0,21.54 -7.05,39.41 -21.12,53.63 -14.06,14.21 -31.78,21.34 -53.12,21.34 -21.38,0 -38.95,-7.09 -52.78,-21.23 -13.8,-14.14 -20.7,-32.13 -20.7,-53.93zm74.01 -45.57c-12.31,-0.23 -22.22,4 -29.76,12.72 -7.55,8.73 -11.32,19.97 -11.32,33.73 0,13.04 3.85,23.82 11.55,32.4 7.66,8.57 17.37,12.84 29.11,12.84 12.31,0 22.26,-4.23 29.84,-12.69 7.59,-8.43 11.36,-19.59 11.36,-33.43 0,-13.64 -3.7,-24.58 -11.13,-32.85 -7.43,-8.27 -17.3,-12.5 -29.65,-12.72z"/>
    <path id="1" fill="black" d="M1369.79 99.84c0,-12.82 2.19,-24.69 6.56,-35.61 4.41,-11 10.99,-20.82 19.75,-29.46 8.65,-8.52 18.18,-14.93 28.55,-19.23 10.5,-4.36 21.7,-6.54 33.59,-6.54 12.85,0 24.72,2.14 35.6,6.44 11.05,4.35 20.9,10.86 29.57,19.51 0.02,0.01 0.02,0.02 0.04,0.03l0.03 -0.03c8.59,8.59 15.09,18.43 19.5,29.54 4.35,10.95 6.53,22.8 6.53,35.54 0,12.74 -2.14,24.53 -6.41,35.37 -4.32,10.97 -10.79,20.81 -19.39,29.51 -8.57,8.66 -18.32,15.18 -29.22,19.56 -10.82,4.35 -22.57,6.53 -35.22,6.53 -12.69,0 -24.4,-2.17 -35.16,-6.5 -10.87,-4.38 -20.54,-10.89 -29,-19.54 -0.02,-0.02 -0.04,-0.04 -0.06,-0.07l0 0c-8.38,-8.58 -14.7,-18.43 -18.96,-29.52 0,0 0,-0.01 -0.01,-0.02l-0.05 0.02c-4.16,-10.83 -6.24,-22.68 -6.24,-35.53zm16 0c0,-21.68 7.17,-39.55 21.5,-53.69 14.32,-14.1 31.32,-21.15 50.95,-21.15 21.76,0 39.71,7.09 53.92,21.26 14.22,14.22 21.35,32.13 21.35,53.77 0,21.54 -7.05,39.41 -21.12,53.63 -14.06,14.21 -31.78,21.34 -53.12,21.34 -21.38,0 -38.95,-7.09 -52.78,-21.23 -13.8,-14.14 -20.7,-32.13 -20.7,-53.93zm74.01 -45.57c-12.31,-0.23 -22.22,4 -29.76,12.72 -7.55,8.73 -11.32,19.97 -11.32,33.73 0,13.04 3.85,23.82 11.55,32.4 7.66,8.57 17.37,12.84 29.11,12.84 12.31,0 22.26,-4.23 29.84,-12.69 7.59,-8.43 11.36,-19.59 11.36,-33.43 0,-13.64 -3.7,-24.58 -11.13,-32.85 -7.43,-8.27 -17.3,-12.5 -29.65,-12.72zm-0.25 15.93c-3.87,-0.07 -7.26,0.52 -10.17,1.76 -2.7,1.15 -5.12,2.98 -7.28,5.47 -2.4,2.78 -4.21,5.98 -5.43,9.6 -1.3,3.88 -1.95,8.45 -1.95,13.69 0,4.71 0.64,8.87 1.93,12.5l0.02 0c1.25,3.51 3.08,6.6 5.47,9.27 2.25,2.52 4.78,4.39 7.58,5.63 2.78,1.22 6,1.84 9.66,1.84 4.05,0 7.53,-0.62 10.44,-1.86 2.84,-1.21 5.35,-3.03 7.53,-5.46 0.01,-0.01 0.02,-0.02 0.03,-0.03l-0.03 -0.03c2.33,-2.59 4.08,-5.62 5.26,-9.1 1.31,-3.86 1.97,-8.41 1.97,-13.64 0,-5.12 -0.63,-9.56 -1.9,-13.31 -1.15,-3.39 -2.85,-6.34 -5.1,-8.85 -2.17,-2.41 -4.62,-4.2 -7.36,-5.38 -3.09,-1.32 -6.65,-2.02 -10.67,-2.1z"/>
   </g>
   <g>
    <path fill="white" fill-rule="nonzero" d="M1351.69 58.69l-20.91 19.57c-4.36,-7.55 -9.78,-13.2 -16.23,-16.92 -6.41,-3.76 -13.17,-5.61 -20.22,-5.61 -11.42,0 -21.32,4.32 -29.71,13.01 -8.42,8.65 -12.63,18.85 -12.63,30.65 0,12.52 4.21,23.1 12.63,31.83 8.39,8.69 18.52,13.05 30.39,13.05 6.45,0 12.63,-1.63 18.63,-4.89 5.95,-3.27 10.73,-9.37 14.37,-18.33l-34.59 0 0 -28.45 67.37 0 0 18.89c0,9.71 -3.34,20.15 -10.01,31.3 -6.64,11.19 -15.44,19.31 -26.33,24.47 -10.89,5.16 -21.89,7.74 -33.01,7.74 -20.14,0 -37.14,-7.29 -50.98,-21.89 -13.85,-14.61 -20.79,-32.66 -20.79,-54.17 0,-20.38 7.13,-37.79 21.4,-52.24 14.26,-14.46 31.41,-21.7 51.51,-21.7 25.61,0 45.34,11.23 59.11,33.69z"/>
    <path id="1" fill="black" d="M1361.72 71.1l-5.87 5.5 4.94 0c8.84,0 16,7.16 16,16l0 18.89c0,6.41 -1.1,13.08 -3.31,19.99 -2.04,6.34 -5.02,12.82 -8.97,19.42l0.02 0.01c-4.11,6.93 -8.93,12.95 -14.45,18.06 -5.6,5.2 -11.88,9.44 -18.82,12.73 -6.49,3.07 -13.03,5.39 -19.6,6.93 -6.75,1.58 -13.48,2.37 -20.22,2.37 -12.19,0 -23.57,-2.26 -34.1,-6.78 -10.54,-4.52 -20.02,-11.23 -28.44,-20.11 -8.35,-8.81 -14.66,-18.74 -18.9,-29.81 -4.22,-10.98 -6.33,-22.77 -6.33,-35.36 0,-12.2 2.2,-23.67 6.6,-34.41 4.36,-10.64 10.83,-20.32 19.42,-29.02 8.61,-8.72 18.19,-15.32 28.76,-19.77 10.65,-4.49 22.03,-6.74 34.13,-6.74 15.57,0 29.54,3.51 41.88,10.55 12.24,6.98 22.53,17.25 30.85,30.82 4.22,6.92 2.55,15.78 -3.59,20.73zm-10.03 -12.41l-20.91 19.57c-4.36,-7.55 -9.78,-13.2 -16.23,-16.92 -6.41,-3.76 -13.17,-5.61 -20.22,-5.61 -11.42,0 -21.32,4.32 -29.71,13.01 -8.42,8.65 -12.63,18.85 -12.63,30.65 0,12.52 4.21,23.1 12.63,31.83 8.39,8.69 18.52,13.05 30.39,13.05 6.45,0 12.63,-1.63 18.63,-4.89 5.95,-3.27 10.73,-9.37 14.37,-18.33l-34.59 0 0 -28.45 67.37 0 0 18.89c0,9.71 -3.34,20.15 -10.01,31.3 -6.64,11.19 -15.44,19.31 -26.33,24.47 -10.89,5.16 -21.89,7.74 -33.01,7.74 -20.14,0 -37.14,-7.29 -50.98,-21.89 -13.85,-14.61 -20.79,-32.66 -20.79,-54.17 0,-20.38 7.13,-37.79 21.4,-52.24 14.26,-14.46 31.41,-21.7 51.51,-21.7 25.61,0 45.34,11.23 59.11,33.69zm-42.9 17.91c-0.72,-0.54 -1.44,-1.02 -2.18,-1.45 -0.04,-0.02 -0.08,-0.04 -0.12,-0.07l0 0.01c-1.97,-1.15 -3.99,-2.02 -6.04,-2.58 -1.87,-0.52 -3.92,-0.78 -6.12,-0.78 -3.56,0 -6.76,0.62 -9.62,1.87 -3,1.31 -5.87,3.38 -8.59,6.2 -0.03,0.04 -0.07,0.07 -0.11,0.11 -2.77,2.85 -4.81,5.87 -6.11,9.04 -1.27,3.08 -1.91,6.56 -1.91,10.44 0,4.33 0.66,8.15 1.97,11.46 1.32,3.31 3.37,6.41 6.16,9.31 0.43,0.44 0.86,0.86 1.3,1.27 0,-0.13 0,-0.25 0,-0.38l0 -28.45c0,-8.84 7.16,-16 16,-16l15.37 0z"/>
   </g>
   <g>
    <path fill="white" fill-rule="nonzero" d="M1133.32 25l25.27 0 61.08 150 -32.53 0 -12.01 -29.49 -57.57 0 -11.78 29.49 -32.37 0 59.91 -150zm12.75 49.14l-17.67 44.23 35.69 0 -18.02 -44.23z"/>
    <path id="1" fill="black" d="M1133.32 9l25.27 0c6.99,0 12.94,4.48 15.11,10.73l60.78 149.27c3.31,8.18 -0.63,17.5 -8.81,20.81 -1.97,0.8 -4,1.17 -6,1.17l0 0.02 -32.53 0c-6.99,0 -12.93,-4.49 -15.11,-10.73l-7.64 -18.76 -36.06 0 -7.73 19.36c-2.48,6.25 -8.48,10.06 -14.82,10.07l0 0.06 -32.37 0c-8.83,0 -16,-7.17 -16,-16 0,-2.62 0.63,-5.09 1.75,-7.28l59.34 -148.6c2.48,-6.25 8.48,-10.06 14.82,-10.06l0 -0.06zm0 16l25.27 0 61.08 150 -32.53 0 -12.01 -29.49 -57.57 0 -11.78 29.49 -32.37 0 59.91 -150zm12.75 49.14l-17.67 44.23 35.69 0 -18.02 -44.23z"/>
   </g>
   <g>
    <path fill="white" fill-rule="nonzero" d="M1016.12 25l32.29 0 0 150 -32.29 0 0 -150z"/>
    <path id="1" fill="black" d="M1016.12 9l32.29 0c8.84,0 16,7.16 16,16l0 150c0,8.83 -7.16,16 -16,16l-32.29 0c-8.84,0 -16,-7.17 -16,-16l0 -150c0,-8.84 7.16,-16 16,-16zm0 16l32.29 0 0 150 -32.29 0 0 -150z"/>
   </g>
   <g>
    <path fill="white" fill-rule="nonzero" d="M873.18 25l32.29 0 0 57.8 53.35 0 0 -57.8 32.3 0 0 150 -32.3 0 0 -59.67 -53.35 0 0 59.67 -32.29 0 0 -150z"/>
    <path id="1" fill="black" d="M873.18 9l32.29 0c8.84,0 16,7.16 16,16l0 41.8 21.35 0 0 -41.8c0,-8.84 7.17,-16 16,-16l32.3 0c8.83,0 16,7.16 16,16l0 150c0,8.83 -7.17,16 -16,16l-32.3 0c-8.83,0 -16,-7.17 -16,-16l0 -43.67 -21.35 0 0 43.67c0,8.83 -7.16,16 -16,16l-32.29 0c-8.84,0 -16.01,-7.17 -16.01,-16l0 -150c0,-8.84 7.17,-16 16.01,-16zm0 16l32.29 0 0 57.8 53.35 0 0 -57.8 32.3 0 0 150 -32.3 0 0 -59.67 -53.35 0 0 59.67 -32.29 0 0 -150z"/>
   </g>
   <g>
    <path fill="white" fill-rule="nonzero" d="M747.32 25l100.85 0 0 31.82 -34.39 0 0 118.18 -32.3 0 0 -118.18 -34.16 0 0 -31.82z"/>
    <path id="1" fill="black" d="M747.32 9l100.85 0c8.84,0 16.01,7.16 16.01,16l0 31.82c0,8.84 -7.17,16 -16.01,16l-18.39 0 0 102.18c0,8.83 -7.17,16 -16,16l-32.3 0c-8.83,0 -16,-7.17 -16,-16l0 -102.18 -18.16 0c-8.84,0 -16,-7.16 -16,-16l0 -31.82c0,-8.84 7.16,-16 16,-16zm0 16l100.85 0 0 31.82 -34.39 0 0 118.18 -32.3 0 0 -118.18 -34.16 0 0 -31.82z"/>
   </g>
  </g>
  <g>
   <path fill="white" d="M25 210.27c0,-13 6.93,-25.01 18.19,-31.5l257.89 -148.9c11.25,-6.5 25.12,-6.5 36.37,0l257.9 148.9c11.25,6.49 18.18,18.5 18.18,31.5l0 297.79c0,12.99 -6.93,25 -18.18,31.5l-257.9 148.89c-11.25,6.5 -25.12,6.5 -36.37,0l-257.89 -148.89c-11.26,-6.5 -18.19,-18.51 -18.19,-31.5l0 -297.79z"/>
   <path id="1" fill="black" d="M9 210.27c0,-9.31 2.51,-18.31 7.06,-26.19 4.48,-7.76 11.02,-14.4 19.14,-19.1l-0.01 -0.03 257.89 -148.89c8.15,-4.71 17.19,-7.06 26.19,-7.06 8.99,0 18.03,2.35 26.18,7.06 0.28,0.16 0.56,0.33 0.82,0.51l257.02 148.38c8.14,4.7 14.69,11.35 19.18,19.13 0.21,0.36 0.4,0.72 0.58,1.08 4.18,7.63 6.48,16.24 6.48,25.11l0 297.79c0,9.26 -2.51,18.24 -7.06,26.12 -0.01,0.02 -0.01,0.03 -0.02,0.05l0.02 0.02c-4.49,7.77 -11.04,14.42 -19.18,19.12l-257.85 148.87 0.01 0.03c-8.15,4.7 -17.19,7.06 -26.18,7.06 -9,0 -18.04,-2.36 -26.19,-7.06l-257.89 -148.9c-0.35,-0.2 -0.69,-0.41 -1.01,-0.64 -7.65,-4.65 -13.83,-11.05 -18.12,-18.48 -0.21,-0.36 -0.4,-0.72 -0.57,-1.09 -4.19,-7.63 -6.49,-16.24 -6.49,-25.1l0 -297.79zm16 0c0,-13 6.93,-25.01 18.19,-31.5l257.89 -148.9c11.25,-6.5 25.12,-6.5 36.37,0l257.9 148.9c11.25,6.49 18.18,18.5 18.18,31.5l0 297.79c0,12.99 -6.93,25 -18.18,31.5l-257.9 148.89c-11.25,6.5 -25.12,6.5 -36.37,0l-257.89 -148.89c-11.26,-6.5 -18.19,-18.51 -18.19,-31.5l0 -297.79z"/>
  </g>
  <path fill="#323232" d="M62.84 413.76l-7.55 -4.36c-3.76,-2.17 -6.08,-6.19 -6.08,-10.53l0 -79.41c0,-4.35 2.32,-8.36 6.08,-10.53l7.55 -4.36 -7.55 -4.36c-3.76,-2.18 -6.08,-6.19 -6.08,-10.53l0 -79.42c0,-4.34 2.32,-8.35 6.08,-10.52l68.77 -39.71c3.76,-2.17 8.4,-2.17 12.16,0l7.55 4.36 0 -8.72c0,-4.34 2.32,-8.36 6.08,-10.53l68.78 -39.71c3.76,-2.17 8.39,-2.17 12.15,0l7.56 4.37 0 -8.73c0,-4.34 2.31,-8.35 6.08,-10.52l68.77 -39.71c3.76,-2.17 8.39,-2.17 12.16,0l68.77 39.71c3.76,2.17 6.08,6.18 6.08,10.52l0 8.73 7.55 -4.37c3.76,-2.17 8.4,-2.17 12.16,0l68.77 39.71c3.76,2.17 6.08,6.19 6.08,10.53l0 8.72 7.55 -4.36c3.76,-2.17 8.4,-2.17 12.16,0l68.77 39.71c3.76,2.17 6.08,6.18 6.08,10.52l0 79.42c0,4.34 -2.32,8.35 -6.08,10.53l-7.55 4.36 7.55 4.36c3.76,2.17 6.08,6.18 6.08,10.53l0 79.41c0,4.34 -2.32,8.36 -6.08,10.53l-7.55 4.36 7.55 4.36c3.76,2.17 6.08,6.18 6.08,10.53l0 79.41c0,4.34 -2.32,8.36 -6.08,10.53l-68.77 39.7c-3.76,2.18 -8.4,2.18 -12.16,0l-7.55 -4.36 0 8.72c0,4.35 -2.32,8.36 -6.08,10.53l-68.77 39.71c-3.76,2.17 -8.4,2.17 -12.16,0l-7.55 -4.36 0 8.72c0,4.34 -2.32,8.36 -6.08,10.53l-68.77 39.7c-3.77,2.18 -8.4,2.18 -12.16,0l-68.77 -39.7c-3.77,-2.17 -6.08,-6.19 -6.08,-10.53l0 -8.72 -7.56 4.36c-3.76,2.17 -8.39,2.17 -12.15,0l-68.78 -39.71c-3.76,-2.17 -6.08,-6.18 -6.08,-10.53l0 -8.72 -7.55 4.36c-3.76,2.18 -8.4,2.18 -12.16,0l-68.77 -39.7c-3.76,-2.17 -6.08,-6.19 -6.08,-10.53l0 -79.41c0,-4.35 2.32,-8.36 6.08,-10.53l7.55 -4.36z"/>
  <path fill="#464646" d="M394.12 627.78l-68.77 39.7c-3.77,2.18 -8.4,2.18 -12.16,0l-68.77 -39.7c-3.77,-2.17 -6.08,-6.19 -6.08,-10.53l0 -79.41c0,-4.35 2.31,-8.36 6.08,-10.53l7.55 -4.36 61.22 35.34c3.76,2.18 8.39,2.18 12.16,0l61.21 -35.34 7.56 4.36c3.76,2.17 6.08,6.18 6.08,10.53l0 79.41c0,4.34 -2.32,8.36 -6.08,10.53z"/>
  <path fill="#464646" d="M394.12 518.59l-68.77 39.7c-3.77,2.18 -8.4,2.18 -12.16,0l-68.77 -39.7c-3.77,-2.17 -6.08,-6.19 -6.08,-10.53l0 -79.41c0,-4.35 2.31,-8.36 6.08,-10.53l7.55 -4.36 61.22 35.34c3.76,2.17 8.39,2.17 12.16,0l61.21 -35.34 7.56 4.36c3.76,2.17 6.08,6.18 6.08,10.53l0 79.41c0,4.34 -2.32,8.36 -6.08,10.53z"/>
  <path fill="#464646" d="M494.76 562.65c0,4.35 -2.32,8.36 -6.08,10.53l-68.77 39.71c-3.76,2.17 -8.4,2.17 -12.16,0l-7.55 -4.36 0 -70.69c0,-4.34 -2.32,-8.36 -6.08,-10.53l-2.52 -1.45 5.04 -2.91c5.32,-3.07 8.59,-8.75 8.59,-14.89l0 -5.81 2.52 1.45c3.76,2.17 8.4,2.17 12.16,0l61.22 -35.35 7.55 4.36c3.76,2.18 6.08,6.19 6.08,10.53l0 79.41z"/>
  <path fill="#464646" d="M494.76 453.46c0,4.35 -2.32,8.36 -6.08,10.53l-68.77 39.71c-3.76,2.17 -8.4,2.17 -12.16,0l-7.55 -4.36 0 -70.69c0,-4.34 -2.32,-8.36 -6.08,-10.53l-2.52 -1.45 5.04 -2.91c5.32,-3.07 8.59,-8.75 8.59,-14.89l0 -5.82 2.52 1.46c3.76,2.17 8.4,2.17 12.16,0l61.22 -35.35 7.55 4.36c3.76,2.18 6.08,6.19 6.08,10.53l0 79.41z"/>
  <path fill="#464646" d="M589.32 398.87c0,4.34 -2.32,8.36 -6.08,10.53l-68.77 39.7c-3.76,2.18 -8.4,2.18 -12.16,0l-7.55 -4.36 0 -70.69c0,-4.34 -2.32,-8.35 -6.08,-10.53l-2.52 -1.45 5.04 -2.91c5.32,-3.07 8.6,-8.74 8.6,-14.89l0 -5.81 2.51 1.45c3.76,2.17 8.4,2.17 12.16,0l61.22 -35.34 7.55 4.36c3.76,2.17 6.08,6.18 6.08,10.53l0 79.41z"/>
  <path fill="#464646" d="M589.32 508.06c0,4.34 -2.32,8.36 -6.08,10.53l-68.77 39.7c-3.76,2.18 -8.4,2.18 -12.16,0l-7.55 -4.36 0 -70.69c0,-4.34 -2.32,-8.35 -6.08,-10.53l-2.52 -1.45 5.04 -2.91c5.32,-3.07 8.6,-8.74 8.6,-14.89l0 -5.81 2.51 1.45c3.76,2.17 8.4,2.17 12.16,0l61.22 -35.34 7.55 4.36c3.76,2.17 6.08,6.18 6.08,10.53l0 79.41z"/>
  <path fill="#464646" d="M143.77 562.65c0,4.35 2.32,8.36 6.08,10.53l68.77 39.71c3.77,2.17 8.4,2.17 12.16,0l7.56 -4.36 0 -70.69c0,-4.34 2.31,-8.36 6.08,-10.53l2.51 -1.45 -5.03 -2.91c-5.32,-3.07 -8.6,-8.75 -8.6,-14.89l0 -5.81 -2.52 1.45c-3.76,2.17 -8.39,2.17 -12.16,0l-61.21 -35.35 -7.56 4.36c-3.76,2.18 -6.08,6.19 -6.08,10.53l0 79.41z"/>
  <path fill="#464646" d="M49.21 508.06c0,4.34 2.32,8.36 6.08,10.53l68.77 39.7c3.77,2.18 8.4,2.18 12.16,0l7.55 -4.36 0 -70.69c0,-4.34 2.32,-8.35 6.08,-10.53l2.52 -1.45 -5.03 -2.91c-5.32,-3.07 -8.6,-8.74 -8.6,-14.89l0 -5.81 -2.52 1.45c-3.76,2.17 -8.39,2.17 -12.16,0l-61.21 -35.34 -7.56 4.36c-3.76,2.17 -6.08,6.18 -6.08,10.53l0 79.41z"/>
  <path fill="#464646" d="M143.77 453.46c0,4.35 2.32,8.36 6.08,10.53l68.77 39.71c3.77,2.17 8.4,2.17 12.16,0l7.56 -4.36 0 -70.69c0,-4.34 2.31,-8.36 6.08,-10.53l2.51 -1.45 -5.03 -2.91c-5.32,-3.07 -8.6,-8.75 -8.6,-14.89l0 -5.82 -2.52 1.46c-3.76,2.17 -8.39,2.17 -12.16,0l-61.21 -35.35 -7.56 4.36c-3.76,2.18 -6.08,6.19 -6.08,10.53l0 79.41z"/>
  <path fill="#464646" d="M49.21 398.87c0,4.34 2.32,8.36 6.08,10.53l68.77 39.7c3.77,2.17 8.4,2.17 12.16,0l7.55 -4.36 0 -70.69c0,-4.34 2.32,-8.36 6.08,-10.53l2.52 -1.45 -5.03 -2.91c-5.32,-3.07 -8.6,-8.75 -8.6,-14.89l0 -5.81 -2.52 1.45c-3.76,2.17 -8.39,2.17 -12.16,0l-61.21 -35.34 -7.56 4.36c-3.76,2.17 -6.08,6.18 -6.08,10.53l0 79.41z"/>
  <path fill="#464646" d="M400.2 218.99l-61.22 35.34c-3.76,2.17 -6.08,6.19 -6.08,10.53l0 2.91 -5.04 -2.91c-5.32,-3.07 -11.87,-3.07 -17.19,0l-5.04 2.91 0 -2.91c0,-4.34 -2.31,-8.36 -6.08,-10.53l-61.21 -35.34 0 -8.72c0,-4.35 2.31,-8.36 6.08,-10.53l68.77 -39.71c3.76,-2.17 8.39,-2.17 12.16,0l68.77 39.71c3.76,2.17 6.08,6.18 6.08,10.53l0 8.72z"/>
  <path fill="#464646" d="M400.2 109.8l-61.22 35.34c-3.76,2.17 -6.08,6.19 -6.08,10.53l0 2.91 -5.04 -2.91c-5.32,-3.07 -11.87,-3.07 -17.19,0l-5.04 2.91 0 -2.91c0,-4.34 -2.31,-8.36 -6.08,-10.53l-61.21 -35.34 0 -8.72c0,-4.35 2.31,-8.36 6.08,-10.53l68.77 -39.71c3.76,-2.17 8.39,-2.17 12.16,0l68.77 39.71c3.76,2.17 6.08,6.18 6.08,10.53l0 8.72z"/>
  <path fill="#464646" d="M305.63 164.39l-61.21 35.35c-3.77,2.17 -6.08,6.18 -6.08,10.53l0 2.9 -5.04 -2.91c-5.32,-3.07 -11.87,-3.07 -17.19,0l-5.04 2.91 0 -2.9c0,-4.35 -2.31,-8.36 -6.08,-10.53l-61.22 -35.35 0 -8.72c0,-4.34 2.32,-8.36 6.08,-10.53l68.77 -39.7c3.77,-2.18 8.4,-2.18 12.16,0l68.77 39.7c3.77,2.17 6.08,6.19 6.08,10.53l0 8.72z"/>
  <path fill="#464646" d="M494.76 164.39l-61.22 35.35c-3.76,2.17 -6.08,6.18 -6.08,10.53l0 2.9 -5.03 -2.91c-5.32,-3.07 -11.88,-3.07 -17.2,0l-5.03 2.91 0 -2.9c0,-4.35 -2.32,-8.36 -6.08,-10.53l-61.22 -35.35 0 -8.72c0,-4.34 2.32,-8.36 6.08,-10.53l68.77 -39.7c3.76,-2.18 8.4,-2.18 12.16,0l68.77 39.7c3.76,2.17 6.08,6.19 6.08,10.53l0 8.72z"/>
  <path fill="#464646" d="M143.77 264.86l0 70.69 -7.55 4.36c-3.76,2.17 -8.4,2.17 -12.16,0l-68.77 -39.7c-3.76,-2.18 -6.08,-6.19 -6.08,-10.53l0 -79.42c0,-4.34 2.32,-8.35 6.08,-10.52l68.77 -39.71c3.76,-2.17 8.4,-2.17 12.16,0l68.77 39.71c3.77,2.17 6.08,6.18 6.08,10.52l0 8.73 -61.22 35.34c-3.76,2.17 -6.08,6.19 -6.08,10.53z"/>
  <path fill="#464646" d="M589.32 210.26l0 79.42c0,4.34 -2.32,8.35 -6.08,10.53l-68.77 39.7c-3.76,2.17 -8.4,2.17 -12.16,0l-7.55 -4.36 0 -70.69c0,-4.34 -2.32,-8.36 -6.08,-10.53l-61.22 -35.34 0 -8.73c0,-4.34 2.32,-8.35 6.08,-10.52l68.77 -39.71c3.76,-2.17 8.4,-2.17 12.16,0l68.77 39.71c3.76,2.17 6.08,6.18 6.08,10.52z"/>
  <path fill="#464646" d="M400.2 398.87c0,4.34 -2.32,8.36 -6.08,10.53l-68.77 39.7c-3.77,2.17 -8.4,2.17 -12.16,0l-68.77 -39.7c-3.77,-2.17 -6.08,-6.19 -6.08,-10.53l0 -79.41c0,-4.35 2.31,-8.36 6.08,-10.53l68.77 -39.71c3.76,-2.17 8.39,-2.17 12.16,0l68.77 39.71c3.76,2.17 6.08,6.18 6.08,10.53l0 79.41z"/>
  <path fill="#464646" d="M488.68 354.8l-68.77 39.71c-3.76,2.17 -8.4,2.17 -12.16,0l-7.55 -4.36 0 -70.69c0,-4.35 -2.32,-8.36 -6.08,-10.53l-61.22 -35.35 0 -8.72c0,-4.34 2.32,-8.36 6.08,-10.53l68.77 -39.7c3.76,-2.18 8.4,-2.18 12.16,0l68.77 39.7c3.76,2.17 6.08,6.19 6.08,10.53l0 79.41c0,4.35 -2.32,8.36 -6.08,10.53z"/>
  <path fill="#464646" d="M305.63 264.86l0 8.72 -61.21 35.35c-3.77,2.17 -6.08,6.18 -6.08,10.53l0 70.69 -7.56 4.36c-3.76,2.17 -8.39,2.17 -12.15,0l-68.78 -39.71c-3.76,-2.17 -6.08,-6.18 -6.08,-10.53l0 -79.41c0,-4.34 2.32,-8.36 6.08,-10.53l68.78 -39.7c3.76,-2.18 8.39,-2.18 12.15,0l68.78 39.7c3.76,2.17 6.07,6.19 6.07,10.53z"/>
  <g>
   <path fill="gold" d="M233.3 111c-2.28,-1.32 -5.37,-2.06 -8.6,-2.06 -3.22,0 -6.31,0.74 -8.59,2.06l-51.58 29.78c-2.28,1.32 -3.56,3.1 -3.56,4.96 0,1.86 1.28,3.65 3.56,4.97l51.58 29.78c2.28,1.31 5.37,2.05 8.59,2.05 3.23,0 6.32,-0.74 8.6,-2.05l51.58 -29.78c2.28,-1.32 3.56,-3.11 3.56,-4.97 0,-1.86 -1.28,-3.64 -3.56,-4.96l-51.58 -29.78z"/>
   <path id="1" fill="yellow" d="M227.03 121.82c-0.11,-0.05 -0.3,-0.11 -0.57,-0.17 -0.38,-0.1 -0.98,-0.15 -1.76,-0.15 -0.77,0 -1.37,0.05 -1.75,0.15 -0.27,0.06 -0.46,0.12 -0.57,0.17l0.01 0.02 -41.4 23.9 41.4 23.9 -0.01 0.02c0.11,0.06 0.3,0.12 0.56,0.18l0.01 -0.05c0.52,0.13 1.11,0.19 1.75,0.19 0.64,0 1.24,-0.07 1.76,-0.19l0.01 0.05c0.29,-0.07 0.5,-0.14 0.6,-0.2l41.37 -23.88 -41.42 -23.92 0.01 -0.02zm6.27 -10.82c-2.28,-1.32 -5.37,-2.06 -8.6,-2.06 -3.22,0 -6.31,0.74 -8.59,2.06l-51.58 29.78c-2.28,1.32 -3.56,3.1 -3.56,4.96 0,1.86 1.28,3.65 3.56,4.97l51.58 29.78c2.28,1.31 5.37,2.05 8.59,2.05 3.23,0 6.32,-0.74 8.6,-2.05l51.58 -29.78c2.28,-1.32 3.56,-3.11 3.56,-4.97 0,-1.86 -1.28,-3.64 -3.56,-4.96l-51.58 -29.78z"/>
  </g>
  <g>
   <path fill="gold" d="M327.86 56.4c-2.28,-1.31 -5.37,-2.05 -8.59,-2.05 -3.23,0 -6.32,0.74 -8.6,2.05l-51.58 29.78c-2.28,1.32 -3.56,3.11 -3.56,4.97 0,1.86 1.28,3.64 3.56,4.96l51.58 29.78c2.28,1.32 5.37,2.06 8.6,2.06 3.22,0 6.31,-0.74 8.59,-2.06l51.58 -29.78c2.28,-1.32 3.56,-3.1 3.56,-4.96 0,-1.86 -1.28,-3.65 -3.56,-4.97l-51.58 -29.78z"/>
   <path id="1" fill="yellow" d="M321.63 67.25c-0.09,-0.06 -0.3,-0.13 -0.59,-0.2l-0.02 0.05c-0.51,-0.12 -1.11,-0.19 -1.75,-0.19 -0.78,0 -1.37,0.05 -1.76,0.14 -0.3,0.07 -0.51,0.14 -0.61,0.2l-41.4 23.9 41.4 23.9c0.1,0.05 0.31,0.12 0.6,0.19l0.01 -0.04c0.52,0.12 1.12,0.19 1.76,0.19 0.77,0 1.37,-0.05 1.75,-0.15l0 -0.04 0.61 -0.15 41.4 -23.9 -41.4 -23.9zm6.23 -10.85c-2.28,-1.31 -5.37,-2.05 -8.59,-2.05 -3.23,0 -6.32,0.74 -8.6,2.05l-51.58 29.78c-2.28,1.32 -3.56,3.11 -3.56,4.97 0,1.86 1.28,3.64 3.56,4.96l51.58 29.78c2.28,1.32 5.37,2.06 8.6,2.06 3.22,0 6.31,-0.74 8.59,-2.06l51.58 -29.78c2.28,-1.32 3.56,-3.1 3.56,-4.96 0,-1.86 -1.28,-3.65 -3.56,-4.97l-51.58 -29.78z"/>
  </g>
  <path fill="white" d="M327.86 165.6c-2.28,-1.32 -5.37,-2.06 -8.59,-2.06 -3.23,0 -6.32,0.74 -8.6,2.06l-51.58 29.78c-2.28,1.31 -3.56,3.1 -3.56,4.96 0,1.86 1.28,3.65 3.56,4.96l51.58 29.78c2.28,1.32 5.37,2.06 8.6,2.06 3.22,0 6.31,-0.74 8.59,-2.06l51.58 -29.78c2.28,-1.31 3.56,-3.1 3.56,-4.96 0,-1.86 -1.28,-3.65 -3.56,-4.96l-51.58 -29.78z"/>
  <g>
   <path fill="gold" d="M422.43 111c-2.28,-1.32 -5.38,-2.06 -8.6,-2.06 -3.23,0 -6.32,0.74 -8.6,2.06l-51.58 29.78c-2.28,1.32 -3.56,3.1 -3.56,4.96 0,1.86 1.28,3.65 3.56,4.97l51.58 29.78c2.28,1.31 5.37,2.05 8.6,2.05 3.22,0 6.32,-0.74 8.6,-2.05l51.57 -29.78c2.28,-1.32 3.57,-3.11 3.57,-4.97 0,-1.86 -1.29,-3.64 -3.57,-4.96l-51.57 -29.78z"/>
   <path id="1" fill="yellow" d="M416.16 121.82c-0.11,-0.05 -0.31,-0.11 -0.57,-0.17 -0.39,-0.1 -0.99,-0.15 -1.76,-0.15 -0.78,0 -1.37,0.05 -1.76,0.15 -0.26,0.06 -0.46,0.12 -0.57,0.17l0.01 0.02 -41.42 23.92 41.37 23.88c0.1,0.06 0.31,0.13 0.6,0.2l0.01 -0.05c0.52,0.13 1.12,0.19 1.76,0.19 0.64,0 1.24,-0.07 1.76,-0.19l0.01 0.05c0.26,-0.06 0.45,-0.12 0.56,-0.18l-0.01 -0.02 41.39 -23.9 -41.39 -23.9 0.01 -0.02zm6.27 -10.82c-2.28,-1.32 -5.38,-2.06 -8.6,-2.06 -3.23,0 -6.32,0.74 -8.6,2.06l-51.58 29.78c-2.28,1.32 -3.56,3.1 -3.56,4.96 0,1.86 1.28,3.65 3.56,4.97l51.58 29.78c2.28,1.31 5.37,2.05 8.6,2.05 3.22,0 6.32,-0.74 8.6,-2.05l51.57 -29.78c2.28,-1.32 3.57,-3.11 3.57,-4.97 0,-1.86 -1.29,-3.64 -3.57,-4.96l-51.57 -29.78z"/>
  </g>
  <g>
   <path fill="gold" d="M138.74 165.6c-2.28,-1.32 -5.37,-2.06 -8.6,-2.06 -3.22,0 -6.31,0.74 -8.6,2.06l-51.57 29.78c-2.28,1.31 -3.56,3.1 -3.56,4.96 0,1.86 1.28,3.65 3.56,4.96l51.57 29.78c2.29,1.32 5.38,2.06 8.6,2.06 3.23,0 6.32,-0.74 8.6,-2.06l51.58 -29.78c2.28,-1.31 3.56,-3.1 3.56,-4.96 0,-1.86 -1.28,-3.65 -3.56,-4.96l-51.58 -29.78z"/>
   <path id="1" fill="yellow" d="M132.47 176.42c-0.11,-0.05 -0.31,-0.12 -0.57,-0.18 -0.39,-0.09 -0.98,-0.14 -1.76,-0.14 -0.77,0 -1.37,0.05 -1.76,0.14 -0.26,0.06 -0.46,0.13 -0.57,0.18l0.01 0.02 -41.39 23.9 41.39 23.9 -0.01 0.02c0.11,0.05 0.31,0.11 0.56,0.17l0.01 -0.04c0.52,0.12 1.12,0.19 1.76,0.19 0.64,0 1.24,-0.07 1.76,-0.19l0.01 0.04c0.29,-0.07 0.5,-0.14 0.6,-0.19l41.37 -23.89 -41.42 -23.91 0.01 -0.02zm6.27 -10.82c-2.28,-1.32 -5.37,-2.06 -8.6,-2.06 -3.22,0 -6.31,0.74 -8.6,2.06l-51.57 29.78c-2.28,1.31 -3.56,3.1 -3.56,4.96 0,1.86 1.28,3.65 3.56,4.96l51.57 29.78c2.29,1.32 5.38,2.06 8.6,2.06 3.23,0 6.32,-0.74 8.6,-2.06l51.58 -29.78c2.28,-1.31 3.56,-3.1 3.56,-4.96 0,-1.86 -1.28,-3.65 -3.56,-4.96l-51.58 -29.78z"/>
  </g>
  <g>
   <path fill="gold" d="M233.3 220.19c-2.28,-1.32 -5.37,-2.05 -8.6,-2.05 -3.22,0 -6.31,0.73 -8.59,2.05l-51.58 29.78c-2.28,1.32 -3.56,3.1 -3.56,4.96 0,1.87 1.28,3.65 3.56,4.97l51.58 29.78c2.28,1.31 5.37,2.05 8.59,2.05 3.23,0 6.32,-0.74 8.6,-2.05l51.58 -29.78c2.28,-1.32 3.56,-3.1 3.56,-4.97 0,-1.86 -1.28,-3.64 -3.56,-4.96l-51.58 -29.78z"/>
   <path id="1" fill="yellow" d="M227.07 231.03c-0.1,-0.05 -0.31,-0.12 -0.6,-0.19l-0.01 0.05c-0.52,-0.13 -1.12,-0.19 -1.76,-0.19 -0.64,0 -1.23,0.06 -1.75,0.19l-0.01 -0.05c-0.26,0.06 -0.45,0.12 -0.56,0.17l0.01 0.02 -41.4 23.9 41.4 23.9 -0.01 0.02c0.11,0.06 0.3,0.12 0.57,0.18 0.38,0.09 0.98,0.14 1.75,0.14 0.78,0 1.38,-0.05 1.76,-0.14 0.27,-0.06 0.46,-0.12 0.57,-0.18l-0.01 -0.02 41.42 -23.91 -41.37 -23.89zm6.23 -10.84c-2.28,-1.32 -5.37,-2.05 -8.6,-2.05 -3.22,0 -6.31,0.73 -8.59,2.05l-51.58 29.78c-2.28,1.32 -3.56,3.1 -3.56,4.96 0,1.87 1.28,3.65 3.56,4.97l51.58 29.78c2.28,1.31 5.37,2.05 8.59,2.05 3.23,0 6.32,-0.74 8.6,-2.05l51.58 -29.78c2.28,-1.32 3.56,-3.1 3.56,-4.97 0,-1.86 -1.28,-3.64 -3.56,-4.96l-51.58 -29.78z"/>
  </g>
  <g>
   <path fill="gold" d="M327.86 274.79c-2.28,-1.32 -5.37,-2.06 -8.59,-2.06 -3.23,0 -6.32,0.74 -8.6,2.06l-51.58 29.78c-2.28,1.31 -3.56,3.1 -3.56,4.96 0,1.86 1.28,3.65 3.56,4.96l51.58 29.78c2.28,1.32 5.37,2.06 8.6,2.06 3.22,0 6.31,-0.74 8.59,-2.06l51.58 -29.78c2.28,-1.31 3.56,-3.1 3.56,-4.96 0,-1.86 -1.28,-3.65 -3.56,-4.96l-51.58 -29.78z"/>
   <path id="1" fill="yellow" d="M321.6 285.61c-0.11,-0.05 -0.31,-0.11 -0.57,-0.18l-0.01 0.05c-0.52,-0.12 -1.11,-0.19 -1.75,-0.19 -0.64,0 -1.24,0.07 -1.76,0.19l-0.01 -0.05c-0.29,0.07 -0.5,0.14 -0.6,0.2l-41.4 23.9 41.4 23.9c0.1,0.06 0.31,0.13 0.61,0.2 0.39,0.09 0.98,0.14 1.76,0.14 0.77,0 1.37,-0.05 1.75,-0.14 0.27,-0.07 0.47,-0.13 0.58,-0.18l-0.02 -0.02 41.4 -23.9 -41.4 -23.9 0.02 -0.02zm6.26 -10.82c-2.28,-1.32 -5.37,-2.06 -8.59,-2.06 -3.23,0 -6.32,0.74 -8.6,2.06l-51.58 29.78c-2.28,1.31 -3.56,3.1 -3.56,4.96 0,1.86 1.28,3.65 3.56,4.96l51.58 29.78c2.28,1.32 5.37,2.06 8.6,2.06 3.22,0 6.31,-0.74 8.59,-2.06l51.58 -29.78c2.28,-1.31 3.56,-3.1 3.56,-4.96 0,-1.86 -1.28,-3.65 -3.56,-4.96l-51.58 -29.78z"/>
  </g>
  <g>
   <path fill="gold" d="M422.43 220.19c-2.28,-1.32 -5.38,-2.05 -8.6,-2.05 -3.23,0 -6.32,0.73 -8.6,2.05l-51.58 29.78c-2.28,1.32 -3.56,3.1 -3.56,4.96 0,1.87 1.28,3.65 3.56,4.97l51.58 29.78c2.28,1.31 5.37,2.05 8.6,2.05 3.22,0 6.32,-0.74 8.6,-2.05l51.57 -29.78c2.28,-1.32 3.57,-3.1 3.57,-4.97 0,-1.86 -1.29,-3.64 -3.57,-4.96l-51.57 -29.78z"/>
   <path id="1" fill="yellow" d="M416.16 231.01c-0.11,-0.05 -0.3,-0.11 -0.56,-0.17l-0.01 0.05c-0.52,-0.13 -1.12,-0.19 -1.76,-0.19 -0.64,0 -1.24,0.06 -1.76,0.19l-0.01 -0.05c-0.29,0.07 -0.5,0.14 -0.6,0.19l-41.37 23.89 41.42 23.91 -0.01 0.02c0.11,0.06 0.31,0.12 0.57,0.18 0.39,0.09 0.98,0.14 1.76,0.14 0.77,0 1.37,-0.05 1.76,-0.14 0.26,-0.06 0.46,-0.12 0.57,-0.18l-0.01 -0.02 41.39 -23.9 -41.39 -23.9 0.01 -0.02zm6.27 -10.82c-2.28,-1.32 -5.38,-2.05 -8.6,-2.05 -3.23,0 -6.32,0.73 -8.6,2.05l-51.58 29.78c-2.28,1.32 -3.56,3.1 -3.56,4.96 0,1.87 1.28,3.65 3.56,4.97l51.58 29.78c2.28,1.31 5.37,2.05 8.6,2.05 3.22,0 6.32,-0.74 8.6,-2.05l51.57 -29.78c2.28,-1.32 3.57,-3.1 3.57,-4.97 0,-1.86 -1.29,-3.64 -3.57,-4.96l-51.57 -29.78z"/>
  </g>
  <g>
   <path fill="gold" d="M516.99 165.6c-2.28,-1.32 -5.37,-2.06 -8.6,-2.06 -3.22,0 -6.31,0.74 -8.6,2.06l-51.57 29.78c-2.29,1.31 -3.57,3.1 -3.57,4.96 0,1.86 1.28,3.65 3.57,4.96l51.57 29.78c2.29,1.32 5.38,2.06 8.6,2.06 3.23,0 6.32,-0.74 8.6,-2.06l51.58 -29.78c2.28,-1.31 3.56,-3.1 3.56,-4.96 0,-1.86 -1.28,-3.65 -3.56,-4.96l-51.58 -29.78z"/>
   <path id="1" fill="yellow" d="M510.72 176.42c-0.11,-0.05 -0.31,-0.12 -0.57,-0.18 -0.39,-0.09 -0.98,-0.14 -1.76,-0.14 -0.77,0 -1.37,0.05 -1.76,0.14 -0.26,0.06 -0.46,0.13 -0.57,0.18l0.01 0.02 -41.39 23.9 41.39 23.9 -0.01 0.02c0.11,0.05 0.3,0.11 0.56,0.17l0.01 -0.04c0.52,0.12 1.12,0.19 1.76,0.19 0.64,0 1.24,-0.07 1.76,-0.19l0.01 0.04c0.29,-0.07 0.5,-0.14 0.6,-0.19l41.37 -23.89 -41.42 -23.91 0.01 -0.02zm6.27 -10.82c-2.28,-1.32 -5.37,-2.06 -8.6,-2.06 -3.22,0 -6.31,0.74 -8.6,2.06l-51.57 29.78c-2.29,1.31 -3.57,3.1 -3.57,4.96 0,1.86 1.28,3.65 3.57,4.96l51.57 29.78c2.29,1.32 5.38,2.06 8.6,2.06 3.23,0 6.32,-0.74 8.6,-2.06l51.58 -29.78c2.28,-1.31 3.56,-3.1 3.56,-4.96 0,-1.86 -1.28,-3.65 -3.56,-4.96l-51.58 -29.78z"/>
  </g>
  <g>
   <path fill="mediumseagreen" d="M516.89 265.04l0 59.56c0,2.63 0.9,4.63 2.51,5.56 1.62,0.93 3.8,0.72 6.08,-0.6l51.58 -29.78c2.28,-1.32 4.47,-3.62 6.08,-6.42 1.61,-2.79 2.52,-5.84 2.52,-8.47l0 -59.56c0,-2.63 -0.91,-4.63 -2.52,-5.56 -1.61,-0.93 -3.8,-0.72 -6.08,0.6l-51.58 29.78c-2.28,1.31 -4.46,3.62 -6.08,6.42 -1.61,2.79 -2.51,5.83 -2.51,8.47z"/>
   <path id="1" fill="lawngreen" d="M529.39 265.04l0 47.9 41.44 -23.93 -0.02 -0.02c0.11,-0.06 0.28,-0.22 0.51,-0.46 0.4,-0.42 0.76,-0.89 1.03,-1.37 0.27,-0.47 0.51,-1.04 0.69,-1.66l0.02 0.01c0.06,-0.24 0.1,-0.45 0.1,-0.62l0 -47.87 -41.43 23.92 -0.05 0c-0.03,0.02 -0.19,0.18 -0.45,0.46 -0.36,0.37 -0.71,0.85 -1.04,1.42l-0.02 -0.02c-0.28,0.5 -0.51,1.03 -0.67,1.58 -0.07,0.25 -0.11,0.48 -0.11,0.66zm-12.5 0l0 59.56c0,2.63 0.9,4.63 2.51,5.56 1.62,0.93 3.8,0.72 6.08,-0.6l51.58 -29.78c2.28,-1.32 4.47,-3.62 6.08,-6.42 1.61,-2.79 2.52,-5.84 2.52,-8.47l0 -59.56c0,-2.63 -0.91,-4.63 -2.52,-5.56 -1.61,-0.93 -3.8,-0.72 -6.08,0.6l-51.58 29.78c-2.28,1.31 -4.46,3.62 -6.08,6.42 -1.61,2.79 -2.51,5.83 -2.51,8.47z"/>
  </g>
  <g>
   <path fill="mediumseagreen" d="M422.32 319.63l0 59.56c0,2.63 0.91,4.64 2.52,5.57 1.61,0.93 3.8,0.71 6.08,-0.61l51.58 -29.77c2.28,-1.32 4.47,-3.63 6.08,-6.42 1.61,-2.79 2.52,-5.84 2.52,-8.47l0 -59.56c0,-2.64 -0.91,-4.64 -2.52,-5.57 -1.61,-0.93 -3.8,-0.71 -6.08,0.6l-51.58 29.78c-2.28,1.32 -4.47,3.63 -6.08,6.42 -1.61,2.79 -2.52,5.84 -2.52,8.47z"/>
   <path id="1" fill="lawngreen" d="M434.82 319.63l0 47.9 41.48 -23.94c0.03,-0.02 0.19,-0.18 0.46,-0.46 0.35,-0.38 0.71,-0.86 1.03,-1.42l0.02 0.01c0.28,-0.49 0.51,-1.03 0.67,-1.57 0.08,-0.26 0.12,-0.48 0.12,-0.66l0 -47.9 -41.44 23.92 0.01 0.02c-0.11,0.07 -0.28,0.22 -0.51,0.46 -0.4,0.43 -0.75,0.89 -1.03,1.37 -0.27,0.47 -0.5,1.04 -0.69,1.66l-0.01 0c-0.07,0.24 -0.11,0.45 -0.11,0.61zm-12.5 0l0 59.56c0,2.63 0.91,4.64 2.52,5.57 1.61,0.93 3.8,0.71 6.08,-0.61l51.58 -29.77c2.28,-1.32 4.47,-3.63 6.08,-6.42 1.61,-2.79 2.52,-5.84 2.52,-8.47l0 -59.56c0,-2.64 -0.91,-4.64 -2.52,-5.57 -1.61,-0.93 -3.8,-0.71 -6.08,0.6l-51.58 29.78c-2.28,1.32 -4.47,3.63 -6.08,6.42 -1.61,2.79 -2.52,5.84 -2.52,8.47z"/>
  </g>
  <g>
   <path fill="mediumseagreen" d="M327.76 374.23l0 59.56c0,2.63 0.91,4.63 2.52,5.56 1.61,0.93 3.8,0.72 6.08,-0.6l51.58 -29.78c2.28,-1.31 4.46,-3.62 6.08,-6.42 1.61,-2.79 2.52,-5.84 2.52,-8.47l0 -59.56c0,-2.63 -0.91,-4.63 -2.52,-5.56 -1.62,-0.93 -3.8,-0.72 -6.08,0.6l-51.58 29.78c-2.28,1.32 -4.47,3.62 -6.08,6.42 -1.61,2.79 -2.52,5.84 -2.52,8.47z"/>
   <path id="1" fill="lawngreen" d="M340.26 374.23l0 47.87 41.43 -23.92 0.05 0c0.03,-0.02 0.19,-0.18 0.46,-0.46l0.02 0.03c0.35,-0.37 0.69,-0.85 1.01,-1.4l0 -0.05c0.31,-0.54 0.54,-1.07 0.69,-1.56 0.07,-0.25 0.12,-0.48 0.12,-0.66l0 -47.87 -41.43 23.92 -0.05 0c-0.03,0.02 -0.19,0.18 -0.46,0.46 -0.35,0.37 -0.7,0.85 -1.03,1.42l-0.02 -0.02c-0.28,0.5 -0.51,1.04 -0.67,1.58 -0.08,0.25 -0.12,0.48 -0.12,0.66zm-12.5 0l0 59.56c0,2.63 0.91,4.63 2.52,5.56 1.61,0.93 3.8,0.72 6.08,-0.6l51.58 -29.78c2.28,-1.31 4.46,-3.62 6.08,-6.42 1.61,-2.79 2.52,-5.84 2.52,-8.47l0 -59.56c0,-2.63 -0.91,-4.63 -2.52,-5.56 -1.62,-0.93 -3.8,-0.72 -6.08,0.6l-51.58 29.78c-2.28,1.32 -4.47,3.62 -6.08,6.42 -1.61,2.79 -2.52,5.84 -2.52,8.47z"/>
  </g>
  <g>
   <path fill="mediumseagreen" d="M516.89 374.23l0 59.56c0,2.63 0.9,4.63 2.51,5.56 1.62,0.93 3.8,0.72 6.08,-0.6l51.58 -29.78c2.28,-1.31 4.47,-3.62 6.08,-6.42 1.61,-2.79 2.52,-5.84 2.52,-8.47l0 -59.56c0,-2.63 -0.91,-4.63 -2.52,-5.56 -1.61,-0.93 -3.8,-0.72 -6.08,0.6l-51.58 29.78c-2.28,1.32 -4.46,3.62 -6.08,6.42 -1.61,2.79 -2.51,5.84 -2.51,8.47z"/>
   <path id="1" fill="lawngreen" d="M529.39 374.23l0 47.87 41.42 -23.92 0.05 0c0.04,-0.02 0.19,-0.18 0.46,-0.46 0.4,-0.42 0.76,-0.89 1.03,-1.37l0 -0.05c0.31,-0.54 0.55,-1.07 0.69,-1.56 0.08,-0.25 0.12,-0.48 0.12,-0.66l0 -47.9 -41.48 23.95c-0.03,0.02 -0.19,0.18 -0.45,0.46 -0.36,0.37 -0.71,0.86 -1.04,1.42l-0.02 -0.02c-0.28,0.5 -0.5,1.04 -0.67,1.58 -0.07,0.25 -0.11,0.48 -0.11,0.66zm-12.5 0l0 59.56c0,2.63 0.9,4.63 2.51,5.56 1.62,0.93 3.8,0.72 6.08,-0.6l51.58 -29.78c2.28,-1.31 4.47,-3.62 6.08,-6.42 1.61,-2.79 2.52,-5.84 2.52,-8.47l0 -59.56c0,-2.63 -0.91,-4.63 -2.52,-5.56 -1.61,-0.93 -3.8,-0.72 -6.08,0.6l-51.58 29.78c-2.28,1.32 -4.46,3.62 -6.08,6.42 -1.61,2.79 -2.51,5.84 -2.51,8.47z"/>
  </g>
  <g>
   <path fill="mediumseagreen" d="M422.32 428.82l0 59.56c0,2.64 0.91,4.64 2.52,5.57 1.61,0.93 3.8,0.71 6.08,-0.6l51.58 -29.78c2.28,-1.32 4.47,-3.63 6.08,-6.42 1.61,-2.79 2.52,-5.84 2.52,-8.47l0 -59.56c0,-2.63 -0.91,-4.64 -2.52,-5.57 -1.61,-0.93 -3.8,-0.71 -6.08,0.6l-51.58 29.79c-2.28,1.31 -4.47,3.62 -6.08,6.41 -1.61,2.79 -2.52,5.84 -2.52,8.47z"/>
   <path id="1" fill="lawngreen" d="M434.82 428.82l0 47.9 41.44 -23.92 -0.01 -0.02c0.11,-0.06 0.28,-0.22 0.51,-0.46 0.4,-0.43 0.76,-0.89 1.03,-1.37 0.29,-0.51 0.53,-1.06 0.69,-1.61 0.08,-0.26 0.12,-0.48 0.12,-0.66l0 -47.87 -41.43 23.92 -0.05 0c-0.03,0.01 -0.19,0.17 -0.45,0.45 -0.36,0.38 -0.71,0.86 -1.04,1.42 -0.31,0.54 -0.54,1.08 -0.69,1.56 -0.07,0.26 -0.12,0.49 -0.12,0.66zm-12.5 0l0 59.56c0,2.64 0.91,4.64 2.52,5.57 1.61,0.93 3.8,0.71 6.08,-0.6l51.58 -29.78c2.28,-1.32 4.47,-3.63 6.08,-6.42 1.61,-2.79 2.52,-5.84 2.52,-8.47l0 -59.56c0,-2.63 -0.91,-4.64 -2.52,-5.57 -1.61,-0.93 -3.8,-0.71 -6.08,0.6l-51.58 29.79c-2.28,1.31 -4.47,3.62 -6.08,6.41 -1.61,2.79 -2.52,5.84 -2.52,8.47z"/>
  </g>
  <g>
   <path fill="mediumseagreen" d="M327.76 483.42l0 59.56c0,2.63 0.91,4.63 2.52,5.56 1.61,0.94 3.8,0.72 6.08,-0.6l51.58 -29.78c2.28,-1.31 4.46,-3.62 6.08,-6.41 1.61,-2.8 2.52,-5.84 2.52,-8.48l0 -59.56c0,-2.63 -0.91,-4.63 -2.52,-5.56 -1.62,-0.93 -3.8,-0.72 -6.08,0.6l-51.58 29.78c-2.28,1.32 -4.47,3.63 -6.08,6.42 -1.61,2.79 -2.52,5.84 -2.52,8.47z"/>
   <path id="1" fill="lawngreen" d="M340.26 483.42l0 47.87 41.43 -23.92 0.05 0c0.03,-0.02 0.19,-0.18 0.45,-0.45 0.36,-0.38 0.71,-0.86 1.04,-1.42l0.02 0.01c0.26,-0.47 0.49,-1.02 0.67,-1.63l0.01 0.01c0.07,-0.24 0.11,-0.45 0.11,-0.62l0 -47.87 -41.43 23.92 -0.05 0c-0.03,0.02 -0.19,0.18 -0.46,0.46 -0.35,0.37 -0.7,0.86 -1.03,1.42l-0.02 -0.01c-0.26,0.46 -0.49,1.01 -0.67,1.62l-0.01 0c-0.07,0.23 -0.11,0.44 -0.11,0.61zm-12.5 0l0 59.56c0,2.63 0.91,4.63 2.52,5.56 1.61,0.94 3.8,0.72 6.08,-0.6l51.58 -29.78c2.28,-1.31 4.46,-3.62 6.08,-6.41 1.61,-2.8 2.52,-5.84 2.52,-8.48l0 -59.56c0,-2.63 -0.91,-4.63 -2.52,-5.56 -1.62,-0.93 -3.8,-0.72 -6.08,0.6l-51.58 29.78c-2.28,1.32 -4.47,3.63 -6.08,6.42 -1.61,2.79 -2.52,5.84 -2.52,8.47z"/>
  </g>
  <g>
   <path fill="mediumseagreen" d="M516.89 483.42l0 59.56c0,2.63 0.9,4.63 2.51,5.56 1.62,0.94 3.8,0.72 6.08,-0.6l51.58 -29.78c2.28,-1.31 4.47,-3.62 6.08,-6.41 1.61,-2.8 2.52,-5.84 2.52,-8.48l0 -59.56c0,-2.63 -0.91,-4.63 -2.52,-5.56 -1.61,-0.93 -3.8,-0.72 -6.08,0.6l-51.58 29.78c-2.28,1.32 -4.46,3.63 -6.08,6.42 -1.61,2.79 -2.51,5.84 -2.51,8.47z"/>
   <path id="1" fill="lawngreen" d="M529.39 483.42l0 47.9 41.44 -23.93 -0.02 -0.02c0.11,-0.06 0.28,-0.22 0.51,-0.46 0.4,-0.42 0.76,-0.89 1.03,-1.36 0.27,-0.48 0.51,-1.04 0.69,-1.67l0.02 0.01c0.06,-0.24 0.1,-0.45 0.1,-0.62l0 -47.89 -41.48 23.94c-0.03,0.02 -0.19,0.18 -0.45,0.46 -0.36,0.37 -0.71,0.86 -1.04,1.42l-0.02 -0.01c-0.28,0.49 -0.51,1.03 -0.67,1.57 -0.07,0.26 -0.11,0.48 -0.11,0.66zm-12.5 0l0 59.56c0,2.63 0.9,4.63 2.51,5.56 1.62,0.94 3.8,0.72 6.08,-0.6l51.58 -29.78c2.28,-1.31 4.47,-3.62 6.08,-6.41 1.61,-2.8 2.52,-5.84 2.52,-8.48l0 -59.56c0,-2.63 -0.91,-4.63 -2.52,-5.56 -1.61,-0.93 -3.8,-0.72 -6.08,0.6l-51.58 29.78c-2.28,1.32 -4.46,3.63 -6.08,6.42 -1.61,2.79 -2.51,5.84 -2.51,8.47z"/>
  </g>
  <path fill="#4178FF" d="M422.32 538.02l0 59.55c0,2.64 0.91,4.64 2.52,5.57 1.61,0.93 3.8,0.71 6.08,-0.6l51.58 -29.78c2.28,-1.32 4.47,-3.63 6.08,-6.42 1.61,-2.79 2.52,-5.84 2.52,-8.47l0 -59.56c0,-2.63 -0.91,-4.63 -2.52,-5.57 -1.61,-0.93 -3.8,-0.71 -6.08,0.61l-51.58 29.78c-2.28,1.31 -4.47,3.62 -6.08,6.41 -1.61,2.79 -2.52,5.84 -2.52,8.48z"/>
  <g>
   <path fill="mediumseagreen" d="M327.76 592.61l0 59.56c0,2.63 0.91,4.64 2.52,5.57 1.61,0.93 3.8,0.71 6.08,-0.61l51.58 -29.78c2.28,-1.31 4.46,-3.62 6.08,-6.41 1.61,-2.8 2.52,-5.84 2.52,-8.48l0 -59.55c0,-2.64 -0.91,-4.64 -2.52,-5.57 -1.62,-0.93 -3.8,-0.71 -6.08,0.6l-51.58 29.78c-2.28,1.32 -4.47,3.63 -6.08,6.42 -1.61,2.79 -2.52,5.84 -2.52,8.47z"/>
   <path id="1" fill="lawngreen" d="M340.26 592.61l0 47.87 41.43 -23.92 0.05 0c0.03,-0.01 0.19,-0.18 0.46,-0.45 0.35,-0.38 0.7,-0.86 1.03,-1.42l0.02 0.01c0.28,-0.5 0.51,-1.03 0.67,-1.57 0.07,-0.26 0.12,-0.49 0.12,-0.67l0 -47.87 -41.43 23.92 -0.05 0c-0.03,0.02 -0.19,0.18 -0.46,0.46 -0.35,0.37 -0.71,0.86 -1.03,1.42l-0.02 -0.01c-0.28,0.49 -0.51,1.03 -0.67,1.57 -0.08,0.26 -0.12,0.48 -0.12,0.66zm-12.5 0l0 59.56c0,2.63 0.91,4.64 2.52,5.57 1.61,0.93 3.8,0.71 6.08,-0.61l51.58 -29.78c2.28,-1.31 4.46,-3.62 6.08,-6.41 1.61,-2.8 2.52,-5.84 2.52,-8.48l0 -59.55c0,-2.64 -0.91,-4.64 -2.52,-5.57 -1.62,-0.93 -3.8,-0.71 -6.08,0.6l-51.58 29.78c-2.28,1.32 -4.47,3.63 -6.08,6.42 -1.61,2.79 -2.52,5.84 -2.52,8.47z"/>
  </g>
  <g>
   <path fill="#ED3237" d="M121.54 264.86l0 59.56c0,2.63 -0.9,4.63 -2.51,5.56 -1.61,0.94 -3.8,0.72 -6.08,-0.6l-51.58 -29.78c-2.28,-1.31 -4.47,-3.62 -6.08,-6.41 -1.61,-2.8 -2.52,-5.84 -2.52,-8.48l0 -59.56c0,-2.63 0.91,-4.63 2.52,-5.56 1.61,-0.93 3.8,-0.72 6.08,0.6l51.58 29.78c2.28,1.32 4.47,3.63 6.08,6.42 1.61,2.79 2.51,5.84 2.51,8.47z"/>
   <path id="1" fill="#FF6666" d="M121.54 264.86l0 59.56c0,2.63 -0.9,4.63 -2.51,5.56 -1.61,0.94 -3.8,0.72 -6.08,-0.6l-51.58 -29.78c-2.28,-1.31 -4.47,-3.62 -6.08,-6.41 -1.61,-2.8 -2.52,-5.84 -2.52,-8.48l0 -59.56c0,-2.63 0.91,-4.63 2.52,-5.56 1.61,-0.93 3.8,-0.72 6.08,0.6l51.58 29.78c2.28,1.32 4.47,3.63 6.08,6.42 1.61,2.79 2.51,5.84 2.51,8.47zm-12.49 47.9l0 -47.9c0,-0.18 -0.05,-0.41 -0.12,-0.66 -0.17,-0.56 -0.4,-1.11 -0.69,-1.61 -0.28,-0.48 -0.63,-0.94 -1.03,-1.37 -0.23,-0.24 -0.41,-0.4 -0.51,-0.46l0.01 -0.02 -41.44 -23.92 0 47.89c0,0.17 0.04,0.38 0.11,0.62l0.01 -0.01c0.18,0.61 0.41,1.16 0.67,1.63l0.02 -0.01c0.33,0.56 0.68,1.04 1.03,1.42 0.27,0.27 0.43,0.44 0.46,0.45l41.48 23.95z"/>
  </g>
  <g>
   <path fill="#ED3237" d="M216.11 319.46l0 59.55c0,2.64 -0.91,4.64 -2.52,5.57 -1.61,0.93 -3.8,0.71 -6.08,-0.6l-51.58 -29.78c-2.28,-1.32 -4.47,-3.63 -6.08,-6.42 -1.61,-2.79 -2.51,-5.84 -2.51,-8.47l0 -59.56c0,-2.63 0.9,-4.63 2.51,-5.57 1.61,-0.93 3.8,-0.71 6.08,0.61l51.58 29.78c2.28,1.31 4.47,3.62 6.08,6.41 1.61,2.8 2.52,5.84 2.52,8.48z"/>
   <path id="1" fill="#FF6666" d="M216.11 319.46l0 59.55c0,2.64 -0.91,4.64 -2.52,5.57 -1.61,0.93 -3.8,0.71 -6.08,-0.6l-51.58 -29.78c-2.28,-1.32 -4.47,-3.63 -6.08,-6.42 -1.61,-2.79 -2.51,-5.84 -2.51,-8.47l0 -59.56c0,-2.63 0.9,-4.63 2.51,-5.57 1.61,-0.93 3.8,-0.71 6.08,0.61l51.58 29.78c2.28,1.31 4.47,3.62 6.08,6.41 1.61,2.8 2.52,5.84 2.52,8.48zm-12.5 47.87l0 -47.87c0,-0.18 -0.04,-0.41 -0.12,-0.66 -0.16,-0.56 -0.4,-1.11 -0.69,-1.62 -0.28,-0.47 -0.63,-0.94 -1.03,-1.36 -0.23,-0.24 -0.4,-0.4 -0.51,-0.46l0.01 -0.02 -41.43 -23.93 0 47.9c0,0.18 0.04,0.41 0.11,0.66 0.15,0.49 0.38,1.02 0.69,1.56l0 0.05c0.28,0.48 0.63,0.95 1.03,1.37 0.27,0.28 0.43,0.44 0.46,0.46l0.05 0 41.43 23.92z"/>
  </g>
  <g>
   <path fill="#ED3237" d="M310.67 374.05l0 59.56c0,2.63 -0.91,4.64 -2.52,5.57 -1.61,0.93 -3.8,0.71 -6.08,-0.61l-51.58 -29.77c-2.28,-1.32 -4.46,-3.63 -6.07,-6.42 -1.62,-2.79 -2.52,-5.84 -2.52,-8.48l0 -59.55c0,-2.64 0.9,-4.64 2.52,-5.57 1.61,-0.93 3.79,-0.71 6.07,0.6l51.58 29.78c2.28,1.32 4.47,3.63 6.08,6.42 1.61,2.79 2.52,5.84 2.52,8.47z"/>
   <path id="1" fill="#FF6666" d="M310.67 374.05l0 59.56c0,2.63 -0.91,4.64 -2.52,5.57 -1.61,0.93 -3.8,0.71 -6.08,-0.61l-51.58 -29.77c-2.28,-1.32 -4.46,-3.63 -6.07,-6.42 -1.62,-2.79 -2.52,-5.84 -2.52,-8.48l0 -59.55c0,-2.64 0.9,-4.64 2.52,-5.57 1.61,-0.93 3.79,-0.71 6.07,0.6l51.58 29.78c2.28,1.32 4.47,3.63 6.08,6.42 1.61,2.79 2.52,5.84 2.52,8.47zm-12.5 47.87l0 -47.87c0,-0.18 -0.04,-0.4 -0.12,-0.66 -0.14,-0.49 -0.38,-1.02 -0.69,-1.56 -0.32,-0.56 -0.68,-1.04 -1.03,-1.42 -0.26,-0.28 -0.42,-0.44 -0.46,-0.46l-0.05 0 -41.42 -23.92 0 47.87c0,0.17 0.03,0.38 0.1,0.62l0.01 0c0.18,0.6 0.41,1.16 0.67,1.62l0.03 -0.01c0.32,0.56 0.67,1.04 1.03,1.42 0.26,0.27 0.42,0.44 0.45,0.45l0.05 0 41.43 23.92z"/>
  </g>
  <path fill="#FFAF00" d="M121.54 374.05l0 59.56c0,2.63 -0.9,4.64 -2.51,5.57 -1.61,0.93 -3.8,0.71 -6.08,-0.61l-51.58 -29.77c-2.28,-1.32 -4.47,-3.63 -6.08,-6.42 -1.61,-2.79 -2.52,-5.84 -2.52,-8.48l0 -59.55c0,-2.64 0.91,-4.64 2.52,-5.57 1.61,-0.93 3.8,-0.71 6.08,0.6l51.58 29.78c2.28,1.32 4.47,3.63 6.08,6.42 1.61,2.79 2.51,5.84 2.51,8.47z"/>
  <g>
   <path fill="#ED3237" d="M216.11 428.65l0 59.56c0,2.63 -0.91,4.63 -2.52,5.56 -1.61,0.93 -3.8,0.72 -6.08,-0.6l-51.58 -29.78c-2.28,-1.32 -4.47,-3.62 -6.08,-6.42 -1.61,-2.79 -2.51,-5.84 -2.51,-8.47l0 -59.56c0,-2.63 0.9,-4.63 2.51,-5.56 1.61,-0.93 3.8,-0.72 6.08,0.6l51.58 29.78c2.28,1.31 4.47,3.62 6.08,6.41 1.61,2.8 2.52,5.85 2.52,8.48z"/>
   <path id="1" fill="#FF6666" d="M216.11 428.65l0 59.56c0,2.63 -0.91,4.63 -2.52,5.56 -1.61,0.93 -3.8,0.72 -6.08,-0.6l-51.58 -29.78c-2.28,-1.32 -4.47,-3.62 -6.08,-6.42 -1.61,-2.79 -2.51,-5.84 -2.51,-8.47l0 -59.56c0,-2.63 0.9,-4.63 2.51,-5.56 1.61,-0.93 3.8,-0.72 6.08,0.6l51.58 29.78c2.28,1.31 4.47,3.62 6.08,6.41 1.61,2.8 2.52,5.85 2.52,8.48zm-12.5 47.9l0 -47.9c0,-0.17 -0.04,-0.38 -0.11,-0.62l-0.01 0.01c-0.18,-0.63 -0.42,-1.19 -0.69,-1.66 -0.28,-0.48 -0.63,-0.95 -1.03,-1.37 -0.23,-0.24 -0.4,-0.4 -0.51,-0.46l0.01 -0.02 -41.43 -23.93 0 47.9c0,0.18 0.04,0.41 0.11,0.66 0.15,0.49 0.38,1.02 0.69,1.56l0 0.05c0.28,0.48 0.63,0.95 1.04,1.37l0 0.05c0.19,0.21 0.35,0.35 0.45,0.41l41.48 23.95z"/>
  </g>
  <path fill="#FFAF00" d="M310.67 483.24l0 59.56c0,2.64 -0.91,4.64 -2.52,5.57 -1.61,0.93 -3.8,0.71 -6.08,-0.6l-51.58 -29.78c-2.28,-1.32 -4.46,-3.63 -6.07,-6.42 -1.62,-2.79 -2.52,-5.84 -2.52,-8.47l0 -59.56c0,-2.64 0.9,-4.64 2.52,-5.57 1.61,-0.93 3.79,-0.71 6.07,0.6l51.58 29.78c2.28,1.32 4.47,3.63 6.08,6.42 1.61,2.79 2.52,5.84 2.52,8.47z"/>
  <path fill="#FFAF00" d="M121.54 483.24l0 59.56c0,2.63 -0.9,4.64 -2.51,5.57 -1.61,0.93 -3.8,0.71 -6.08,-0.6l-51.58 -29.78c-2.28,-1.32 -4.47,-3.63 -6.08,-6.42 -1.61,-2.79 -2.52,-5.84 -2.52,-8.47l0 -59.56c0,-2.64 0.91,-4.64 2.52,-5.57 1.61,-0.93 3.8,-0.71 6.08,0.6l51.58 29.78c2.28,1.32 4.47,3.63 6.08,6.42 1.61,2.79 2.51,5.84 2.51,8.47z"/>
  <path fill="#FFAF00" d="M310.67 592.43l0 59.56c0,2.64 -0.91,4.64 -2.52,5.57 -1.61,0.93 -3.8,0.71 -6.08,-0.6l-51.58 -29.78c-2.28,-1.32 -4.46,-3.63 -6.07,-6.42 -1.62,-2.79 -2.52,-5.84 -2.52,-8.47l0 -59.56c0,-2.63 0.9,-4.64 2.52,-5.57 1.61,-0.93 3.79,-0.71 6.07,0.61l51.58 29.78c2.28,1.31 4.47,3.62 6.08,6.41 1.61,2.79 2.52,5.84 2.52,8.47z"/>
  <path fill="#323232" d="M143.77 450.56l-7.55 4.36c-3.76,2.17 -8.4,2.17 -12.16,0l-62.69 -36.2c-2.28,-1.32 -4.47,-1.53 -6.08,-0.6l7.55 -4.36 61.22 35.34c3.76,2.17 8.4,2.17 12.16,0 1.61,-0.93 2.52,-2.93 2.52,-5.56l0 -72.39c0,-4.35 2.32,-8.36 6.08,-10.53l7.55 -4.37 66.26 38.26c3.76,2.17 8.39,2.17 12.15,0 1.61,-0.93 2.52,-2.94 2.52,-5.57l0 -72.39c0,-4.34 2.32,-8.36 6.08,-10.53l62.69 -36.2c2.28,-1.31 3.56,-3.1 3.56,-4.96 0,-4.34 -2.31,-8.36 -6.07,-10.53l-66.26 -38.25 0 -8.72c0,-4.35 2.32,-8.36 6.08,-10.53l62.69 -36.2c2.28,-1.31 3.56,-3.1 3.56,-4.96 0,-4.34 -2.31,-8.36 -6.07,-10.53l-61.22 -35.34 0 -8.73c0,1.87 1.28,3.65 3.56,4.97l62.69 36.19c3.76,2.18 6.08,6.19 6.08,10.53l0 8.72 -66.25 38.26c-3.77,2.17 -6.08,6.18 -6.08,10.52 0,1.87 1.28,3.65 3.56,4.97l62.69 36.19c3.76,2.18 6.08,6.19 6.08,10.53l0 8.73 -66.25 38.25c-3.77,2.17 -6.08,6.18 -6.08,10.53l0 76.5 -7.56 4.36c-3.76,2.17 -8.39,2.17 -12.15,0l-62.7 -36.19c-2.28,-1.32 -4.47,-1.54 -6.08,-0.61 -3.76,2.18 -6.08,6.19 -6.08,10.53l0 76.51zm261.46 84.37l0 72.39c0,2.64 0.91,4.64 2.52,5.57l-7.55 -4.36 0 -70.69c0,-4.35 -2.32,-8.36 -6.08,-10.53 -1.61,-0.93 -3.8,-0.71 -6.08,0.6l-62.69 36.2c-3.77,2.17 -8.4,2.17 -12.16,0l-62.7 -36.2c-2.28,-1.31 -4.46,-1.53 -6.07,-0.6 -3.77,2.17 -6.08,6.18 -6.08,10.53l0 70.69 -7.56 4.36c1.61,-0.93 2.52,-2.93 2.52,-5.57l0 -72.39c0,-4.34 2.32,-8.36 6.08,-10.53l7.55 -4.36 66.26 38.25c3.76,2.18 8.39,2.18 12.16,0l66.25 -38.25 7.55 4.36c3.77,2.17 6.08,6.19 6.08,10.53zm97.08 23.36l-7.55 -4.36 0 -70.69c0,-4.34 -2.32,-8.35 -6.08,-10.53 -1.61,-0.93 -3.8,-0.71 -6.08,0.61l-62.69 36.19c-3.76,2.17 -8.4,2.17 -12.16,0l-7.55 -4.36 0 -76.5c0,-4.35 -2.32,-8.36 -6.08,-10.53 -1.61,-0.93 -3.8,-0.72 -6.08,0.6l-62.69 36.2c-3.77,2.17 -8.4,2.17 -12.16,0l-62.7 -36.2c-2.28,-1.32 -4.46,-1.53 -6.07,-0.6 -3.77,2.17 -6.08,6.18 -6.08,10.53l0 76.5 -7.56 4.36c-3.76,2.17 -8.39,2.17 -12.15,0l-62.7 -36.19c-2.28,-1.32 -4.47,-1.54 -6.08,-0.61 -3.76,2.18 -6.08,6.19 -6.08,10.53l0 70.69 -7.55 4.36c1.61,-0.93 2.52,-2.93 2.52,-5.56l0 -72.39c0,-4.35 2.32,-8.36 6.08,-10.53l7.55 -4.36 66.26 38.25c3.76,2.17 8.39,2.17 12.15,0 1.61,-0.93 2.52,-2.93 2.52,-5.57l0 -72.39c0,-4.34 2.32,-8.36 6.08,-10.53l7.55 -4.36 66.26 38.25c3.76,2.17 8.39,2.17 12.16,0l66.25 -38.25 7.55 4.36c3.77,2.17 6.08,6.19 6.08,10.53l0 72.39c0,2.64 0.91,4.64 2.52,5.57 3.76,2.17 8.4,2.17 12.16,0l66.25 -38.25 7.56 4.36c3.76,2.17 6.07,6.18 6.07,10.53l0 72.39c0,2.63 0.91,4.63 2.52,5.56zm-165.85 -288.47l62.69 36.2c3.77,2.17 6.08,6.19 6.08,10.53l0 72.39c0,2.63 0.91,4.64 2.52,5.57 3.76,2.17 8.4,2.17 12.16,0l66.25 -38.26 7.56 4.37c3.76,2.17 6.07,6.18 6.07,10.53l0 72.39c0,2.63 0.91,4.63 2.52,5.56 3.76,2.17 8.4,2.17 12.16,0l61.22 -35.34 7.55 4.36c-1.61,-0.93 -3.8,-0.72 -6.08,0.6l-62.69 36.2c-3.76,2.17 -8.4,2.17 -12.16,0l-7.55 -4.36 0 -76.51c0,-4.34 -2.32,-8.35 -6.08,-10.53 -1.61,-0.93 -3.8,-0.71 -6.08,0.61l-62.69 36.19c-3.76,2.17 -8.4,2.17 -12.16,0l-7.55 -4.36 0 -76.5c0,-4.35 -2.32,-8.36 -6.08,-10.53l-66.26 -38.25 0 -8.73c0,-4.34 2.32,-8.35 6.08,-10.53l62.7 -36.19c2.28,-1.32 3.56,-3.1 3.56,-4.97 0,-4.34 -2.32,-8.35 -6.08,-10.52l-66.26 -38.26 0 -8.72c0,-4.34 2.32,-8.35 6.08,-10.53l62.7 -36.19c2.28,-1.32 3.56,-3.1 3.56,-4.97l0 8.73 -61.22 35.34c-3.76,2.17 -6.08,6.19 -6.08,10.53 0,1.86 1.28,3.65 3.56,4.96l62.69 36.2c3.77,2.17 6.08,6.18 6.08,10.53l0 8.72 -66.25 38.25c-3.76,2.17 -6.08,6.19 -6.08,10.53 0,1.86 1.28,3.65 3.56,4.96zm240.7 39.71l-62.69 36.2c-3.76,2.17 -8.4,2.17 -12.16,0l-7.55 -4.37 0 -76.5c0,-4.34 -2.32,-8.36 -6.08,-10.53l-66.25 -38.25 0 -8.72c0,-4.35 2.31,-8.36 6.07,-10.53l62.7 -36.2c2.28,-1.31 3.56,-3.1 3.56,-4.96l0 8.72 -61.22 35.35c-3.76,2.17 -6.08,6.18 -6.08,10.52 0,1.87 1.28,3.65 3.56,4.97l62.7 36.19c3.76,2.18 6.07,6.19 6.07,10.53l0 72.4c0,2.63 0.91,4.63 2.52,5.56 3.76,2.17 8.4,2.17 12.16,0l61.22 -35.34 7.55 4.36c-1.61,-0.93 -3.8,-0.72 -6.08,0.6zm-515.79 0l62.69 36.2c3.76,2.17 8.4,2.17 12.16,0l7.55 -4.37 0 -76.5c0,-4.34 2.32,-8.36 6.08,-10.53l66.26 -38.25 0 -8.72c0,-4.35 -2.32,-8.36 -6.08,-10.53l-62.69 -36.2c-2.29,-1.31 -3.57,-3.1 -3.57,-4.96l0 8.72 61.22 35.35c3.77,2.17 6.08,6.18 6.08,10.52 0,1.87 -1.28,3.65 -3.56,4.97l-62.69 36.19c-3.76,2.18 -6.08,6.19 -6.08,10.53l0 72.4c0,2.63 -0.91,4.63 -2.52,5.56 -3.76,2.17 -8.4,2.17 -12.16,0l-61.22 -35.34 -7.55 4.36c1.61,-0.93 3.8,-0.72 6.08,0.6z"/>
  <g>
   <path fill="#ED3237" d="M216.11 537.84l0 59.56c0,2.63 -0.91,4.63 -2.52,5.56 -1.61,0.93 -3.8,0.72 -6.08,-0.6l-51.58 -29.78c-2.28,-1.31 -4.47,-3.62 -6.08,-6.41 -1.61,-2.8 -2.51,-5.85 -2.51,-8.48l0 -59.56c0,-2.63 0.9,-4.63 2.51,-5.56 1.61,-0.93 3.8,-0.72 6.08,0.6l51.58 29.78c2.28,1.32 4.47,3.62 6.08,6.42 1.61,2.79 2.52,5.84 2.52,8.47z"/>
   <path id="1" fill="#FF6666" d="M216.11 537.84l0 59.56c0,2.63 -0.91,4.63 -2.52,5.56 -1.61,0.93 -3.8,0.72 -6.08,-0.6l-51.58 -29.78c-2.28,-1.31 -4.47,-3.62 -6.08,-6.41 -1.61,-2.8 -2.51,-5.85 -2.51,-8.48l0 -59.56c0,-2.63 0.9,-4.63 2.51,-5.56 1.61,-0.93 3.8,-0.72 6.08,0.6l51.58 29.78c2.28,1.32 4.47,3.62 6.08,6.42 1.61,2.79 2.52,5.84 2.52,8.47zm-12.5 47.9l0 -47.9c0,-0.18 -0.04,-0.41 -0.12,-0.66 -0.16,-0.54 -0.39,-1.08 -0.67,-1.58l-0.02 0.02c-0.33,-0.57 -0.68,-1.05 -1.03,-1.42 -0.27,-0.28 -0.43,-0.44 -0.46,-0.46l-0.05 0 -41.42 -23.92 0 47.87c0,0.18 0.04,0.41 0.11,0.66 0.15,0.49 0.38,1.02 0.69,1.56l0 0.05c0.28,0.48 0.63,0.95 1.03,1.37 0.23,0.24 0.41,0.4 0.51,0.46l-0.01 0.02 41.44 23.93z"/>
  </g>
 </g>
</svg>
